{"glyphs":{"0":{"ha":911,"x_min":0,"x_max":0,"o":"m 518 978 b 871 468 817 978 925 854 b 411 -19 818 93 710 -19 b 58 490 128 -19 4 104 b 518 978 111 865 225 978 m 504 754 b 354 482 406 754 386 726 b 426 204 322 232 331 204 b 575 476 526 204 546 232 b 504 754 606 726 596 754 "},"1":{"ha":651,"x_min":0,"x_max":0,"o":"m 194 0 l 283 606 b 310 729 289 647 296 688 l 85 681 l 60 860 l 339 958 l 629 958 l 494 0 "},"2":{"ha":819,"x_min":0,"x_max":0,"o":"m 458 975 b 794 725 700 975 815 928 b 628 453 785 632 750 557 l 371 232 b 504 253 418 249 460 253 l 757 253 l 724 0 l -15 0 l 7 156 b 56 275 14 204 22 239 l 285 471 b 493 690 433 607 482 642 b 431 726 500 719 482 726 b 114 724 321 726 249 726 l 119 946 b 458 975 269 972 389 975 "},"3":{"ha":793,"x_min":0,"x_max":0,"o":"m 446 978 b 765 743 669 978 781 926 b 575 511 757 632 710 526 l 574 506 b 732 283 710 488 746 406 b 310 -19 707 63 564 -19 b -8 8 214 -19 93 -7 l 11 218 b 265 211 138 210 188 211 b 439 319 396 211 429 264 b 367 404 451 383 436 404 l 165 404 l 189 585 l 385 585 b 483 682 465 585 479 615 b 403 749 486 726 481 749 l 126 749 l 126 953 b 446 978 243 971 363 978 "},"4":{"ha":907,"x_min":0,"x_max":0,"o":"m 857 222 l 761 194 l 757 194 l 729 0 l 456 0 l 482 194 l 111 194 b 11 343 15 194 -25 269 l 331 958 l 615 958 l 343 415 b 351 386 332 394 331 386 l 508 386 l 540 622 l 608 769 l 838 769 l 783 386 l 879 386 "},"5":{"ha":776,"x_min":0,"x_max":0,"o":"m 378 743 l 353 633 l 468 619 b 728 315 713 586 744 428 b 315 -17 701 133 599 -3 b -14 8 211 -22 101 -7 l 24 232 b 261 224 117 224 197 219 b 432 335 361 229 417 251 b 325 407 442 388 413 396 l 169 431 b 86 542 111 439 75 486 l 168 958 l 783 958 l 744 743 "},"6":{"ha":839,"x_min":0,"x_max":0,"o":"m 536 633 b 794 331 761 633 825 540 b 388 -17 758 82 656 -17 b 58 482 93 -17 3 97 b 529 975 121 913 257 975 b 807 943 593 975 699 969 l 788 765 l 547 765 b 365 583 429 765 397 735 b 536 633 426 622 486 633 m 515 346 b 453 436 526 429 514 436 b 333 401 417 436 382 429 b 400 193 303 213 308 193 b 515 346 485 193 499 232 "},"7":{"ha":761,"x_min":0,"x_max":0,"o":"m 701 958 b 803 813 807 958 842 897 l 396 0 l 100 0 l 408 614 b 481 721 425 650 449 685 l 75 721 l 93 958 "},"8":{"ha":881,"x_min":0,"x_max":0,"o":"m 494 978 b 843 708 790 978 869 886 b 658 500 828 608 782 515 l 657 494 b 801 228 803 479 819 356 b 408 -21 776 50 697 -21 b 22 250 85 -21 3 72 b 238 494 35 369 89 485 l 239 500 b 115 731 131 518 100 611 b 494 978 138 903 225 978 m 494 783 b 379 668 418 783 392 768 b 463 589 372 606 379 589 b 574 690 540 589 561 604 b 494 783 585 769 569 783 m 435 406 b 311 283 360 406 324 394 b 408 190 303 210 318 190 b 529 306 486 190 515 204 b 435 406 540 390 522 406 "},"9":{"ha":840,"x_min":0,"x_max":0,"o":"m 479 972 b 801 474 782 972 856 864 b 329 -19 749 86 632 -19 b 25 13 264 -19 142 -14 l 44 194 l 314 194 b 500 375 429 194 474 242 b 313 322 440 335 378 322 b 71 639 76 322 51 506 b 479 972 106 881 168 972 m 346 651 b 404 519 335 543 344 519 b 524 549 450 519 483 526 b 451 763 546 740 550 763 b 346 651 376 763 356 744 "},"A":{"ha":942,"x_min":0,"x_max":0,"o":"m 319 203 l 244 0 l -68 0 l 301 886 b 407 958 319 933 358 958 l 679 958 b 775 875 728 958 769 922 l 899 0 l 597 0 l 581 203 m 547 629 b 546 736 543 665 544 701 l 507 736 b 479 632 501 706 493 669 l 401 422 l 564 422 "},"Á":{"ha":942,"x_min":0,"x_max":0,"o":"m 426 1119 l 769 1336 l 861 1133 l 492 1000 m 319 203 l 244 0 l -68 0 l 301 886 b 407 958 319 933 358 958 l 679 958 b 775 875 728 958 769 922 l 899 0 l 597 0 l 581 203 m 547 629 b 546 736 543 665 544 701 l 507 736 b 479 632 501 706 493 669 l 401 422 l 564 422 "},"Ă":{"ha":942,"x_min":0,"x_max":0,"o":"m 563 1024 b 338 1268 390 1024 297 1144 l 474 1275 b 575 1199 464 1217 496 1199 b 701 1278 658 1199 696 1228 l 832 1257 b 563 1024 836 1133 736 1024 m 319 203 l 244 0 l -68 0 l 301 886 b 407 958 319 933 358 958 l 679 958 b 775 875 728 958 769 922 l 899 0 l 597 0 l 581 203 m 547 629 b 546 736 543 665 544 701 l 507 736 b 479 632 501 706 493 669 l 401 422 l 564 422 "},"Â":{"ha":942,"x_min":0,"x_max":0,"o":"m 261 1099 l 469 1288 l 665 1288 l 847 1093 l 771 999 l 567 1129 l 556 1129 l 328 999 m 319 203 l 244 0 l -68 0 l 301 886 b 407 958 319 933 358 958 l 679 958 b 775 875 728 958 769 922 l 899 0 l 597 0 l 581 203 m 547 629 b 546 736 543 665 544 701 l 507 736 b 479 632 501 706 493 669 l 401 422 l 564 422 "},"Ä":{"ha":942,"x_min":0,"x_max":0,"o":"m 371 1060 b 329 1106 339 1060 324 1075 l 344 1207 b 399 1256 349 1242 364 1256 l 506 1256 b 547 1210 539 1256 553 1240 l 532 1104 b 483 1060 528 1072 515 1060 m 633 1060 b 592 1106 601 1060 586 1075 l 607 1208 b 657 1256 613 1243 626 1256 l 768 1256 b 810 1210 800 1256 815 1240 l 794 1106 b 746 1060 790 1072 778 1060 m 319 203 l 244 0 l -68 0 l 301 886 b 407 958 319 933 358 958 l 679 958 b 775 875 728 958 769 922 l 899 0 l 597 0 l 581 203 m 547 629 b 546 736 543 665 544 701 l 507 736 b 479 632 501 706 493 669 l 401 422 l 564 422 "},"À":{"ha":942,"x_min":0,"x_max":0,"o":"m 269 1147 l 381 1328 l 707 1119 l 614 1000 m 319 203 l 244 0 l -68 0 l 301 886 b 407 958 319 933 358 958 l 679 958 b 775 875 728 958 769 922 l 899 0 l 597 0 l 581 203 m 547 629 b 546 736 543 665 544 701 l 507 736 b 479 632 501 706 493 669 l 401 422 l 564 422 "},"Ā":{"ha":942,"x_min":0,"x_max":0,"o":"m 333 1072 l 357 1243 l 801 1243 l 778 1072 m 319 203 l 244 0 l -68 0 l 301 886 b 407 958 319 933 358 958 l 679 958 b 775 875 728 958 769 922 l 899 0 l 597 0 l 581 203 m 547 629 b 546 736 543 665 544 701 l 507 736 b 479 632 501 706 493 669 l 401 422 l 564 422 "},"Ą":{"ha":942,"x_min":0,"x_max":0,"o":"m 821 -126 b 865 -160 811 -157 822 -168 l 886 -262 b 617 -129 649 -349 565 -231 b 760 0 638 -89 681 -46 l 597 0 l 581 203 l 319 203 l 244 0 l -68 0 l 301 886 b 407 958 319 933 358 958 l 679 958 b 775 875 728 958 769 922 l 899 0 l 900 0 b 821 -126 867 -36 833 -89 m 547 629 b 546 736 543 665 544 701 l 507 736 b 479 632 501 706 493 669 l 401 422 l 564 422 "},"Å":{"ha":942,"x_min":0,"x_max":0,"o":"m 565 996 b 396 1175 460 996 382 1076 b 581 1332 407 1260 475 1332 b 751 1153 682 1332 765 1253 b 565 996 740 1068 672 996 m 511 1168 b 568 1100 507 1128 529 1100 b 636 1168 607 1100 635 1128 b 576 1228 638 1204 613 1228 b 511 1168 542 1228 515 1203 m 319 203 l 244 0 l -68 0 l 301 886 b 407 958 319 933 358 958 l 679 958 b 775 875 728 958 769 922 l 899 0 l 597 0 l 581 203 m 547 629 b 546 736 543 665 544 701 l 507 736 b 479 632 501 706 493 669 l 401 422 l 564 422 "},"Ã":{"ha":942,"x_min":0,"x_max":0,"o":"m 292 1049 b 428 1278 288 1207 344 1278 b 650 1217 497 1278 603 1228 b 715 1276 699 1206 710 1232 l 833 1265 b 701 1036 840 1104 783 1036 b 474 1097 629 1036 524 1088 b 410 1038 426 1107 417 1082 m 319 203 l 244 0 l -68 0 l 301 886 b 407 958 319 933 358 958 l 679 958 b 775 875 728 958 769 922 l 899 0 l 597 0 l 581 203 m 547 629 b 546 736 543 665 544 701 l 507 736 b 479 632 501 706 493 669 l 401 422 l 564 422 "},"Æ":{"ha":1328,"x_min":0,"x_max":0,"o":"m 1001 738 b 933 682 956 738 939 724 l 919 583 l 1250 583 l 1228 397 l 892 397 l 874 276 b 924 221 869 240 881 221 l 1246 221 l 1242 11 b 776 -6 1096 -7 925 -6 b 588 217 642 -6 569 89 l 353 217 l 232 0 l -81 0 l 357 747 b 865 961 447 903 543 961 b 1357 946 1050 961 1190 961 l 1321 738 m 618 436 l 654 697 b 683 783 658 724 671 758 l 668 783 b 631 711 657 763 640 726 l 476 436 "},"B":{"ha":913,"x_min":0,"x_max":0,"o":"m 874 708 b 676 501 856 576 810 513 l 675 493 b 853 228 826 481 875 386 b 483 -11 826 36 722 -11 b 15 0 267 -11 151 -10 l 150 958 b 543 969 269 968 375 969 b 874 708 797 969 900 911 m 586 688 b 533 761 594 743 582 761 l 417 761 l 392 588 l 485 588 b 586 688 556 588 574 604 m 551 311 b 479 406 563 389 549 406 l 367 406 l 338 197 l 425 197 b 551 311 514 197 538 217 "},"C":{"ha":838,"x_min":0,"x_max":0,"o":"m 543 975 b 858 936 686 975 765 963 l 824 718 b 528 721 722 719 656 721 b 371 468 429 721 400 694 b 450 238 346 279 347 238 b 757 249 589 238 668 240 l 768 28 b 436 -17 665 -4 576 -17 b 57 490 117 -17 4 113 b 543 975 111 876 224 975 "},"Ć":{"ha":838,"x_min":0,"x_max":0,"o":"m 500 1001 l 435 1121 l 778 1338 l 869 1135 m 543 975 b 858 936 686 975 765 963 l 824 718 b 528 721 722 719 656 721 b 371 468 429 721 400 694 b 450 238 346 279 347 238 b 757 249 589 238 668 240 l 768 28 b 436 -17 665 -4 576 -17 b 57 490 117 -17 4 113 b 543 975 111 876 224 975 "},"Č":{"ha":838,"x_min":0,"x_max":0,"o":"m 621 1025 l 507 1025 l 281 1225 l 361 1317 l 565 1204 l 576 1204 l 814 1311 l 869 1207 m 543 975 b 858 936 686 975 765 963 l 824 718 b 528 721 722 719 656 721 b 371 468 429 721 400 694 b 450 238 346 279 347 238 b 757 249 589 238 668 240 l 768 28 b 436 -17 665 -4 576 -17 b 57 490 117 -17 4 113 b 543 975 111 876 224 975 "},"Ç":{"ha":838,"x_min":0,"x_max":0,"o":"m 543 975 b 858 936 686 975 765 963 l 824 718 b 528 721 722 719 656 721 b 371 468 429 721 400 694 b 450 238 346 279 347 238 b 757 249 589 238 668 240 l 768 28 b 436 -17 665 -4 576 -17 b 57 490 117 -17 4 113 b 543 975 111 876 224 975 m 278 -90 b 517 -192 426 -71 536 -75 b 172 -383 490 -346 343 -407 l 201 -276 b 339 -212 263 -276 326 -269 b 253 -190 343 -194 336 -190 "},"Ċ":{"ha":838,"x_min":0,"x_max":0,"o":"m 628 1269 b 707 1188 678 1269 713 1243 l 700 1119 b 617 1046 694 1071 665 1046 l 529 1046 b 451 1131 469 1046 443 1075 l 460 1196 b 546 1269 467 1244 499 1269 m 543 975 b 858 936 686 975 765 963 l 824 718 b 528 721 722 719 656 721 b 371 468 429 721 400 694 b 450 238 346 279 347 238 b 757 249 589 238 668 240 l 768 28 b 436 -17 665 -4 576 -17 b 57 490 117 -17 4 113 b 543 975 111 876 224 975 "},"D":{"ha":972,"x_min":0,"x_max":0,"o":"m 540 972 b 936 468 851 972 992 863 b 446 -14 882 85 771 -14 b 15 0 278 -14 143 -8 l 150 958 b 540 972 257 967 396 972 m 619 490 b 531 754 647 706 638 754 l 422 754 l 346 206 l 442 204 b 619 490 536 204 589 250 "},"Ð":{"ha":972,"x_min":0,"x_max":0,"o":"m 540 972 b 936 468 851 972 992 863 b 446 -14 882 85 771 -14 b 15 0 278 -14 143 -8 l 76 435 l 11 435 l 31 574 l 96 574 l 150 958 b 540 972 257 967 396 972 m 619 490 b 531 754 647 706 638 754 l 422 754 l 397 574 l 518 574 l 499 435 l 378 435 l 346 206 l 442 204 b 619 490 536 204 589 250 "},"Ď":{"ha":972,"x_min":0,"x_max":0,"o":"m 272 1224 l 353 1315 l 557 1203 l 568 1203 l 806 1310 l 861 1206 l 613 1024 l 499 1024 m 540 972 b 936 468 851 972 992 863 b 446 -14 882 85 771 -14 b 15 0 278 -14 143 -8 l 150 958 b 540 972 257 967 396 972 m 619 490 b 531 754 647 706 638 754 l 422 754 l 346 206 l 442 204 b 619 490 536 204 589 250 "},"Đ":{"ha":972,"x_min":0,"x_max":0,"o":"m 540 972 b 936 468 851 972 992 863 b 446 -14 882 85 771 -14 b 15 0 278 -14 143 -8 l 76 435 l 11 435 l 31 574 l 96 574 l 150 958 b 540 972 257 967 396 972 m 619 490 b 531 754 647 706 638 754 l 422 754 l 397 574 l 518 574 l 499 435 l 378 435 l 346 206 l 442 204 b 619 490 536 204 589 250 "},"E":{"ha":815,"x_min":0,"x_max":0,"o":"m 476 733 b 406 678 429 733 411 719 l 393 590 l 739 590 l 714 390 l 365 390 l 350 279 b 401 225 344 243 361 225 l 735 225 l 729 11 b 260 -6 596 -7 410 -6 b 44 256 101 -6 25 104 l 114 751 b 360 964 132 881 218 964 b 843 944 528 964 714 963 l 810 733 "},"É":{"ha":815,"x_min":0,"x_max":0,"o":"m 401 1119 l 744 1336 l 836 1133 l 467 1000 m 476 733 b 406 678 429 733 411 719 l 393 590 l 739 590 l 714 390 l 365 390 l 350 279 b 401 225 344 243 361 225 l 735 225 l 729 11 b 260 -6 596 -7 410 -6 b 44 256 101 -6 25 104 l 114 751 b 360 964 132 881 218 964 b 843 944 528 964 714 963 l 810 733 "},"Ě":{"ha":815,"x_min":0,"x_max":0,"o":"m 247 1224 l 328 1315 l 532 1203 l 543 1203 l 781 1310 l 836 1206 l 588 1024 l 474 1024 m 476 733 b 406 678 429 733 411 719 l 393 590 l 739 590 l 714 390 l 365 390 l 350 279 b 401 225 344 243 361 225 l 735 225 l 729 11 b 260 -6 596 -7 410 -6 b 44 256 101 -6 25 104 l 114 751 b 360 964 132 881 218 964 b 843 944 528 964 714 963 l 810 733 "},"Ê":{"ha":815,"x_min":0,"x_max":0,"o":"m 236 1099 l 444 1288 l 640 1288 l 822 1093 l 746 999 l 542 1129 l 531 1129 l 303 999 m 476 733 b 406 678 429 733 411 719 l 393 590 l 739 590 l 714 390 l 365 390 l 350 279 b 401 225 344 243 361 225 l 735 225 l 729 11 b 260 -6 596 -7 410 -6 b 44 256 101 -6 25 104 l 114 751 b 360 964 132 881 218 964 b 843 944 528 964 714 963 l 810 733 "},"Ë":{"ha":815,"x_min":0,"x_max":0,"o":"m 346 1060 b 304 1106 314 1060 299 1075 l 319 1207 b 374 1256 324 1242 339 1256 l 481 1256 b 522 1210 514 1256 528 1240 l 507 1104 b 458 1060 503 1072 490 1060 m 608 1060 b 567 1106 576 1060 561 1075 l 582 1208 b 632 1256 588 1243 601 1256 l 743 1256 b 785 1210 775 1256 790 1240 l 769 1106 b 721 1060 765 1072 753 1060 m 476 733 b 406 678 429 733 411 719 l 393 590 l 739 590 l 714 390 l 365 390 l 350 279 b 401 225 344 243 361 225 l 735 225 l 729 11 b 260 -6 596 -7 410 -6 b 44 256 101 -6 25 104 l 114 751 b 360 964 132 881 218 964 b 843 944 528 964 714 963 l 810 733 "},"Ė":{"ha":815,"x_min":0,"x_max":0,"o":"m 496 1044 b 418 1129 436 1044 410 1074 l 426 1194 b 513 1268 433 1243 465 1268 l 594 1268 b 674 1186 644 1268 679 1242 l 667 1118 b 583 1044 661 1069 632 1044 m 476 733 b 406 678 429 733 411 719 l 393 590 l 739 590 l 714 390 l 365 390 l 350 279 b 401 225 344 243 361 225 l 735 225 l 729 11 b 260 -6 596 -7 410 -6 b 44 256 101 -6 25 104 l 114 751 b 360 964 132 881 218 964 b 843 944 528 964 714 963 l 810 733 "},"È":{"ha":815,"x_min":0,"x_max":0,"o":"m 244 1147 l 356 1328 l 682 1119 l 589 1000 m 476 733 b 406 678 429 733 411 719 l 393 590 l 739 590 l 714 390 l 365 390 l 350 279 b 401 225 344 243 361 225 l 735 225 l 729 11 b 260 -6 596 -7 410 -6 b 44 256 101 -6 25 104 l 114 751 b 360 964 132 881 218 964 b 843 944 528 964 714 963 l 810 733 "},"Ē":{"ha":815,"x_min":0,"x_max":0,"o":"m 308 1072 l 332 1243 l 776 1243 l 753 1072 m 476 733 b 406 678 429 733 411 719 l 393 590 l 739 590 l 714 390 l 365 390 l 350 279 b 401 225 344 243 361 225 l 735 225 l 729 11 b 260 -6 596 -7 410 -6 b 44 256 101 -6 25 104 l 114 751 b 360 964 132 881 218 964 b 843 944 528 964 714 963 l 810 733 "},"Ę":{"ha":815,"x_min":0,"x_max":0,"o":"m 476 733 b 406 678 429 733 411 719 l 393 590 l 739 590 l 714 390 l 365 390 l 350 279 b 401 225 344 243 361 225 l 735 225 l 729 11 b 650 -115 696 -25 663 -78 b 694 -149 640 -146 651 -157 l 715 -251 b 446 -118 478 -337 394 -219 b 567 -1 464 -82 501 -43 b 260 -6 465 -6 356 -6 b 44 256 101 -6 25 104 l 114 751 b 360 964 132 881 218 964 b 843 944 528 964 714 963 l 810 733 "},"F":{"ha":788,"x_min":0,"x_max":0,"o":"m 485 733 b 410 678 435 733 415 719 l 394 571 l 729 571 l 704 371 l 367 371 l 315 0 l 13 0 l 118 751 b 363 964 136 883 232 964 b 838 943 528 964 710 963 l 804 733 "},"G":{"ha":931,"x_min":0,"x_max":0,"o":"m 900 551 l 822 0 l 601 0 l 590 111 b 310 -19 532 51 439 -19 b 58 490 121 -19 4 106 b 583 978 114 886 257 978 b 904 936 697 978 806 967 l 871 721 b 563 724 767 722 683 724 b 372 468 440 724 403 664 b 450 238 343 279 358 238 b 575 281 515 238 550 263 l 613 551 "},"Ğ":{"ha":931,"x_min":0,"x_max":0,"o":"m 583 1024 b 358 1268 411 1024 318 1144 l 494 1275 b 596 1199 485 1217 517 1199 b 722 1278 679 1199 717 1228 l 853 1257 b 583 1024 857 1133 757 1024 m 900 551 l 822 0 l 601 0 l 590 111 b 310 -19 532 51 439 -19 b 58 490 121 -19 4 106 b 583 978 114 886 257 978 b 904 936 697 978 806 967 l 871 721 b 563 724 767 722 683 724 b 372 468 440 724 403 664 b 450 238 343 279 358 238 b 575 281 515 238 550 263 l 613 551 "},"Ģ":{"ha":931,"x_min":0,"x_max":0,"o":"m 900 551 l 822 0 l 601 0 l 590 111 b 310 -19 532 51 439 -19 b 58 490 121 -19 4 106 b 583 978 114 886 257 978 b 904 936 697 978 806 967 l 871 721 b 563 724 767 722 683 724 b 372 468 440 724 403 664 b 450 238 343 279 358 238 b 575 281 515 238 550 263 l 613 551 m 471 -67 b 556 -146 538 -67 565 -89 l 544 -212 b 431 -432 532 -286 485 -379 l 324 -399 b 378 -256 349 -351 363 -303 b 313 -189 322 -257 306 -235 l 321 -140 b 426 -67 331 -83 363 -67 "},"Ġ":{"ha":931,"x_min":0,"x_max":0,"o":"m 542 1044 b 464 1129 482 1044 456 1074 l 472 1194 b 558 1268 479 1243 511 1268 l 640 1268 b 719 1186 690 1268 725 1242 l 713 1118 b 629 1044 707 1069 678 1044 m 900 551 l 822 0 l 601 0 l 590 111 b 310 -19 532 51 439 -19 b 58 490 121 -19 4 106 b 583 978 114 886 257 978 b 904 936 697 978 806 967 l 871 721 b 563 724 767 722 683 724 b 372 468 440 724 403 664 b 450 238 343 279 358 238 b 575 281 515 238 550 263 l 613 551 "},"H":{"ha":979,"x_min":0,"x_max":0,"o":"m 849 0 l 547 0 l 604 401 l 375 401 l 318 0 l 17 0 l 151 958 l 453 958 l 404 615 l 633 615 l 682 958 l 983 958 "},"Ħ":{"ha":979,"x_min":0,"x_max":0,"o":"m 949 707 l 849 0 l 547 0 l 604 401 l 375 401 l 318 0 l 17 0 l 117 707 l 43 707 l 63 835 l 133 835 l 151 958 l 453 958 l 435 835 l 664 835 l 682 958 l 983 958 l 965 835 l 1039 835 l 1019 707 m 418 707 l 404 615 l 633 615 l 647 707 "},"I":{"ha":447,"x_min":0,"x_max":0,"o":"m 17 0 l 151 958 l 451 958 l 317 0 "},"Ĳ":{"ha":996,"x_min":0,"x_max":0,"o":"m 17 0 l 151 958 l 451 958 l 317 0 m 894 171 b 639 -19 876 46 779 -19 b 414 19 569 -19 457 -6 l 461 206 l 513 206 b 601 260 572 206 597 225 l 703 958 l 1003 958 "},"Í":{"ha":447,"x_min":0,"x_max":0,"o":"m 251 1000 l 186 1119 l 529 1336 l 621 1133 m 17 0 l 151 958 l 451 958 l 317 0 "},"Î":{"ha":447,"x_min":0,"x_max":0,"o":"m 531 999 l 326 1129 l 315 1129 l 88 999 l 21 1099 l 229 1288 l 425 1288 l 607 1093 m 17 0 l 151 958 l 451 958 l 317 0 "},"Ï":{"ha":447,"x_min":0,"x_max":0,"o":"m 265 1256 b 307 1210 299 1256 313 1240 l 292 1104 b 243 1060 288 1072 275 1060 l 131 1060 b 89 1106 99 1060 83 1075 l 104 1207 b 158 1256 108 1242 124 1256 m 528 1256 b 569 1210 560 1256 575 1240 l 554 1106 b 506 1060 550 1072 538 1060 l 393 1060 b 351 1106 361 1060 346 1075 l 367 1208 b 417 1256 372 1243 386 1256 m 17 0 l 151 958 l 451 958 l 317 0 "},"İ":{"ha":447,"x_min":0,"x_max":0,"o":"m 379 1268 b 458 1186 429 1268 464 1242 l 451 1118 b 368 1044 446 1069 417 1044 l 281 1044 b 203 1129 221 1044 194 1074 l 211 1194 b 297 1268 218 1243 250 1268 m 17 0 l 151 958 l 451 958 l 317 0 "},"Ì":{"ha":447,"x_min":0,"x_max":0,"o":"m 374 1000 l 29 1147 l 140 1328 l 467 1119 m 17 0 l 151 958 l 451 958 l 317 0 "},"Ī":{"ha":447,"x_min":0,"x_max":0,"o":"m 93 1072 l 117 1243 l 561 1243 l 538 1072 m 17 0 l 151 958 l 451 958 l 317 0 "},"Į":{"ha":447,"x_min":0,"x_max":0,"o":"m 317 0 l 276 0 b 197 -126 243 -36 210 -89 b 242 -160 188 -157 199 -168 l 263 -262 b -7 -129 25 -349 -58 -231 b 136 0 14 -89 57 -46 l 17 0 l 151 958 l 451 958 "},"J":{"ha":549,"x_min":0,"x_max":0,"o":"m 447 171 b 192 -19 429 46 332 -19 b -33 19 122 -19 10 -6 l 14 206 l 65 206 b 154 260 125 206 150 225 l 256 958 l 556 958 "},"K":{"ha":928,"x_min":0,"x_max":0,"o":"m 638 471 b 714 374 664 460 697 414 l 881 0 l 556 0 l 407 400 l 364 400 b 363 307 368 368 367 335 l 319 0 l 17 0 l 151 958 l 454 958 l 417 693 b 394 594 413 661 406 628 l 440 594 l 674 958 l 1007 958 l 739 558 b 639 476 710 513 668 488 "},"Ķ":{"ha":928,"x_min":0,"x_max":0,"o":"m 638 471 b 714 374 664 460 697 414 l 881 0 l 556 0 l 407 400 l 364 400 b 363 307 368 368 367 335 l 319 0 l 17 0 l 151 958 l 454 958 l 417 693 b 394 594 413 661 406 628 l 440 594 l 674 958 l 1007 958 l 739 558 b 639 476 710 513 668 488 m 450 -67 b 535 -146 517 -67 544 -89 l 524 -212 b 410 -432 511 -286 464 -379 l 303 -399 b 357 -256 328 -351 342 -303 b 292 -189 301 -257 285 -235 l 300 -140 b 406 -67 310 -83 342 -67 "},"L":{"ha":767,"x_min":0,"x_max":0,"o":"m 350 294 b 400 239 346 253 357 239 l 717 239 l 711 13 b 251 -6 583 -4 410 -6 b 43 218 113 -6 24 89 l 146 958 l 449 958 "},"Ĺ":{"ha":767,"x_min":0,"x_max":0,"o":"m 249 981 l 183 1100 l 526 1317 l 618 1114 m 350 294 b 400 239 346 253 357 239 l 717 239 l 711 13 b 251 -6 583 -4 410 -6 b 43 218 113 -6 24 89 l 146 958 l 449 958 "},"Ľ":{"ha":767,"x_min":0,"x_max":0,"o":"m 350 294 b 400 239 346 253 357 239 l 717 239 l 711 13 b 251 -6 583 -4 410 -6 b 43 218 113 -6 24 89 l 146 958 l 449 958 m 654 957 b 739 878 721 957 749 935 l 728 811 b 614 592 715 738 668 644 l 507 625 b 561 768 532 672 546 721 b 496 835 506 767 489 789 l 504 883 b 610 957 514 940 546 957 "},"Ļ":{"ha":767,"x_min":0,"x_max":0,"o":"m 350 294 b 400 239 346 253 357 239 l 717 239 l 711 13 b 251 -6 583 -4 410 -6 b 43 218 113 -6 24 89 l 146 958 l 449 958 m 379 -67 b 464 -146 446 -67 474 -89 l 453 -212 b 339 -432 440 -286 393 -379 l 232 -399 b 286 -256 257 -351 271 -303 b 221 -189 231 -257 214 -235 l 229 -140 b 335 -67 239 -83 271 -67 "},"Ŀ":{"ha":767,"x_min":0,"x_max":0,"o":"m 350 294 b 400 239 346 253 357 239 l 717 239 l 711 13 b 251 -6 583 -4 410 -6 b 43 218 113 -6 24 89 l 146 958 l 449 958 m 579 476 b 500 558 529 476 494 503 l 507 626 b 590 700 513 675 542 700 l 678 700 b 756 615 738 700 764 671 l 747 550 b 661 476 740 501 708 476 "},"Ł":{"ha":772,"x_min":0,"x_max":0,"o":"m 717 13 b 257 -6 589 -4 415 -6 b 49 218 118 -6 29 89 l 74 399 l 6 374 l 25 518 l 94 543 l 151 958 l 454 958 l 410 660 l 554 713 l 533 568 l 389 515 l 356 294 b 406 239 351 253 363 239 l 722 239 "},"M":{"ha":1315,"x_min":0,"x_max":0,"o":"m 1190 958 b 1289 849 1258 958 1296 917 l 1203 0 l 932 0 l 1007 733 l 988 733 l 826 239 b 706 153 808 178 771 153 l 553 153 b 446 250 489 153 449 189 l 419 733 l 397 733 l 271 0 l 0 0 l 154 860 b 264 958 167 928 196 958 l 519 958 b 624 860 582 958 622 922 l 640 479 b 638 336 643 432 642 386 l 651 336 b 686 476 663 390 674 431 l 803 871 b 922 958 819 933 858 958 "},"N":{"ha":1014,"x_min":0,"x_max":0,"o":"m 899 99 b 789 0 889 31 857 0 l 689 0 b 582 93 626 0 608 36 l 418 422 b 369 581 396 467 382 522 l 360 581 b 351 403 361 521 360 464 l 292 0 l 15 0 l 136 860 b 246 958 146 928 178 958 l 346 958 b 451 865 408 958 425 921 l 613 553 b 671 388 635 507 654 456 l 682 388 b 685 550 676 450 678 496 l 743 958 l 1019 958 "},"Ń":{"ha":1014,"x_min":0,"x_max":0,"o":"m 526 1000 l 461 1119 l 804 1336 l 896 1133 m 899 99 b 789 0 889 31 857 0 l 689 0 b 582 93 626 0 608 36 l 418 422 b 369 581 396 467 382 522 l 360 581 b 351 403 361 521 360 464 l 292 0 l 15 0 l 136 860 b 246 958 146 928 178 958 l 346 958 b 451 865 408 958 425 921 l 613 553 b 671 388 635 507 654 456 l 682 388 b 685 550 676 450 678 496 l 743 958 l 1019 958 "},"Ň":{"ha":1014,"x_min":0,"x_max":0,"o":"m 647 1024 l 533 1024 l 307 1224 l 388 1315 l 592 1203 l 603 1203 l 840 1310 l 896 1206 m 899 99 b 789 0 889 31 857 0 l 689 0 b 582 93 626 0 608 36 l 418 422 b 369 581 396 467 382 522 l 360 581 b 351 403 361 521 360 464 l 292 0 l 15 0 l 136 860 b 246 958 146 928 178 958 l 346 958 b 451 865 408 958 425 921 l 613 553 b 671 388 635 507 654 456 l 682 388 b 685 550 676 450 678 496 l 743 958 l 1019 958 "},"Ņ":{"ha":1014,"x_min":0,"x_max":0,"o":"m 899 99 b 789 0 889 31 857 0 l 689 0 b 582 93 626 0 608 36 l 418 422 b 369 581 396 467 382 522 l 360 581 b 351 403 361 521 360 464 l 292 0 l 15 0 l 136 860 b 246 958 146 928 178 958 l 346 958 b 451 865 408 958 425 921 l 613 553 b 671 388 635 507 654 456 l 682 388 b 685 550 676 450 678 496 l 743 958 l 1019 958 m 501 -67 b 586 -146 568 -67 596 -89 l 575 -212 b 461 -432 563 -286 515 -379 l 354 -399 b 408 -256 379 -351 393 -303 b 343 -189 353 -257 336 -235 l 351 -140 b 457 -67 361 -83 393 -67 "},"Ŋ":{"ha":1021,"x_min":0,"x_max":0,"o":"m 883 -51 b 668 -283 863 -201 779 -283 b 463 -244 606 -283 517 -269 l 514 -58 l 556 -58 b 626 -15 592 -58 621 -42 l 633 18 l 629 18 b 583 93 611 18 596 67 l 418 421 b 372 581 394 474 385 521 l 364 581 b 353 407 364 518 361 465 l 293 0 l 15 0 l 136 860 b 246 958 146 928 178 958 l 360 958 b 464 865 422 958 443 922 l 617 551 b 672 388 633 514 656 468 l 681 388 b 692 567 678 461 683 507 l 749 958 l 1026 958 "},"Ñ":{"ha":1014,"x_min":0,"x_max":0,"o":"m 463 1278 b 685 1217 532 1278 638 1228 b 750 1276 733 1206 744 1232 l 868 1265 b 736 1036 875 1104 818 1036 b 508 1097 664 1036 558 1088 b 444 1038 461 1107 451 1082 l 326 1049 b 463 1278 322 1207 379 1278 m 899 99 b 789 0 889 31 857 0 l 689 0 b 582 93 626 0 608 36 l 418 422 b 369 581 396 467 382 522 l 360 581 b 351 403 361 521 360 464 l 292 0 l 15 0 l 136 860 b 246 958 146 928 178 958 l 346 958 b 451 865 408 958 425 921 l 613 553 b 671 388 635 507 654 456 l 682 388 b 685 550 676 450 678 496 l 743 958 l 1019 958 "},"O":{"ha":972,"x_min":0,"x_max":0,"o":"m 540 978 b 938 468 857 978 990 867 b 447 -19 885 74 749 -19 b 57 490 115 -19 3 96 b 540 978 111 881 242 978 m 538 754 b 372 468 436 754 410 706 b 454 204 338 249 356 204 b 621 490 558 204 585 253 b 538 754 654 708 636 754 "},"Ó":{"ha":972,"x_min":0,"x_max":0,"o":"m 515 1000 l 450 1119 l 793 1336 l 885 1133 m 540 978 b 938 468 857 978 990 867 b 447 -19 885 74 749 -19 b 57 490 115 -19 3 96 b 540 978 111 881 242 978 m 538 754 b 372 468 436 754 410 706 b 454 204 338 249 356 204 b 621 490 558 204 585 253 b 538 754 654 708 636 754 "},"Ô":{"ha":972,"x_min":0,"x_max":0,"o":"m 794 999 l 590 1129 l 579 1129 l 351 999 l 285 1099 l 493 1288 l 689 1288 l 871 1093 m 540 978 b 938 468 857 978 990 867 b 447 -19 885 74 749 -19 b 57 490 115 -19 3 96 b 540 978 111 881 242 978 m 538 754 b 372 468 436 754 410 706 b 454 204 338 249 356 204 b 621 490 558 204 585 253 b 538 754 654 708 636 754 "},"Ö":{"ha":972,"x_min":0,"x_max":0,"o":"m 529 1256 b 571 1210 563 1256 576 1240 l 556 1104 b 507 1060 551 1072 539 1060 l 394 1060 b 353 1106 363 1060 347 1075 l 368 1207 b 422 1256 372 1242 388 1256 m 792 1256 b 833 1210 824 1256 839 1240 l 818 1106 b 769 1060 814 1072 801 1060 l 657 1060 b 615 1106 625 1060 610 1075 l 631 1208 b 681 1256 636 1243 650 1256 m 540 978 b 938 468 857 978 990 867 b 447 -19 885 74 749 -19 b 57 490 115 -19 3 96 b 540 978 111 881 242 978 m 538 754 b 372 468 436 754 410 706 b 454 204 338 249 356 204 b 621 490 558 204 585 253 b 538 754 654 708 636 754 "},"Ò":{"ha":972,"x_min":0,"x_max":0,"o":"m 638 1000 l 293 1147 l 404 1328 l 731 1119 m 540 978 b 938 468 857 978 990 867 b 447 -19 885 74 749 -19 b 57 490 115 -19 3 96 b 540 978 111 881 242 978 m 538 754 b 372 468 436 754 410 706 b 454 204 338 249 356 204 b 621 490 558 204 585 253 b 538 754 654 708 636 754 "},"Ő":{"ha":972,"x_min":0,"x_max":0,"o":"m 421 1004 l 303 1076 l 507 1344 l 675 1228 m 718 1004 l 601 1075 l 806 1344 l 974 1228 m 540 978 b 938 468 857 978 990 867 b 447 -19 885 74 749 -19 b 57 490 115 -19 3 96 b 540 978 111 881 242 978 m 538 754 b 372 468 436 754 410 706 b 454 204 338 249 356 204 b 621 490 558 204 585 253 b 538 754 654 708 636 754 "},"Ō":{"ha":972,"x_min":0,"x_max":0,"o":"m 357 1072 l 381 1243 l 825 1243 l 801 1072 m 540 978 b 938 468 857 978 990 867 b 447 -19 885 74 749 -19 b 57 490 115 -19 3 96 b 540 978 111 881 242 978 m 538 754 b 372 468 436 754 410 706 b 454 204 338 249 356 204 b 621 490 558 204 585 253 b 538 754 654 708 636 754 "},"Ø":{"ha":972,"x_min":0,"x_max":0,"o":"m 874 876 b 938 468 943 800 964 671 b 447 -19 885 74 749 -19 b 338 -14 407 -19 371 -18 l 251 -154 l 43 -47 l 118 75 b 57 490 46 151 28 282 b 540 978 111 881 242 978 b 658 971 583 978 622 976 l 751 1126 l 960 1021 m 621 490 b 538 754 654 708 636 754 b 372 468 436 754 410 706 b 454 204 338 249 356 204 b 621 490 558 204 585 253 "},"Õ":{"ha":972,"x_min":0,"x_max":0,"o":"m 451 1278 b 674 1217 521 1278 626 1228 b 739 1276 722 1206 733 1232 l 857 1265 b 725 1036 864 1104 807 1036 b 497 1097 653 1036 547 1088 b 433 1038 450 1107 440 1082 l 315 1049 b 451 1278 311 1207 368 1278 m 540 978 b 938 468 857 978 990 867 b 447 -19 885 74 749 -19 b 57 490 115 -19 3 96 b 540 978 111 881 242 978 m 538 754 b 372 468 436 754 410 706 b 454 204 338 249 356 204 b 621 490 558 204 585 253 b 538 754 654 708 636 754 "},"Œ":{"ha":1356,"x_min":0,"x_max":0,"o":"m 1024 733 b 954 678 992 733 958 707 l 940 583 l 1278 583 l 1254 397 l 914 397 l 896 269 b 935 225 892 240 904 225 l 1274 225 l 1268 11 b 790 -6 1132 -7 943 -6 b 671 25 743 -6 703 6 b 439 -19 597 -7 522 -19 b 57 490 110 -19 1 90 b 546 978 111 879 233 978 b 792 942 646 978 722 965 b 892 964 821 956 856 964 b 1382 944 1061 964 1251 963 l 1347 733 m 436 204 b 589 225 508 204 557 211 l 663 746 b 547 754 633 753 594 754 b 372 468 444 754 404 696 b 436 204 342 251 350 204 "},"P":{"ha":886,"x_min":0,"x_max":0,"o":"m 536 972 b 896 635 829 972 931 896 b 517 322 863 388 768 322 b 363 332 465 322 413 326 l 315 0 l 15 0 l 150 958 b 536 972 275 971 358 972 m 599 657 b 529 760 610 735 597 760 l 422 760 l 390 535 l 490 535 b 599 657 561 535 583 544 "},"Þ":{"ha":883,"x_min":0,"x_max":0,"o":"m 510 803 b 869 465 799 803 904 726 b 493 153 836 218 742 153 b 340 163 442 153 390 157 l 318 0 l 17 0 l 151 958 l 453 958 l 431 803 m 571 488 b 506 590 582 565 572 590 l 401 590 l 369 365 l 467 365 b 571 488 535 365 556 375 "},"Q":{"ha":972,"x_min":0,"x_max":0,"o":"m 540 978 b 938 468 857 978 990 867 b 447 -19 885 74 749 -19 b 57 490 115 -19 3 96 b 540 978 111 881 242 978 m 538 754 b 372 468 436 754 410 706 b 454 204 338 249 356 204 b 621 490 558 204 585 253 b 538 754 654 708 636 754 m 335 -37 b 778 -140 467 -89 604 -114 l 669 -383 b 251 -181 488 -329 349 -258 "},"R":{"ha":929,"x_min":0,"x_max":0,"o":"m 911 669 b 694 453 896 560 850 468 l 693 443 b 819 289 740 436 808 406 l 856 0 l 544 0 l 519 290 b 464 350 518 343 506 350 l 358 350 l 310 0 l 15 0 l 150 958 b 538 972 275 971 361 972 b 911 669 804 972 942 899 m 611 672 b 535 760 621 739 603 760 l 417 760 l 389 563 l 493 563 b 611 672 575 563 597 582 "},"Ŕ":{"ha":929,"x_min":0,"x_max":0,"o":"m 417 1119 l 760 1336 l 851 1133 l 482 1000 m 911 669 b 694 453 896 560 850 468 l 693 443 b 819 289 740 436 808 406 l 856 0 l 544 0 l 519 290 b 464 350 518 343 506 350 l 358 350 l 310 0 l 15 0 l 150 958 b 538 972 275 971 361 972 b 911 669 804 972 942 899 m 611 672 b 535 760 621 739 603 760 l 417 760 l 389 563 l 493 563 b 611 672 575 563 597 582 "},"Ř":{"ha":929,"x_min":0,"x_max":0,"o":"m 263 1224 l 343 1315 l 547 1203 l 558 1203 l 796 1310 l 851 1206 l 603 1024 l 489 1024 m 911 669 b 694 453 896 560 850 468 l 693 443 b 819 289 740 436 808 406 l 856 0 l 544 0 l 519 290 b 464 350 518 343 506 350 l 358 350 l 310 0 l 15 0 l 150 958 b 538 972 275 971 361 972 b 911 669 804 972 942 899 m 611 672 b 535 760 621 739 603 760 l 417 760 l 389 563 l 493 563 b 611 672 575 563 597 582 "},"Ŗ":{"ha":929,"x_min":0,"x_max":0,"o":"m 911 669 b 694 453 896 560 850 468 l 693 443 b 819 289 740 436 808 406 l 856 0 l 544 0 l 519 290 b 464 350 518 343 506 350 l 358 350 l 310 0 l 15 0 l 150 958 b 538 972 275 971 361 972 b 911 669 804 972 942 899 m 611 672 b 535 760 621 739 603 760 l 417 760 l 389 563 l 493 563 b 611 672 575 563 597 582 m 449 -67 b 533 -146 515 -67 543 -89 l 522 -212 b 408 -432 510 -286 463 -379 l 301 -399 b 356 -256 326 -351 340 -303 b 290 -189 300 -257 283 -235 l 299 -140 b 404 -67 308 -83 340 -67 "},"S":{"ha":836,"x_min":0,"x_max":0,"o":"m 496 978 b 839 928 603 978 732 964 l 813 736 b 476 739 728 738 594 739 b 382 700 413 739 389 731 b 443 638 378 679 388 664 l 604 561 b 779 263 763 486 794 404 b 379 -19 754 42 656 -19 b 6 29 299 -19 151 -8 l 33 239 b 364 232 194 235 328 232 b 482 272 449 232 475 243 b 436 326 488 296 475 307 l 261 413 b 85 707 100 492 71 589 b 496 978 110 918 235 978 "},"Ś":{"ha":836,"x_min":0,"x_max":0,"o":"m 444 1000 l 379 1119 l 722 1336 l 814 1133 m 496 978 b 839 928 603 978 732 964 l 813 736 b 476 739 728 738 594 739 b 382 700 413 739 389 731 b 443 638 378 679 388 664 l 604 561 b 779 263 763 486 794 404 b 379 -19 754 42 656 -19 b 6 29 299 -19 151 -8 l 33 239 b 364 232 194 235 328 232 b 482 272 449 232 475 243 b 436 326 488 296 475 307 l 261 413 b 85 707 100 492 71 589 b 496 978 110 918 235 978 "},"Š":{"ha":836,"x_min":0,"x_max":0,"o":"m 565 1024 l 451 1024 l 225 1224 l 306 1315 l 510 1203 l 521 1203 l 758 1310 l 814 1206 m 496 978 b 839 928 603 978 732 964 l 813 736 b 476 739 728 738 594 739 b 382 700 413 739 389 731 b 443 638 378 679 388 664 l 604 561 b 779 263 763 486 794 404 b 379 -19 754 42 656 -19 b 6 29 299 -19 151 -8 l 33 239 b 364 232 194 235 328 232 b 482 272 449 232 475 243 b 436 326 488 296 475 307 l 261 413 b 85 707 100 492 71 589 b 496 978 110 918 235 978 "},"Ş":{"ha":836,"x_min":0,"x_max":0,"o":"m 496 978 b 839 928 603 978 732 964 l 813 736 b 476 739 728 738 594 739 b 382 700 413 739 389 731 b 443 638 378 679 388 664 l 604 561 b 779 263 763 486 794 404 b 379 -19 754 42 656 -19 b 6 29 299 -19 151 -8 l 33 239 b 364 232 194 235 328 232 b 482 272 449 232 475 243 b 436 326 488 296 475 307 l 261 413 b 85 707 100 492 71 589 b 496 978 110 918 235 978 m 254 -93 b 493 -194 403 -74 513 -78 b 149 -386 467 -349 319 -410 l 178 -279 b 315 -215 239 -279 303 -272 b 229 -193 319 -197 313 -193 "},"Ș":{"ha":836,"x_min":0,"x_max":0,"o":"m 496 978 b 839 928 603 978 732 964 l 813 736 b 476 739 728 738 594 739 b 382 700 413 739 389 731 b 443 638 378 679 388 664 l 604 561 b 779 263 763 486 794 404 b 379 -19 754 42 656 -19 b 6 29 299 -19 151 -8 l 33 239 b 364 232 194 235 328 232 b 482 272 449 232 475 243 b 436 326 488 296 475 307 l 261 413 b 85 707 100 492 71 589 b 496 978 110 918 235 978 m 388 -67 b 472 -146 454 -67 482 -89 l 461 -212 b 347 -432 449 -286 401 -379 l 240 -399 b 294 -256 265 -351 279 -303 b 229 -189 239 -257 222 -235 l 238 -140 b 343 -67 247 -83 279 -67 "},"T":{"ha":858,"x_min":0,"x_max":0,"o":"m 625 733 l 522 0 l 221 0 l 324 733 l 60 733 l 92 958 l 922 958 l 890 733 "},"Ŧ":{"ha":858,"x_min":0,"x_max":0,"o":"m 600 557 l 768 557 l 750 426 l 582 426 l 522 0 l 221 0 l 281 426 l 125 426 l 143 557 l 299 557 l 324 733 l 60 733 l 92 958 l 922 958 l 890 733 l 625 733 "},"Ť":{"ha":858,"x_min":0,"x_max":0,"o":"m 231 1224 l 311 1315 l 515 1203 l 526 1203 l 764 1310 l 819 1206 l 571 1024 l 457 1024 m 625 733 l 522 0 l 221 0 l 324 733 l 60 733 l 92 958 l 922 958 l 890 733 "},"Ţ":{"ha":858,"x_min":0,"x_max":0,"o":"m 625 733 l 522 0 l 221 0 l 324 733 l 60 733 l 92 958 l 922 958 l 890 733 m 256 -60 b 494 -161 404 -40 514 -44 b 150 -353 468 -315 321 -376 l 179 -246 b 317 -182 240 -246 304 -239 b 231 -160 321 -164 314 -160 "},"Ț":{"ha":858,"x_min":0,"x_max":0,"o":"m 625 733 l 522 0 l 221 0 l 324 733 l 60 733 l 92 958 l 922 958 l 890 733 m 368 -53 b 453 -132 435 -53 463 -75 l 442 -199 b 328 -418 429 -272 382 -365 l 221 -385 b 275 -242 246 -337 260 -289 b 210 -175 219 -243 203 -221 l 218 -126 b 324 -53 228 -69 260 -53 "},"U":{"ha":972,"x_min":0,"x_max":0,"o":"m 904 390 b 447 -19 861 85 753 -19 b 63 401 156 -19 22 96 l 143 958 l 443 958 l 363 390 b 454 204 340 244 353 204 b 606 401 560 204 581 247 l 685 958 l 986 958 "},"Ú":{"ha":972,"x_min":0,"x_max":0,"o":"m 510 1000 l 444 1119 l 788 1336 l 879 1133 m 904 390 b 447 -19 861 85 753 -19 b 63 401 156 -19 22 96 l 143 958 l 443 958 l 363 390 b 454 204 340 244 353 204 b 606 401 560 204 581 247 l 685 958 l 986 958 "},"Û":{"ha":972,"x_min":0,"x_max":0,"o":"m 789 999 l 585 1129 l 574 1129 l 346 999 l 279 1099 l 488 1288 l 683 1288 l 865 1093 m 904 390 b 447 -19 861 85 753 -19 b 63 401 156 -19 22 96 l 143 958 l 443 958 l 363 390 b 454 204 340 244 353 204 b 606 401 560 204 581 247 l 685 958 l 986 958 "},"Ü":{"ha":972,"x_min":0,"x_max":0,"o":"m 524 1256 b 565 1210 557 1256 571 1240 l 550 1104 b 501 1060 546 1072 533 1060 l 389 1060 b 347 1106 357 1060 342 1075 l 363 1207 b 417 1256 367 1242 382 1256 m 786 1256 b 828 1210 818 1256 833 1240 l 813 1106 b 764 1060 808 1072 796 1060 l 651 1060 b 610 1106 619 1060 604 1075 l 625 1208 b 675 1256 631 1243 644 1256 m 904 390 b 447 -19 861 85 753 -19 b 63 401 156 -19 22 96 l 143 958 l 443 958 l 363 390 b 454 204 340 244 353 204 b 606 401 560 204 581 247 l 685 958 l 986 958 "},"Ù":{"ha":972,"x_min":0,"x_max":0,"o":"m 632 1000 l 288 1147 l 399 1328 l 725 1119 m 904 390 b 447 -19 861 85 753 -19 b 63 401 156 -19 22 96 l 143 958 l 443 958 l 363 390 b 454 204 340 244 353 204 b 606 401 560 204 581 247 l 685 958 l 986 958 "},"Ű":{"ha":972,"x_min":0,"x_max":0,"o":"m 415 1004 l 297 1076 l 501 1344 l 669 1228 m 713 1004 l 596 1075 l 800 1344 l 968 1228 m 904 390 b 447 -19 861 85 753 -19 b 63 401 156 -19 22 96 l 143 958 l 443 958 l 363 390 b 454 204 340 244 353 204 b 606 401 560 204 581 247 l 685 958 l 986 958 "},"Ū":{"ha":972,"x_min":0,"x_max":0,"o":"m 351 1072 l 375 1243 l 819 1243 l 796 1072 m 904 390 b 447 -19 861 85 753 -19 b 63 401 156 -19 22 96 l 143 958 l 443 958 l 363 390 b 454 204 340 244 353 204 b 606 401 560 204 581 247 l 685 958 l 986 958 "},"Ų":{"ha":972,"x_min":0,"x_max":0,"o":"m 904 390 b 486 -19 863 99 763 -10 b 413 -139 454 -54 424 -104 b 457 -172 403 -169 414 -181 l 478 -275 b 208 -142 240 -361 157 -243 b 349 -14 229 -103 271 -60 b 63 401 126 11 28 133 l 143 958 l 443 958 l 363 390 b 454 204 340 244 353 204 b 606 401 560 204 581 247 l 685 958 l 986 958 "},"Ů":{"ha":972,"x_min":0,"x_max":0,"o":"m 599 1332 b 769 1153 700 1332 783 1253 b 583 996 758 1068 690 996 b 414 1175 478 996 400 1076 b 599 1332 425 1260 493 1332 m 594 1228 b 529 1168 560 1228 533 1203 b 586 1100 525 1128 547 1100 b 654 1168 625 1100 653 1128 b 594 1228 656 1204 631 1228 m 904 390 b 447 -19 861 85 753 -19 b 63 401 156 -19 22 96 l 143 958 l 443 958 l 363 390 b 454 204 340 244 353 204 b 606 401 560 204 581 247 l 685 958 l 986 958 "},"V":{"ha":924,"x_min":0,"x_max":0,"o":"m 647 75 b 542 0 629 28 593 0 l 279 0 b 183 86 228 0 189 38 l 75 958 l 378 958 l 411 346 b 411 221 414 304 413 261 l 447 221 b 479 340 454 263 465 301 l 688 958 l 1004 958 "},"W":{"ha":1382,"x_min":0,"x_max":0,"o":"m 1189 75 b 1083 0 1176 26 1136 0 l 831 0 b 735 86 779 0 733 38 l 744 599 b 751 744 746 651 749 693 l 726 744 b 699 603 719 697 710 649 l 561 75 b 456 0 549 26 507 0 l 196 0 b 100 86 144 0 99 38 l 103 958 l 399 958 l 361 365 b 350 206 358 318 354 267 l 374 206 b 413 378 385 265 399 328 l 546 875 b 653 958 560 928 599 958 l 863 958 b 956 864 917 958 956 917 l 956 364 b 953 206 956 314 954 256 l 978 206 b 1007 374 983 257 996 326 l 1135 958 l 1431 958 "},"Ẃ":{"ha":1382,"x_min":0,"x_max":0,"o":"m 708 1000 l 643 1119 l 986 1336 l 1078 1133 m 1189 75 b 1083 0 1176 26 1136 0 l 831 0 b 735 86 779 0 733 38 l 744 599 b 751 744 746 651 749 693 l 726 744 b 699 603 719 697 710 649 l 561 75 b 456 0 549 26 507 0 l 196 0 b 100 86 144 0 99 38 l 103 958 l 399 958 l 361 365 b 350 206 358 318 354 267 l 374 206 b 413 378 385 265 399 328 l 546 875 b 653 958 560 928 599 958 l 863 958 b 956 864 917 958 956 917 l 956 364 b 953 206 956 314 954 256 l 978 206 b 1007 374 983 257 996 326 l 1135 958 l 1431 958 "},"Ŵ":{"ha":1382,"x_min":0,"x_max":0,"o":"m 988 999 l 783 1129 l 772 1129 l 544 999 l 478 1099 l 686 1288 l 882 1288 l 1064 1093 m 1189 75 b 1083 0 1176 26 1136 0 l 831 0 b 735 86 779 0 733 38 l 744 599 b 751 744 746 651 749 693 l 726 744 b 699 603 719 697 710 649 l 561 75 b 456 0 549 26 507 0 l 196 0 b 100 86 144 0 99 38 l 103 958 l 399 958 l 361 365 b 350 206 358 318 354 267 l 374 206 b 413 378 385 265 399 328 l 546 875 b 653 958 560 928 599 958 l 863 958 b 956 864 917 958 956 917 l 956 364 b 953 206 956 314 954 256 l 978 206 b 1007 374 983 257 996 326 l 1135 958 l 1431 958 "},"Ẅ":{"ha":1382,"x_min":0,"x_max":0,"o":"m 722 1256 b 764 1210 756 1256 769 1240 l 749 1104 b 700 1060 744 1072 732 1060 l 588 1060 b 546 1106 556 1060 540 1075 l 561 1207 b 615 1256 565 1242 581 1256 m 985 1256 b 1026 1210 1017 1256 1032 1240 l 1011 1106 b 963 1060 1007 1072 994 1060 l 850 1060 b 808 1106 818 1060 803 1075 l 824 1208 b 874 1256 829 1243 843 1256 m 1189 75 b 1083 0 1176 26 1136 0 l 831 0 b 735 86 779 0 733 38 l 744 599 b 751 744 746 651 749 693 l 726 744 b 699 603 719 697 710 649 l 561 75 b 456 0 549 26 507 0 l 196 0 b 100 86 144 0 99 38 l 103 958 l 399 958 l 361 365 b 350 206 358 318 354 267 l 374 206 b 413 378 385 265 399 328 l 546 875 b 653 958 560 928 599 958 l 863 958 b 956 864 917 958 956 917 l 956 364 b 953 206 956 314 954 256 l 978 206 b 1007 374 983 257 996 326 l 1135 958 l 1431 958 "},"Ẁ":{"ha":1382,"x_min":0,"x_max":0,"o":"m 831 1000 l 486 1147 l 597 1328 l 924 1119 m 1189 75 b 1083 0 1176 26 1136 0 l 831 0 b 735 86 779 0 733 38 l 744 599 b 751 744 746 651 749 693 l 726 744 b 699 603 719 697 710 649 l 561 75 b 456 0 549 26 507 0 l 196 0 b 100 86 144 0 99 38 l 103 958 l 399 958 l 361 365 b 350 206 358 318 354 267 l 374 206 b 413 378 385 265 399 328 l 546 875 b 653 958 560 928 599 958 l 863 958 b 956 864 917 958 956 917 l 956 364 b 953 206 956 314 954 256 l 978 206 b 1007 374 983 257 996 326 l 1135 958 l 1431 958 "},"X":{"ha":933,"x_min":0,"x_max":0,"o":"m 879 0 l 583 0 l 479 394 l 256 0 l -64 0 l 239 489 l 94 958 l 385 958 l 483 586 l 693 958 l 1000 958 l 717 489 "},"Y":{"ha":901,"x_min":0,"x_max":0,"o":"m 543 0 l 240 0 l 283 307 l 64 958 l 364 958 l 438 651 b 447 511 450 596 449 554 l 468 511 b 510 649 472 550 488 603 l 672 958 l 993 958 l 583 290 "},"Ý":{"ha":901,"x_min":0,"x_max":0,"o":"m 404 1119 l 747 1336 l 839 1133 l 469 1000 m 543 0 l 240 0 l 283 307 l 64 958 l 364 958 l 438 651 b 447 511 450 596 449 554 l 468 511 b 510 649 472 550 488 603 l 672 958 l 993 958 l 583 290 "},"Ŷ":{"ha":901,"x_min":0,"x_max":0,"o":"m 239 1099 l 447 1288 l 643 1288 l 825 1093 l 749 999 l 544 1129 l 533 1129 l 306 999 m 543 0 l 240 0 l 283 307 l 64 958 l 364 958 l 438 651 b 447 511 450 596 449 554 l 468 511 b 510 649 472 550 488 603 l 672 958 l 993 958 l 583 290 "},"Ÿ":{"ha":901,"x_min":0,"x_max":0,"o":"m 349 1060 b 307 1106 317 1060 301 1075 l 322 1207 b 376 1256 326 1242 342 1256 l 483 1256 b 525 1210 517 1256 531 1240 l 510 1104 b 461 1060 506 1072 493 1060 m 611 1060 b 569 1106 579 1060 564 1075 l 585 1208 b 635 1256 590 1243 604 1256 l 746 1256 b 788 1210 778 1256 793 1240 l 772 1106 b 724 1060 768 1072 756 1060 m 543 0 l 240 0 l 283 307 l 64 958 l 364 958 l 438 651 b 447 511 450 596 449 554 l 468 511 b 510 649 472 550 488 603 l 672 958 l 993 958 l 583 290 "},"Ỳ":{"ha":901,"x_min":0,"x_max":0,"o":"m 247 1147 l 358 1328 l 685 1119 l 592 1000 m 543 0 l 240 0 l 283 307 l 64 958 l 364 958 l 438 651 b 447 511 450 596 449 554 l 468 511 b 510 649 472 550 488 603 l 672 958 l 993 958 l 583 290 "},"Z":{"ha":831,"x_min":0,"x_max":0,"o":"m 363 211 l 763 211 l 733 0 l -15 0 l 13 211 l 476 747 l 104 747 l 133 958 l 854 958 l 825 747 "},"Ź":{"ha":831,"x_min":0,"x_max":0,"o":"m 367 1119 l 710 1336 l 801 1133 l 432 1000 m 363 211 l 763 211 l 733 0 l -15 0 l 13 211 l 476 747 l 104 747 l 133 958 l 854 958 l 825 747 "},"Ž":{"ha":831,"x_min":0,"x_max":0,"o":"m 213 1224 l 293 1315 l 497 1203 l 508 1203 l 746 1310 l 801 1206 l 553 1024 l 439 1024 m 363 211 l 763 211 l 733 0 l -15 0 l 13 211 l 476 747 l 104 747 l 133 958 l 854 958 l 825 747 "},"Ż":{"ha":831,"x_min":0,"x_max":0,"o":"m 461 1044 b 383 1129 401 1044 375 1074 l 392 1194 b 478 1268 399 1243 431 1268 l 560 1268 b 639 1186 610 1268 644 1242 l 632 1118 b 549 1044 626 1069 597 1044 m 363 211 l 763 211 l 733 0 l -15 0 l 13 211 l 476 747 l 104 747 l 133 958 l 854 958 l 825 747 "},"a":{"ha":851,"x_min":0,"x_max":0,"o":"m 492 714 b 829 669 589 714 776 689 l 735 0 l 510 0 l 507 135 b 236 -17 446 43 354 -8 b 35 367 36 -31 -3 125 b 492 714 86 694 242 714 m 361 207 b 490 314 399 210 450 256 l 519 524 l 456 524 b 332 375 397 524 351 508 b 361 207 311 233 308 203 "},"á":{"ha":851,"x_min":0,"x_max":0,"o":"m 367 858 l 710 1075 l 801 872 l 432 739 m 492 714 b 829 669 589 714 776 689 l 735 0 l 510 0 l 507 135 b 236 -17 446 43 354 -8 b 35 367 36 -31 -3 125 b 492 714 86 694 242 714 m 361 207 b 490 314 399 210 450 256 l 519 524 l 456 524 b 332 375 397 524 351 508 b 361 207 311 233 308 203 "},"ă":{"ha":851,"x_min":0,"x_max":0,"o":"m 503 763 b 278 1007 331 763 238 883 l 414 1014 b 515 938 404 956 436 938 b 642 1017 599 938 636 967 l 772 996 b 503 763 776 872 676 763 m 492 714 b 829 669 589 714 776 689 l 735 0 l 510 0 l 507 135 b 236 -17 446 43 354 -8 b 35 367 36 -31 -3 125 b 492 714 86 694 242 714 m 361 207 b 490 314 399 210 450 256 l 519 524 l 456 524 b 332 375 397 524 351 508 b 361 207 311 233 308 203 "},"â":{"ha":851,"x_min":0,"x_max":0,"o":"m 201 838 l 410 1026 l 606 1026 l 788 832 l 711 738 l 507 868 l 496 868 l 268 738 m 492 714 b 829 669 589 714 776 689 l 735 0 l 510 0 l 507 135 b 236 -17 446 43 354 -8 b 35 367 36 -31 -3 125 b 492 714 86 694 242 714 m 361 207 b 490 314 399 210 450 256 l 519 524 l 456 524 b 332 375 397 524 351 508 b 361 207 311 233 308 203 "},"ä":{"ha":851,"x_min":0,"x_max":0,"o":"m 311 799 b 269 844 279 799 264 814 l 285 946 b 339 994 289 981 304 994 l 446 994 b 488 949 479 994 493 979 l 472 843 b 424 799 468 811 456 799 m 574 799 b 532 844 542 799 526 814 l 547 947 b 597 994 553 982 567 994 l 708 994 b 750 949 740 994 756 979 l 735 844 b 686 799 731 811 718 799 m 492 714 b 829 669 589 714 776 689 l 735 0 l 510 0 l 507 135 b 236 -17 446 43 354 -8 b 35 367 36 -31 -3 125 b 492 714 86 694 242 714 m 361 207 b 490 314 399 210 450 256 l 519 524 l 456 524 b 332 375 397 524 351 508 b 361 207 311 233 308 203 "},"à":{"ha":851,"x_min":0,"x_max":0,"o":"m 210 886 l 321 1067 l 647 858 l 554 739 m 492 714 b 829 669 589 714 776 689 l 735 0 l 510 0 l 507 135 b 236 -17 446 43 354 -8 b 35 367 36 -31 -3 125 b 492 714 86 694 242 714 m 361 207 b 490 314 399 210 450 256 l 519 524 l 456 524 b 332 375 397 524 351 508 b 361 207 311 233 308 203 "},"ā":{"ha":851,"x_min":0,"x_max":0,"o":"m 274 811 l 297 982 l 742 982 l 718 811 m 492 714 b 829 669 589 714 776 689 l 735 0 l 510 0 l 507 135 b 236 -17 446 43 354 -8 b 35 367 36 -31 -3 125 b 492 714 86 694 242 714 m 361 207 b 490 314 399 210 450 256 l 519 524 l 456 524 b 332 375 397 524 351 508 b 361 207 311 233 308 203 "},"ą":{"ha":851,"x_min":0,"x_max":0,"o":"m 735 0 b 656 -126 701 -36 668 -89 b 700 -160 646 -157 657 -168 l 721 -262 b 451 -129 483 -349 400 -231 b 594 0 472 -89 515 -46 l 510 0 l 507 135 b 236 -17 446 43 354 -8 b 35 367 36 -31 -3 125 b 492 714 86 694 242 714 b 829 669 589 714 776 689 m 361 207 b 490 314 399 210 450 256 l 519 524 l 456 524 b 332 375 397 524 351 508 b 361 207 311 233 308 203 "},"å":{"ha":851,"x_min":0,"x_max":0,"o":"m 506 735 b 336 914 400 735 322 815 b 521 1071 347 999 415 1071 b 692 892 622 1071 706 992 b 506 735 681 807 613 735 m 451 907 b 508 839 447 867 469 839 b 576 907 547 839 575 867 b 517 967 578 943 553 967 b 451 907 482 967 456 942 m 492 714 b 829 669 589 714 776 689 l 735 0 l 510 0 l 507 135 b 236 -17 446 43 354 -8 b 35 367 36 -31 -3 125 b 492 714 86 694 242 714 m 361 207 b 490 314 399 210 450 256 l 519 524 l 456 524 b 332 375 397 524 351 508 b 361 207 311 233 308 203 "},"ã":{"ha":851,"x_min":0,"x_max":0,"o":"m 232 788 b 368 1017 228 946 285 1017 b 590 956 438 1017 543 967 b 656 1015 639 944 650 971 l 774 1004 b 642 775 781 843 724 775 b 414 836 569 775 464 826 b 350 776 367 846 357 821 m 492 714 b 829 669 589 714 776 689 l 735 0 l 510 0 l 507 135 b 236 -17 446 43 354 -8 b 35 367 36 -31 -3 125 b 492 714 86 694 242 714 m 361 207 b 490 314 399 210 450 256 l 519 524 l 456 524 b 332 375 397 524 351 508 b 361 207 311 233 308 203 "},"æ":{"ha":1274,"x_min":0,"x_max":0,"o":"m 911 714 b 1251 456 1194 714 1276 624 b 960 283 1233 331 1143 297 l 782 269 b 886 207 783 215 813 207 b 1165 222 939 207 1082 213 l 1183 44 b 860 -17 1086 -1 969 -17 b 510 146 656 -17 551 40 b 236 -17 450 46 358 -8 b 36 367 38 -31 1 125 b 425 714 83 694 211 713 b 722 693 540 715 644 706 b 911 714 776 708 840 714 m 974 485 b 914 526 976 515 967 528 b 800 413 840 525 818 503 l 882 421 b 974 485 938 426 969 432 m 363 207 b 490 318 399 210 451 257 l 493 353 b 532 524 500 421 514 478 l 454 524 b 333 375 386 524 353 508 b 363 207 313 233 310 203 "},"b":{"ha":856,"x_min":0,"x_max":0,"o":"m 610 714 b 810 344 781 714 847 593 b 403 -17 782 163 707 -17 b 8 42 297 -17 88 1 l 139 972 l 432 972 l 410 801 b 364 613 403 739 390 679 b 610 714 429 674 511 714 m 514 365 b 479 488 529 464 524 488 b 361 446 433 488 399 469 l 322 182 b 389 179 346 179 371 178 b 514 365 461 183 492 219 "},"c":{"ha":744,"x_min":0,"x_max":0,"o":"m 421 714 b 739 660 528 714 651 697 l 700 482 l 456 482 b 333 351 372 482 347 449 b 419 214 317 236 336 214 b 653 224 475 214 565 214 l 674 39 b 368 -17 583 -4 468 -17 b 29 360 124 -17 -8 89 b 421 714 64 608 160 714 "},"ć":{"ha":744,"x_min":0,"x_max":0,"o":"m 390 739 l 325 858 l 668 1075 l 760 872 m 421 714 b 739 660 528 714 651 697 l 700 482 l 456 482 b 333 351 372 482 347 449 b 419 214 317 236 336 214 b 653 224 475 214 565 214 l 674 39 b 368 -17 583 -4 468 -17 b 29 360 124 -17 -8 89 b 421 714 64 608 160 714 "},"č":{"ha":744,"x_min":0,"x_max":0,"o":"m 511 763 l 397 763 l 171 963 l 251 1054 l 456 942 l 467 942 l 704 1049 l 760 944 m 421 714 b 739 660 528 714 651 697 l 700 482 l 456 482 b 333 351 372 482 347 449 b 419 214 317 236 336 214 b 653 224 475 214 565 214 l 674 39 b 368 -17 583 -4 468 -17 b 29 360 124 -17 -8 89 b 421 714 64 608 160 714 "},"ç":{"ha":744,"x_min":0,"x_max":0,"o":"m 421 714 b 739 660 528 714 651 697 l 700 482 l 456 482 b 333 351 372 482 347 449 b 419 214 317 236 336 214 b 653 224 475 214 565 214 l 674 39 b 368 -17 583 -4 468 -17 b 29 360 124 -17 -8 89 b 421 714 64 608 160 714 m 219 -62 b 458 -164 368 -43 478 -47 b 114 -356 432 -318 285 -379 l 143 -249 b 281 -185 204 -249 268 -242 b 194 -162 285 -167 278 -162 "},"ċ":{"ha":744,"x_min":0,"x_max":0,"o":"m 518 1007 b 597 925 568 1007 603 981 l 590 857 b 507 783 585 808 556 783 l 419 783 b 342 868 360 783 333 813 l 350 933 b 436 1007 357 982 389 1007 m 421 714 b 739 660 528 714 651 697 l 700 482 l 456 482 b 333 351 372 482 347 449 b 419 214 317 236 336 214 b 653 224 475 214 565 214 l 674 39 b 368 -17 583 -4 468 -17 b 29 360 124 -17 -8 89 b 421 714 64 608 160 714 "},"d":{"ha":857,"x_min":0,"x_max":0,"o":"m 739 0 l 508 0 l 503 111 b 243 -17 442 53 349 -17 b 33 367 71 -17 1 111 b 328 714 69 646 183 714 b 550 696 408 714 486 708 b 560 840 550 742 551 788 l 585 972 l 876 972 m 331 375 b 367 225 318 275 310 221 b 483 274 411 228 450 250 l 519 538 l 454 538 b 331 375 372 538 349 515 "},"ð":{"ha":838,"x_min":0,"x_max":0,"o":"m 754 785 b 796 393 804 690 817 560 b 363 -19 757 81 622 -19 b 25 308 132 -19 -6 81 b 357 629 56 539 168 629 b 511 594 403 629 461 624 b 243 789 514 747 458 804 l 275 969 b 599 928 410 978 517 964 l 721 1036 l 864 879 m 383 181 b 493 414 454 181 468 236 l 496 435 b 438 446 478 442 458 446 b 331 306 365 446 346 403 b 383 181 315 208 318 181 "},"ď":{"ha":857,"x_min":0,"x_max":0,"o":"m 876 972 l 739 0 l 508 0 l 503 111 b 243 -17 442 53 349 -17 b 33 367 71 -17 1 111 b 328 714 69 646 183 714 b 550 696 408 714 486 708 b 560 840 550 742 551 788 l 585 972 m 1065 971 b 1150 892 1132 971 1160 949 l 1139 825 b 1025 606 1126 751 1079 658 l 918 639 b 972 782 943 686 957 735 b 907 849 917 781 900 803 l 915 897 b 1021 971 925 954 957 971 m 331 375 b 367 225 318 275 310 221 b 483 274 411 228 450 250 l 519 538 l 454 538 b 331 375 372 538 349 515 "},"đ":{"ha":864,"x_min":0,"x_max":0,"o":"m 846 760 l 739 0 l 508 0 l 503 111 b 243 -17 442 53 349 -17 b 33 367 71 -17 1 111 b 328 714 69 646 183 714 b 550 696 408 714 486 708 b 551 760 550 717 550 738 l 419 760 l 436 876 l 567 876 l 585 972 l 876 972 l 863 876 l 951 876 l 935 760 m 331 375 b 367 225 318 275 310 221 b 483 274 411 228 450 250 l 519 538 l 454 538 b 331 375 372 538 349 515 "},"e":{"ha":819,"x_min":0,"x_max":0,"o":"m 453 714 b 797 456 740 714 822 624 b 501 283 779 331 689 297 l 328 271 b 426 207 331 217 358 207 b 711 222 483 207 626 213 l 731 44 b 401 -17 632 -1 511 -17 b 29 353 85 -17 6 115 b 453 714 60 650 206 714 m 519 485 b 456 526 522 515 513 528 b 346 413 388 525 365 504 l 425 421 b 519 485 482 426 514 432 "},"é":{"ha":819,"x_min":0,"x_max":0,"o":"m 351 858 l 694 1075 l 786 872 l 417 739 m 453 714 b 797 456 740 714 822 624 b 501 283 779 331 689 297 l 328 271 b 426 207 331 217 358 207 b 711 222 483 207 626 213 l 731 44 b 401 -17 632 -1 511 -17 b 29 353 85 -17 6 115 b 453 714 60 650 206 714 m 519 485 b 456 526 522 515 513 528 b 346 413 388 525 365 504 l 425 421 b 519 485 482 426 514 432 "},"ě":{"ha":819,"x_min":0,"x_max":0,"o":"m 197 963 l 278 1054 l 482 942 l 493 942 l 731 1049 l 786 944 l 538 763 l 424 763 m 453 714 b 797 456 740 714 822 624 b 501 283 779 331 689 297 l 328 271 b 426 207 331 217 358 207 b 711 222 483 207 626 213 l 731 44 b 401 -17 632 -1 511 -17 b 29 353 85 -17 6 115 b 453 714 60 650 206 714 m 519 485 b 456 526 522 515 513 528 b 346 413 388 525 365 504 l 425 421 b 519 485 482 426 514 432 "},"ê":{"ha":819,"x_min":0,"x_max":0,"o":"m 186 838 l 394 1026 l 590 1026 l 772 832 l 696 738 l 492 868 l 481 868 l 253 738 m 453 714 b 797 456 740 714 822 624 b 501 283 779 331 689 297 l 328 271 b 426 207 331 217 358 207 b 711 222 483 207 626 213 l 731 44 b 401 -17 632 -1 511 -17 b 29 353 85 -17 6 115 b 453 714 60 650 206 714 m 519 485 b 456 526 522 515 513 528 b 346 413 388 525 365 504 l 425 421 b 519 485 482 426 514 432 "},"ë":{"ha":819,"x_min":0,"x_max":0,"o":"m 296 799 b 254 844 264 799 249 814 l 269 946 b 324 994 274 981 289 994 l 431 994 b 472 949 464 994 478 979 l 457 843 b 408 799 453 811 440 799 m 558 799 b 517 844 526 799 511 814 l 532 947 b 582 994 538 982 551 994 l 693 994 b 735 949 725 994 740 979 l 719 844 b 671 799 715 811 703 799 m 453 714 b 797 456 740 714 822 624 b 501 283 779 331 689 297 l 328 271 b 426 207 331 217 358 207 b 711 222 483 207 626 213 l 731 44 b 401 -17 632 -1 511 -17 b 29 353 85 -17 6 115 b 453 714 60 650 206 714 m 519 485 b 456 526 522 515 513 528 b 346 413 388 525 365 504 l 425 421 b 519 485 482 426 514 432 "},"ė":{"ha":819,"x_min":0,"x_max":0,"o":"m 446 783 b 368 868 386 783 360 813 l 376 933 b 463 1007 383 982 415 1007 l 544 1007 b 624 925 594 1007 629 981 l 617 857 b 533 783 611 808 582 783 m 453 714 b 797 456 740 714 822 624 b 501 283 779 331 689 297 l 328 271 b 426 207 331 217 358 207 b 711 222 483 207 626 213 l 731 44 b 401 -17 632 -1 511 -17 b 29 353 85 -17 6 115 b 453 714 60 650 206 714 m 519 485 b 456 526 522 515 513 528 b 346 413 388 525 365 504 l 425 421 b 519 485 482 426 514 432 "},"è":{"ha":819,"x_min":0,"x_max":0,"o":"m 194 886 l 306 1067 l 632 858 l 539 739 m 453 714 b 797 456 740 714 822 624 b 501 283 779 331 689 297 l 328 271 b 426 207 331 217 358 207 b 711 222 483 207 626 213 l 731 44 b 401 -17 632 -1 511 -17 b 29 353 85 -17 6 115 b 453 714 60 650 206 714 m 519 485 b 456 526 522 515 513 528 b 346 413 388 525 365 504 l 425 421 b 519 485 482 426 514 432 "},"ē":{"ha":819,"x_min":0,"x_max":0,"o":"m 258 811 l 282 982 l 726 982 l 703 811 m 453 714 b 797 456 740 714 822 624 b 501 283 779 331 689 297 l 328 271 b 426 207 331 217 358 207 b 711 222 483 207 626 213 l 731 44 b 401 -17 632 -1 511 -17 b 29 353 85 -17 6 115 b 453 714 60 650 206 714 m 519 485 b 456 526 522 515 513 528 b 346 413 388 525 365 504 l 425 421 b 519 485 482 426 514 432 "},"ę":{"ha":819,"x_min":0,"x_max":0,"o":"m 453 714 b 797 456 740 714 822 624 b 501 283 779 331 689 297 l 328 271 b 426 207 331 217 358 207 b 711 222 483 207 626 213 l 731 44 b 651 -82 697 8 664 -44 b 696 -115 642 -112 653 -124 l 717 -218 b 447 -85 479 -304 396 -186 b 508 -11 460 -61 479 -37 b 401 -17 472 -15 436 -17 b 29 353 85 -17 6 115 b 453 714 60 650 206 714 m 519 485 b 456 526 522 515 513 528 b 346 413 388 525 365 504 l 425 421 b 519 485 482 426 514 432 "},"f":{"ha":588,"x_min":0,"x_max":0,"o":"m 547 811 b 463 733 492 811 471 792 l 457 694 l 619 694 l 596 519 l 431 519 l 347 -44 b 83 -265 328 -175 258 -265 b -132 -244 29 -265 -35 -258 l -87 -71 l -19 -71 b 69 7 39 -71 60 -51 l 143 519 l 31 519 l 51 688 l 169 694 l 182 785 b 446 1006 201 915 271 1006 b 703 985 508 1006 635 999 l 658 811 "},"g":{"ha":858,"x_min":0,"x_max":0,"o":"m 415 714 b 836 669 601 714 771 689 l 760 125 b 317 -283 713 -239 513 -283 b 7 -235 261 -283 103 -279 l 21 -78 l 196 -78 b 467 11 328 -78 422 -58 b 521 154 499 58 497 108 b 240 -3 458 56 360 3 b 36 367 39 -12 0 138 b 415 714 88 696 214 714 m 365 207 b 497 315 408 215 457 257 l 526 524 l 460 524 b 333 375 368 524 353 489 b 365 207 308 233 317 197 "},"ğ":{"ha":858,"x_min":0,"x_max":0,"o":"m 501 771 b 276 1015 329 771 236 892 l 413 1022 b 514 946 403 964 435 946 b 640 1025 597 946 635 975 l 771 1004 b 501 771 775 881 675 771 m 415 714 b 836 669 601 714 771 689 l 760 125 b 317 -283 713 -239 513 -283 b 7 -235 261 -283 103 -279 l 21 -78 l 196 -78 b 467 11 328 -78 422 -58 b 521 154 499 58 497 108 b 240 -3 458 56 360 3 b 36 367 39 -12 0 138 b 415 714 88 696 214 714 m 365 207 b 497 315 408 215 457 257 l 526 524 l 460 524 b 333 375 368 524 353 489 b 365 207 308 233 317 197 "},"ģ":{"ha":858,"x_min":0,"x_max":0,"o":"m 474 761 b 389 840 407 761 379 783 l 400 907 b 514 1126 413 981 460 1074 l 621 1093 b 567 950 596 1046 582 997 b 632 883 622 951 639 929 l 624 835 b 518 761 614 778 582 761 m 415 714 b 836 669 601 714 771 689 l 760 125 b 317 -283 713 -239 513 -283 b 7 -235 261 -283 103 -279 l 21 -78 l 196 -78 b 467 11 328 -78 422 -58 b 521 154 499 58 497 108 b 240 -3 458 56 360 3 b 36 367 39 -12 0 138 b 415 714 88 696 214 714 m 365 207 b 497 315 408 215 457 257 l 526 524 l 460 524 b 333 375 368 524 353 489 b 365 207 308 233 317 197 "},"ġ":{"ha":858,"x_min":0,"x_max":0,"o":"m 460 792 b 382 876 400 792 374 821 l 390 942 b 476 1015 397 990 429 1015 l 558 1015 b 638 933 608 1015 643 989 l 631 865 b 547 792 625 817 596 792 m 415 714 b 836 669 601 714 771 689 l 760 125 b 317 -283 713 -239 513 -283 b 7 -235 261 -283 103 -279 l 21 -78 l 196 -78 b 467 11 328 -78 422 -58 b 521 154 499 58 497 108 b 240 -3 458 56 360 3 b 36 367 39 -12 0 138 b 415 714 88 696 214 714 m 365 207 b 497 315 408 215 457 257 l 526 524 l 460 524 b 333 375 368 524 353 489 b 365 207 308 233 317 197 "},"h":{"ha":860,"x_min":0,"x_max":0,"o":"m 626 714 b 818 514 768 714 836 642 l 746 0 l 454 0 l 515 432 b 489 468 521 463 515 468 b 353 411 449 468 413 457 l 296 0 l 4 0 l 140 972 l 432 972 l 403 760 b 363 594 394 701 379 643 b 626 714 457 676 549 714 "},"ħ":{"ha":854,"x_min":0,"x_max":0,"o":"m 621 714 b 813 514 763 714 831 642 l 740 0 l 449 0 l 510 432 b 483 468 515 463 510 468 b 347 411 443 468 407 457 l 290 0 l -1 0 l 106 760 l 36 760 l 53 876 l 121 876 l 135 972 l 426 972 l 414 876 l 568 876 l 551 760 l 397 760 b 357 594 389 701 374 643 b 621 714 451 676 543 714 "},"i":{"ha":422,"x_min":0,"x_max":0,"o":"m 347 1013 b 431 921 410 1013 438 983 l 421 850 b 325 769 414 794 385 769 l 211 769 b 129 861 149 769 122 799 l 139 932 b 235 1013 144 988 175 1013 m 10 0 l 106 694 l 396 694 l 300 0 "},"ı":{"ha":425,"x_min":0,"x_max":0,"o":"m 10 0 l 107 694 l 400 694 l 303 0 "},"í":{"ha":425,"x_min":0,"x_max":0,"o":"m 193 739 l 128 858 l 471 1075 l 563 872 m 10 0 l 107 694 l 400 694 l 303 0 "},"î":{"ha":425,"x_min":0,"x_max":0,"o":"m 472 738 l 268 868 l 257 868 l 29 738 l -37 838 l 171 1026 l 367 1026 l 549 832 m 10 0 l 107 694 l 400 694 l 303 0 "},"ï":{"ha":425,"x_min":0,"x_max":0,"o":"m 207 994 b 249 949 240 994 254 979 l 233 843 b 185 799 229 811 217 799 l 72 799 b 31 844 40 799 25 814 l 46 946 b 100 994 50 981 65 994 m 469 994 b 511 949 501 994 517 979 l 496 844 b 447 799 492 811 479 799 l 335 799 b 293 844 303 799 288 814 l 308 947 b 358 994 314 982 328 994 m 10 0 l 107 694 l 400 694 l 303 0 "},"ì":{"ha":425,"x_min":0,"x_max":0,"o":"m 315 739 l -29 886 l 82 1067 l 408 858 m 10 0 l 107 694 l 400 694 l 303 0 "},"ĳ":{"ha":847,"x_min":0,"x_max":0,"o":"m 347 1013 b 431 921 410 1013 438 983 l 421 850 b 325 769 414 794 385 769 l 211 769 b 129 861 149 769 122 799 l 139 932 b 235 1013 144 988 175 1013 m 769 1013 b 851 921 833 1013 860 983 l 842 850 b 743 769 835 794 803 769 l 633 769 b 550 861 569 769 543 799 l 560 932 b 660 1013 567 988 599 1013 m 10 0 l 106 694 l 396 694 l 300 0 m 733 75 b 481 -267 715 -69 622 -210 l 321 -132 b 444 86 400 -58 433 7 l 532 694 l 824 694 "},"ī":{"ha":425,"x_min":0,"x_max":0,"o":"m 35 811 l 58 982 l 503 982 l 479 811 m 10 0 l 107 694 l 400 694 l 303 0 "},"į":{"ha":425,"x_min":0,"x_max":0,"o":"m 321 1007 b 400 925 371 1007 406 981 l 393 857 b 310 783 388 808 358 783 l 222 783 b 144 868 163 783 136 813 l 153 933 b 239 1007 160 982 192 1007 m 400 694 l 303 0 l 275 0 b 196 -126 242 -36 208 -89 b 240 -160 186 -157 197 -168 l 261 -262 b -8 -129 24 -349 -60 -231 b 135 0 13 -89 56 -46 l 10 0 l 107 694 "},"j":{"ha":425,"x_min":0,"x_max":0,"o":"m 347 1013 b 429 921 411 1013 438 983 l 419 850 b 321 769 413 794 381 769 l 211 769 b 128 861 147 769 121 799 l 138 932 b 238 1013 144 988 176 1013 m 311 75 b 58 -267 293 -69 200 -210 l -101 -132 b 22 86 -22 -58 11 7 l 110 694 l 401 694 "},"k":{"ha":846,"x_min":0,"x_max":0,"o":"m 601 358 b 679 263 639 332 664 297 l 806 0 l 507 0 l 389 257 b 326 236 368 249 347 242 b 324 193 326 221 325 206 l 296 0 l 4 0 l 140 972 l 432 972 l 379 594 b 319 425 369 536 350 482 b 539 694 426 483 515 586 l 839 694 b 601 358 803 535 711 431 "},"ķ":{"ha":846,"x_min":0,"x_max":0,"o":"m 601 358 b 679 263 639 332 664 297 l 806 0 l 507 0 l 389 257 b 326 236 368 249 347 242 b 324 193 326 221 325 206 l 296 0 l 4 0 l 140 972 l 432 972 l 379 594 b 319 425 369 536 350 482 b 539 694 426 483 515 586 l 839 694 b 601 358 803 535 711 431 m 411 -53 b 496 -132 478 -53 506 -75 l 485 -199 b 371 -418 472 -272 425 -365 l 264 -385 b 318 -242 289 -337 303 -289 b 253 -175 263 -243 246 -221 l 261 -126 b 367 -53 271 -69 303 -53 "},"l":{"ha":500,"x_min":0,"x_max":0,"o":"m 328 247 b 382 203 321 211 332 203 l 438 203 l 454 14 b 256 -19 410 -11 301 -19 b 29 181 100 -19 14 58 l 142 972 l 432 972 "},"ĺ":{"ha":500,"x_min":0,"x_max":0,"o":"m 243 1007 l 178 1126 l 521 1343 l 613 1140 m 328 247 b 382 203 321 211 332 203 l 438 203 l 454 14 b 256 -19 410 -11 301 -19 b 29 181 100 -19 14 58 l 142 972 l 432 972 "},"ľ":{"ha":500,"x_min":0,"x_max":0,"o":"m 328 247 b 382 203 321 211 332 203 l 438 203 l 454 14 b 256 -19 410 -11 301 -19 b 29 181 100 -19 14 58 l 142 972 l 432 972 m 615 971 b 700 892 682 971 710 949 l 689 825 b 575 606 676 751 629 658 l 468 639 b 522 782 493 686 507 735 b 457 849 467 781 450 803 l 465 897 b 571 971 475 954 507 971 "},"ļ":{"ha":500,"x_min":0,"x_max":0,"o":"m 328 247 b 382 203 321 211 332 203 l 438 203 l 454 14 b 256 -19 410 -11 301 -19 b 29 181 100 -19 14 58 l 142 972 l 432 972 m 240 -60 b 325 -139 307 -60 335 -82 l 314 -206 b 200 -425 301 -279 254 -372 l 93 -392 b 147 -249 118 -344 132 -296 b 82 -182 92 -250 75 -228 l 90 -133 b 196 -60 100 -76 132 -60 "},"ŀ":{"ha":700,"x_min":0,"x_max":0,"o":"m 328 247 b 382 203 321 211 332 203 l 438 203 l 454 14 b 256 -19 410 -11 301 -19 b 29 181 100 -19 14 58 l 142 972 l 432 972 m 532 404 b 453 486 482 404 447 431 l 460 554 b 543 628 465 603 494 628 l 631 628 b 708 543 690 628 717 599 l 700 478 b 614 404 693 429 661 404 "},"ł":{"ha":522,"x_min":0,"x_max":0,"o":"m 344 247 b 399 203 338 211 349 203 l 454 203 l 471 14 b 272 -19 426 -11 318 -19 b 46 181 117 -19 31 58 l 78 403 l 0 374 l 19 518 l 97 547 l 158 972 l 449 972 l 404 660 l 549 713 l 528 568 l 383 515 "},"m":{"ha":1228,"x_min":0,"x_max":0,"o":"m 1001 714 b 1188 514 1140 714 1206 639 l 1115 0 l 826 0 l 886 432 b 860 468 890 463 876 468 b 760 426 838 468 806 458 l 700 0 l 421 0 l 481 432 b 454 468 486 463 474 468 b 353 429 431 468 400 460 l 294 0 l 4 0 l 101 694 l 328 694 l 336 596 b 589 714 421 678 494 714 b 765 614 683 714 744 679 b 1001 714 843 683 914 714 "},"n":{"ha":860,"x_min":0,"x_max":0,"o":"m 639 714 b 819 514 753 714 839 647 l 747 0 l 454 0 l 514 419 b 476 468 519 457 513 472 b 354 413 446 465 408 454 l 296 0 l 4 0 l 100 694 l 328 694 l 335 572 b 639 714 422 660 536 714 "},"ń":{"ha":860,"x_min":0,"x_max":0,"o":"m 356 858 l 699 1075 l 790 872 l 421 739 m 639 714 b 819 514 753 714 839 647 l 747 0 l 454 0 l 514 419 b 476 468 519 457 513 472 b 354 413 446 465 408 454 l 296 0 l 4 0 l 100 694 l 328 694 l 335 572 b 639 714 422 660 536 714 "},"ň":{"ha":860,"x_min":0,"x_max":0,"o":"m 201 963 l 282 1054 l 486 942 l 497 942 l 735 1049 l 790 944 l 542 763 l 428 763 m 639 714 b 819 514 753 714 839 647 l 747 0 l 454 0 l 514 419 b 476 468 519 457 513 472 b 354 413 446 465 408 454 l 296 0 l 4 0 l 100 694 l 328 694 l 335 572 b 639 714 422 660 536 714 "},"ņ":{"ha":860,"x_min":0,"x_max":0,"o":"m 639 714 b 819 514 753 714 839 647 l 747 0 l 454 0 l 514 419 b 476 468 519 457 513 472 b 354 413 446 465 408 454 l 296 0 l 4 0 l 100 694 l 328 694 l 335 572 b 639 714 422 660 536 714 m 382 -53 b 467 -132 449 -53 476 -75 l 456 -199 b 342 -418 443 -272 396 -365 l 235 -385 b 289 -242 260 -337 274 -289 b 224 -175 233 -243 217 -221 l 232 -126 b 338 -53 242 -69 274 -53 "},"ŋ":{"ha":860,"x_min":0,"x_max":0,"o":"m 626 714 b 819 514 768 714 836 642 l 740 -39 b 507 -271 719 -189 638 -271 b 290 -232 442 -271 333 -257 l 340 -46 l 382 -46 b 453 -3 417 -46 449 -29 l 515 432 b 478 468 521 463 508 471 b 354 413 450 465 411 456 l 296 0 l 4 0 l 100 694 l 328 694 l 336 575 b 626 714 440 672 543 714 "},"ñ":{"ha":860,"x_min":0,"x_max":0,"o":"m 221 788 b 357 1017 217 946 274 1017 b 579 956 426 1017 532 967 b 644 1015 628 944 639 971 l 763 1004 b 631 775 769 843 713 775 b 403 836 558 775 453 826 b 339 776 356 846 346 821 m 639 714 b 819 514 753 714 839 647 l 747 0 l 454 0 l 514 419 b 476 468 519 457 513 472 b 354 413 446 465 408 454 l 296 0 l 4 0 l 100 694 l 328 694 l 335 572 b 639 714 422 660 536 714 "},"o":{"ha":854,"x_min":0,"x_max":0,"o":"m 454 714 b 808 335 732 714 847 611 b 386 -17 771 74 663 -17 b 29 357 111 -17 -10 85 b 454 714 67 622 175 714 m 449 517 b 333 335 374 517 356 486 b 397 181 315 207 324 181 b 507 357 468 181 485 211 b 449 517 526 489 517 517 "},"ó":{"ha":854,"x_min":0,"x_max":0,"o":"m 419 739 l 354 858 l 697 1075 l 789 872 m 454 714 b 808 335 732 714 847 611 b 386 -17 771 74 663 -17 b 29 357 111 -17 -10 85 b 454 714 67 622 175 714 m 449 517 b 333 335 374 517 356 486 b 397 181 315 207 324 181 b 507 357 468 181 485 211 b 449 517 526 489 517 517 "},"ô":{"ha":854,"x_min":0,"x_max":0,"o":"m 699 738 l 494 868 l 483 868 l 256 738 l 189 838 l 397 1026 l 593 1026 l 775 832 m 454 714 b 808 335 732 714 847 611 b 386 -17 771 74 663 -17 b 29 357 111 -17 -10 85 b 454 714 67 622 175 714 m 449 517 b 333 335 374 517 356 486 b 397 181 315 207 324 181 b 507 357 468 181 485 211 b 449 517 526 489 517 517 "},"ö":{"ha":854,"x_min":0,"x_max":0,"o":"m 433 994 b 475 949 467 994 481 979 l 460 843 b 411 799 456 811 443 799 l 299 799 b 257 844 267 799 251 814 l 272 946 b 326 994 276 981 292 994 m 696 994 b 738 949 728 994 743 979 l 722 844 b 674 799 718 811 706 799 l 561 799 b 519 844 529 799 514 814 l 535 947 b 585 994 540 982 554 994 m 454 714 b 808 335 732 714 847 611 b 386 -17 771 74 663 -17 b 29 357 111 -17 -10 85 b 454 714 67 622 175 714 m 449 517 b 333 335 374 517 356 486 b 397 181 315 207 324 181 b 507 357 468 181 485 211 b 449 517 526 489 517 517 "},"ò":{"ha":854,"x_min":0,"x_max":0,"o":"m 542 739 l 197 886 l 308 1067 l 635 858 m 454 714 b 808 335 732 714 847 611 b 386 -17 771 74 663 -17 b 29 357 111 -17 -10 85 b 454 714 67 622 175 714 m 449 517 b 333 335 374 517 356 486 b 397 181 315 207 324 181 b 507 357 468 181 485 211 b 449 517 526 489 517 517 "},"ő":{"ha":854,"x_min":0,"x_max":0,"o":"m 325 743 l 207 815 l 411 1083 l 579 967 m 622 743 l 506 814 l 710 1083 l 878 967 m 454 714 b 808 335 732 714 847 611 b 386 -17 771 74 663 -17 b 29 357 111 -17 -10 85 b 454 714 67 622 175 714 m 449 517 b 333 335 374 517 356 486 b 397 181 315 207 324 181 b 507 357 468 181 485 211 b 449 517 526 489 517 517 "},"ō":{"ha":854,"x_min":0,"x_max":0,"o":"m 261 811 l 285 982 l 729 982 l 706 811 m 454 714 b 808 335 732 714 847 611 b 386 -17 771 74 663 -17 b 29 357 111 -17 -10 85 b 454 714 67 622 175 714 m 449 517 b 333 335 374 517 356 486 b 397 181 315 207 324 181 b 507 357 468 181 485 211 b 449 517 526 489 517 517 "},"ø":{"ha":856,"x_min":0,"x_max":0,"o":"m 733 643 b 808 335 806 585 829 486 b 386 -17 771 74 663 -17 b 331 -15 367 -17 349 -17 l 249 -147 l 68 -49 l 124 40 b 29 357 39 97 7 197 b 454 714 67 622 175 714 b 532 711 482 714 508 713 l 618 849 l 799 749 m 507 357 b 449 517 526 489 517 517 b 333 335 374 517 356 486 b 397 181 315 207 324 181 b 507 357 468 181 485 211 "},"õ":{"ha":854,"x_min":0,"x_max":0,"o":"m 356 1017 b 578 956 425 1017 531 967 b 643 1015 626 944 638 971 l 761 1004 b 629 775 768 843 711 775 b 401 836 557 775 451 826 b 338 776 354 846 344 821 l 219 788 b 356 1017 215 946 272 1017 m 454 714 b 808 335 732 714 847 611 b 386 -17 771 74 663 -17 b 29 357 111 -17 -10 85 b 454 714 67 622 175 714 m 449 517 b 333 335 374 517 356 486 b 397 181 315 207 324 181 b 507 357 468 181 485 211 b 449 517 526 489 517 517 "},"œ":{"ha":1263,"x_min":0,"x_max":0,"o":"m 901 714 b 1242 456 1185 714 1267 624 b 951 283 1224 331 1133 297 l 782 271 b 876 207 785 217 810 207 b 1156 222 931 207 1072 213 l 1174 44 b 850 -17 1076 -1 960 -17 b 615 46 757 -17 676 4 b 375 -17 544 1 460 -17 b 29 357 107 -17 -10 85 b 443 714 67 622 172 714 b 661 658 521 714 599 697 b 901 714 736 700 822 714 m 964 485 b 904 526 967 515 957 528 b 801 414 840 525 819 504 l 872 421 b 964 485 928 426 960 432 m 388 181 b 485 357 450 181 464 211 b 436 517 504 489 497 517 b 332 335 368 517 353 486 b 388 181 314 207 321 181 "},"p":{"ha":854,"x_min":0,"x_max":0,"o":"m 611 711 b 806 328 769 711 838 579 b 482 -19 768 40 647 -19 b 290 -1 433 -19 358 -14 b 281 -131 290 -42 288 -85 l 261 -250 l -31 -250 l 100 694 l 332 694 l 332 572 b 611 711 393 636 493 711 m 507 319 b 476 488 526 454 519 488 b 353 422 440 488 389 458 l 321 157 l 385 157 b 507 319 476 157 488 186 "},"þ":{"ha":856,"x_min":0,"x_max":0,"o":"m 596 711 b 807 328 782 711 836 582 b 513 -19 778 75 657 -19 b 293 -1 433 -19 357 -14 b 281 -118 290 -40 288 -81 l 261 -250 l -31 -250 l 140 972 l 432 972 l 413 828 b 375 629 404 763 390 689 l 379 619 b 596 711 435 672 510 711 m 508 319 b 474 488 522 433 531 488 b 349 386 417 488 379 442 l 319 157 l 386 157 b 508 319 468 157 492 179 "},"q":{"ha":856,"x_min":0,"x_max":0,"o":"m 433 714 b 832 656 546 714 753 696 l 703 -250 l 411 -250 l 431 -104 b 465 72 438 -47 449 15 b 253 -17 396 17 315 -17 b 31 353 68 -17 -7 93 b 433 714 61 563 121 714 m 328 360 b 369 225 314 265 313 225 b 482 274 413 225 449 251 l 518 515 b 450 518 490 518 464 518 b 328 360 379 513 347 489 "},"r":{"ha":628,"x_min":0,"x_max":0,"o":"m 606 447 l 540 447 b 356 429 493 447 443 443 l 297 0 l 4 0 l 101 694 l 329 694 l 339 600 b 615 714 435 679 531 714 l 665 714 "},"ŕ":{"ha":628,"x_min":0,"x_max":0,"o":"m 269 858 l 613 1075 l 704 872 l 335 739 m 339 600 b 615 714 435 679 531 714 l 665 714 l 606 447 l 540 447 b 356 429 493 447 443 443 l 297 0 l 4 0 l 101 694 l 329 694 "},"ř":{"ha":628,"x_min":0,"x_max":0,"o":"m 115 963 l 196 1054 l 400 942 l 411 942 l 649 1049 l 704 944 l 456 763 l 342 763 m 339 600 b 615 714 435 679 531 714 l 665 714 l 606 447 l 540 447 b 356 429 493 447 443 443 l 297 0 l 4 0 l 101 694 l 329 694 "},"ŗ":{"ha":628,"x_min":0,"x_max":0,"o":"m 606 447 l 540 447 b 356 429 493 447 443 443 l 297 0 l 4 0 l 101 694 l 329 694 l 339 600 b 615 714 435 679 531 714 l 665 714 m 158 -53 b 243 -132 225 -53 253 -75 l 232 -199 b 118 -418 219 -272 172 -365 l 11 -385 b 65 -242 36 -337 50 -289 b 0 -175 10 -243 -7 -221 l 8 -126 b 114 -53 18 -69 50 -53 "},"s":{"ha":761,"x_min":0,"x_max":0,"o":"m 386 714 b 736 682 496 714 654 700 l 713 514 l 447 514 b 326 500 350 514 329 514 b 394 463 324 486 338 478 l 546 422 b 704 203 660 392 718 319 b 351 -15 682 19 558 -15 b -4 15 265 -15 143 -11 l 19 183 l 253 183 b 425 206 396 183 422 188 b 350 243 426 219 414 225 l 204 285 b 50 522 72 322 33 410 b 386 714 68 643 142 714 "},"ś":{"ha":761,"x_min":0,"x_max":0,"o":"m 374 739 l 308 858 l 651 1075 l 743 872 m 386 714 b 736 682 496 714 654 700 l 713 514 l 447 514 b 326 500 350 514 329 514 b 394 463 324 486 338 478 l 546 422 b 704 203 660 392 718 319 b 351 -15 682 19 558 -15 b -4 15 265 -15 143 -11 l 19 183 l 253 183 b 425 206 396 183 422 188 b 350 243 426 219 414 225 l 204 285 b 50 522 72 322 33 410 b 386 714 68 643 142 714 "},"š":{"ha":761,"x_min":0,"x_max":0,"o":"m 494 763 l 381 763 l 154 963 l 235 1054 l 439 942 l 450 942 l 688 1049 l 743 944 m 386 714 b 736 682 496 714 654 700 l 713 514 l 447 514 b 326 500 350 514 329 514 b 394 463 324 486 338 478 l 546 422 b 704 203 660 392 718 319 b 351 -15 682 19 558 -15 b -4 15 265 -15 143 -11 l 19 183 l 253 183 b 425 206 396 183 422 188 b 350 243 426 219 414 225 l 204 285 b 50 522 72 322 33 410 b 386 714 68 643 142 714 "},"ş":{"ha":761,"x_min":0,"x_max":0,"o":"m 386 714 b 736 682 496 714 654 700 l 713 514 l 447 514 b 326 500 350 514 329 514 b 394 463 324 486 338 478 l 546 422 b 704 203 660 392 718 319 b 351 -15 682 19 558 -15 b -4 15 265 -15 143 -11 l 19 183 l 253 183 b 425 206 396 183 422 188 b 350 243 426 219 414 225 l 204 285 b 50 522 72 322 33 410 b 386 714 68 643 142 714 m 203 -68 b 442 -169 351 -49 461 -53 b 97 -361 415 -324 268 -385 l 126 -254 b 264 -190 188 -254 251 -247 b 178 -168 268 -172 261 -168 "},"ș":{"ha":761,"x_min":0,"x_max":0,"o":"m 386 714 b 736 682 496 714 654 700 l 713 514 l 447 514 b 326 500 350 514 329 514 b 394 463 324 486 338 478 l 546 422 b 704 203 660 392 718 319 b 351 -15 682 19 558 -15 b -4 15 265 -15 143 -11 l 19 183 l 253 183 b 425 206 396 183 422 188 b 350 243 426 219 414 225 l 204 285 b 50 522 72 322 33 410 b 386 714 68 643 142 714 m 340 -60 b 425 -139 407 -60 435 -82 l 414 -206 b 300 -425 401 -279 354 -372 l 193 -392 b 247 -249 218 -344 232 -296 b 182 -182 192 -250 175 -228 l 190 -133 b 296 -60 200 -76 232 -60 "},"ß":{"ha":1015,"x_min":0,"x_max":0,"o":"m 889 379 b 975 171 964 303 988 240 b 669 -15 954 46 889 -15 b 429 0 603 -15 532 -10 l 454 178 l 607 178 b 688 218 653 178 688 182 b 603 325 688 238 676 256 l 567 353 b 489 525 510 406 479 447 b 586 682 496 581 521 608 b 654 789 638 739 650 757 b 590 836 660 831 643 836 b 463 746 499 836 472 818 l 353 -44 b 88 -265 333 -171 269 -265 b -124 -244 38 -265 -28 -258 l -81 -71 l -12 -71 b 72 7 43 -71 63 -51 l 144 519 l 29 519 l 50 688 l 168 694 l 182 792 b 574 1031 207 974 310 1031 b 919 786 881 1031 949 956 b 844 631 913 747 900 693 b 765 525 804 585 769 558 b 825 439 763 499 783 479 "},"t":{"ha":610,"x_min":0,"x_max":0,"o":"m 401 247 b 444 203 396 211 401 203 l 526 203 l 542 14 b 310 -19 478 -11 368 -19 b 101 181 168 -19 83 58 l 151 519 l 32 519 l 53 688 l 178 694 l 204 876 l 492 876 l 465 694 l 632 694 l 608 519 l 440 519 "},"ŧ":{"ha":610,"x_min":0,"x_max":0,"o":"m 431 450 l 538 450 l 519 319 l 411 319 l 401 247 b 444 203 396 211 401 203 l 526 203 l 542 14 b 310 -19 478 -11 368 -19 b 101 181 168 -19 83 58 l 122 319 l 43 319 l 61 450 l 142 450 l 151 519 l 32 519 l 53 688 l 178 694 l 204 876 l 492 876 l 465 694 l 632 694 l 608 519 l 440 519 "},"ť":{"ha":610,"x_min":0,"x_max":0,"o":"m 663 1126 b 747 1047 729 1126 757 1104 l 736 981 b 622 761 724 907 676 814 l 515 794 b 569 938 540 842 554 890 b 504 1004 514 936 497 958 l 513 1053 b 618 1126 522 1110 554 1126 m 632 694 l 608 519 l 440 519 l 401 247 b 444 203 396 211 401 203 l 526 203 l 542 14 b 310 -19 478 -11 368 -19 b 101 181 168 -19 83 58 l 151 519 l 32 519 l 53 688 l 178 694 l 204 876 l 492 876 l 465 694 "},"ţ":{"ha":610,"x_min":0,"x_max":0,"o":"m 401 247 b 444 203 396 211 401 203 l 526 203 l 542 14 b 310 -19 478 -11 368 -19 b 101 181 168 -19 83 58 l 151 519 l 32 519 l 53 688 l 178 694 l 204 876 l 492 876 l 465 694 l 632 694 l 608 519 l 440 519 m 179 -72 b 418 -174 328 -53 438 -57 b 74 -365 392 -328 244 -389 l 103 -258 b 240 -194 164 -258 228 -251 b 154 -172 244 -176 238 -172 "},"ț":{"ha":610,"x_min":0,"x_max":0,"o":"m 401 247 b 444 203 396 211 401 203 l 526 203 l 542 14 b 310 -19 478 -11 368 -19 b 101 181 168 -19 83 58 l 151 519 l 32 519 l 53 688 l 178 694 l 204 876 l 492 876 l 465 694 l 632 694 l 608 519 l 440 519 m 294 -60 b 379 -139 361 -60 389 -82 l 368 -206 b 254 -425 356 -279 308 -372 l 147 -392 b 201 -249 172 -344 186 -296 b 136 -182 146 -250 129 -228 l 144 -133 b 250 -60 154 -76 186 -60 "},"u":{"ha":851,"x_min":0,"x_max":0,"o":"m 735 0 l 507 0 l 501 118 b 218 -19 403 22 313 -19 b 25 181 74 -19 7 53 l 96 694 l 389 694 l 326 263 b 358 225 322 232 338 225 b 482 276 397 225 429 238 l 542 694 l 831 694 "},"ú":{"ha":851,"x_min":0,"x_max":0,"o":"m 350 874 l 693 1090 l 785 888 l 415 754 m 735 0 l 507 0 l 501 118 b 218 -19 403 22 313 -19 b 25 181 74 -19 7 53 l 96 694 l 389 694 l 326 263 b 358 225 322 232 338 225 b 482 276 397 225 429 238 l 542 694 l 831 694 "},"û":{"ha":851,"x_min":0,"x_max":0,"o":"m 185 853 l 393 1042 l 589 1042 l 771 847 l 694 753 l 490 883 l 479 883 l 251 753 m 735 0 l 507 0 l 501 118 b 218 -19 403 22 313 -19 b 25 181 74 -19 7 53 l 96 694 l 389 694 l 326 263 b 358 225 322 232 338 225 b 482 276 397 225 429 238 l 542 694 l 831 694 "},"ü":{"ha":851,"x_min":0,"x_max":0,"o":"m 294 814 b 253 860 263 814 247 829 l 268 961 b 322 1010 272 996 288 1010 l 429 1010 b 471 964 463 1010 476 994 l 456 858 b 407 814 451 826 439 814 m 557 814 b 515 860 525 814 510 829 l 531 963 b 581 1010 536 997 550 1010 l 692 1010 b 733 964 724 1010 739 994 l 718 860 b 669 814 714 826 701 814 m 735 0 l 507 0 l 501 118 b 218 -19 403 22 313 -19 b 25 181 74 -19 7 53 l 96 694 l 389 694 l 326 263 b 358 225 322 232 338 225 b 482 276 397 225 429 238 l 542 694 l 831 694 "},"ù":{"ha":851,"x_min":0,"x_max":0,"o":"m 193 901 l 304 1082 l 631 874 l 538 754 m 735 0 l 507 0 l 501 118 b 218 -19 403 22 313 -19 b 25 181 74 -19 7 53 l 96 694 l 389 694 l 326 263 b 358 225 322 232 338 225 b 482 276 397 225 429 238 l 542 694 l 831 694 "},"ű":{"ha":851,"x_min":0,"x_max":0,"o":"m 203 831 l 407 1099 l 575 982 l 321 758 m 706 1099 l 874 982 l 618 758 l 501 829 m 831 694 l 735 0 l 507 0 l 501 118 b 218 -19 403 22 313 -19 b 25 181 74 -19 7 53 l 96 694 l 389 694 l 326 263 b 358 225 322 232 338 225 b 482 276 397 225 429 238 l 542 694 "},"ū":{"ha":851,"x_min":0,"x_max":0,"o":"m 257 826 l 281 997 l 725 997 l 701 826 m 735 0 l 507 0 l 501 118 b 218 -19 403 22 313 -19 b 25 181 74 -19 7 53 l 96 694 l 389 694 l 326 263 b 358 225 322 232 338 225 b 482 276 397 225 429 238 l 542 694 l 831 694 "},"ų":{"ha":851,"x_min":0,"x_max":0,"o":"m 735 0 b 656 -126 701 -36 668 -89 b 700 -160 646 -157 657 -168 l 721 -262 b 451 -129 483 -349 400 -231 b 594 0 472 -89 515 -46 l 507 0 l 501 118 b 218 -19 403 22 313 -19 b 25 181 74 -19 7 53 l 96 694 l 389 694 l 326 263 b 358 225 322 232 338 225 b 482 276 397 225 429 238 l 542 694 l 831 694 "},"ů":{"ha":851,"x_min":0,"x_max":0,"o":"m 489 750 b 319 929 383 750 306 831 b 504 1086 331 1014 399 1086 b 675 907 606 1086 689 1007 b 489 750 664 822 596 750 m 435 922 b 492 854 431 882 453 854 b 560 922 531 854 558 882 b 500 982 561 958 536 982 b 435 922 465 982 439 957 m 735 0 l 507 0 l 501 118 b 218 -19 403 22 313 -19 b 25 181 74 -19 7 53 l 96 694 l 389 694 l 326 263 b 358 225 322 232 338 225 b 482 276 397 225 429 238 l 542 694 l 831 694 "},"v":{"ha":843,"x_min":0,"x_max":0,"o":"m 851 694 b 783 397 838 592 810 478 b 676 144 744 276 699 185 b 406 0 606 19 536 0 l 200 0 b 118 74 156 0 122 32 l 44 694 l 364 694 l 360 175 l 372 175 b 449 264 411 175 419 192 b 499 442 469 315 483 368 b 533 694 518 536 528 636 "},"w":{"ha":1285,"x_min":0,"x_max":0,"o":"m 350 181 b 408 272 378 181 393 210 b 433 399 417 306 425 347 b 467 622 444 460 453 533 b 553 694 471 653 494 694 l 792 694 b 871 621 836 694 869 663 l 875 181 l 885 181 b 938 289 919 181 924 225 b 965 447 950 346 957 396 b 992 694 976 519 985 594 l 1281 694 b 1233 408 1269 597 1254 499 b 1165 178 1214 322 1192 242 b 860 0 1114 51 1056 0 l 753 0 b 671 78 706 0 671 35 l 674 522 l 657 522 b 631 351 654 499 644 428 b 599 197 621 297 610 240 b 314 0 547 7 454 0 l 161 0 b 79 78 115 0 82 35 l 57 696 l 353 696 l 342 181 "},"ẃ":{"ha":1285,"x_min":0,"x_max":0,"o":"m 621 738 l 556 857 l 899 1074 l 990 871 m 350 181 b 408 272 378 181 393 210 b 433 399 417 306 425 347 b 467 622 444 460 453 533 b 553 694 471 653 494 694 l 792 694 b 871 621 836 694 869 663 l 875 181 l 885 181 b 938 289 919 181 924 225 b 965 447 950 346 957 396 b 992 694 976 519 985 594 l 1281 694 b 1233 408 1269 597 1254 499 b 1165 178 1214 322 1192 242 b 860 0 1114 51 1056 0 l 753 0 b 671 78 706 0 671 35 l 674 522 l 657 522 b 631 351 654 499 644 428 b 599 197 621 297 610 240 b 314 0 547 7 454 0 l 161 0 b 79 78 115 0 82 35 l 57 696 l 353 696 l 342 181 "},"ŵ":{"ha":1285,"x_min":0,"x_max":0,"o":"m 900 736 l 696 867 l 685 867 l 457 736 l 390 836 l 599 1025 l 794 1025 l 976 831 m 350 181 b 408 272 378 181 393 210 b 433 399 417 306 425 347 b 467 622 444 460 453 533 b 553 694 471 653 494 694 l 792 694 b 871 621 836 694 869 663 l 875 181 l 885 181 b 938 289 919 181 924 225 b 965 447 950 346 957 396 b 992 694 976 519 985 594 l 1281 694 b 1233 408 1269 597 1254 499 b 1165 178 1214 322 1192 242 b 860 0 1114 51 1056 0 l 753 0 b 671 78 706 0 671 35 l 674 522 l 657 522 b 631 351 654 499 644 428 b 599 197 621 297 610 240 b 314 0 547 7 454 0 l 161 0 b 79 78 115 0 82 35 l 57 696 l 353 696 l 342 181 "},"ẅ":{"ha":1285,"x_min":0,"x_max":0,"o":"m 635 993 b 676 947 668 993 682 978 l 661 842 b 613 797 657 810 644 797 l 500 797 b 458 843 468 797 453 813 l 474 944 b 528 993 478 979 493 993 m 897 993 b 939 947 929 993 944 978 l 924 843 b 875 797 919 810 907 797 l 763 797 b 721 843 731 797 715 813 l 736 946 b 786 993 742 981 756 993 m 350 181 b 408 272 378 181 393 210 b 433 399 417 306 425 347 b 467 622 444 460 453 533 b 553 694 471 653 494 694 l 792 694 b 871 621 836 694 869 663 l 875 181 l 885 181 b 938 289 919 181 924 225 b 965 447 950 346 957 396 b 992 694 976 519 985 594 l 1281 694 b 1233 408 1269 597 1254 499 b 1165 178 1214 322 1192 242 b 860 0 1114 51 1056 0 l 753 0 b 671 78 706 0 671 35 l 674 522 l 657 522 b 631 351 654 499 644 428 b 599 197 621 297 610 240 b 314 0 547 7 454 0 l 161 0 b 79 78 115 0 82 35 l 57 696 l 353 696 l 342 181 "},"ẁ":{"ha":1285,"x_min":0,"x_max":0,"o":"m 743 738 l 399 885 l 510 1065 l 836 857 m 350 181 b 408 272 378 181 393 210 b 433 399 417 306 425 347 b 467 622 444 460 453 533 b 553 694 471 653 494 694 l 792 694 b 871 621 836 694 869 663 l 875 181 l 885 181 b 938 289 919 181 924 225 b 965 447 950 346 957 396 b 992 694 976 519 985 594 l 1281 694 b 1233 408 1269 597 1254 499 b 1165 178 1214 322 1192 242 b 860 0 1114 51 1056 0 l 753 0 b 671 78 706 0 671 35 l 674 522 l 657 522 b 631 351 654 499 644 428 b 599 197 621 297 610 240 b 314 0 547 7 454 0 l 161 0 b 79 78 115 0 82 35 l 57 696 l 353 696 l 342 181 "},"x":{"ha":839,"x_min":0,"x_max":0,"o":"m 783 0 l 510 0 l 411 258 l 238 0 l -62 0 l 189 354 l 54 694 l 324 694 l 414 451 l 579 694 l 871 694 l 636 354 "},"y":{"ha":864,"x_min":0,"x_max":0,"o":"m 874 694 b 632 11 839 439 686 96 b 92 -286 500 -196 326 -299 l 74 -129 b 324 0 172 -94 250 -83 l 214 0 b 128 74 168 0 133 32 l 42 694 l 361 694 l 372 197 b 394 175 372 185 382 175 l 428 175 b 561 694 492 318 529 471 "},"ý":{"ha":864,"x_min":0,"x_max":0,"o":"m 343 858 l 686 1075 l 778 872 l 408 739 m 874 694 b 632 11 839 439 686 96 b 92 -286 500 -196 326 -299 l 74 -129 b 324 0 172 -94 250 -83 l 214 0 b 128 74 168 0 133 32 l 42 694 l 361 694 l 372 197 b 394 175 372 185 382 175 l 428 175 b 561 694 492 318 529 471 "},"ŷ":{"ha":864,"x_min":0,"x_max":0,"o":"m 178 838 l 386 1026 l 582 1026 l 764 832 l 688 738 l 483 868 l 472 868 l 244 738 m 874 694 b 632 11 839 439 686 96 b 92 -286 500 -196 326 -299 l 74 -129 b 324 0 172 -94 250 -83 l 214 0 b 128 74 168 0 133 32 l 42 694 l 361 694 l 372 197 b 394 175 372 185 382 175 l 428 175 b 561 694 492 318 529 471 "},"ÿ":{"ha":864,"x_min":0,"x_max":0,"o":"m 288 799 b 246 844 256 799 240 814 l 261 946 b 315 994 265 981 281 994 l 422 994 b 464 949 456 994 469 979 l 449 843 b 400 799 444 811 432 799 m 550 799 b 508 844 518 799 503 814 l 524 947 b 574 994 529 982 543 994 l 685 994 b 726 949 717 994 732 979 l 711 844 b 663 799 707 811 694 799 m 874 694 b 632 11 839 439 686 96 b 92 -286 500 -196 326 -299 l 74 -129 b 324 0 172 -94 250 -83 l 214 0 b 128 74 168 0 133 32 l 42 694 l 361 694 l 372 197 b 394 175 372 185 382 175 l 428 175 b 561 694 492 318 529 471 "},"ỳ":{"ha":864,"x_min":0,"x_max":0,"o":"m 186 886 l 297 1067 l 624 858 l 531 739 m 874 694 b 632 11 839 439 686 96 b 92 -286 500 -196 326 -299 l 74 -129 b 324 0 172 -94 250 -83 l 214 0 b 128 74 168 0 133 32 l 42 694 l 361 694 l 372 197 b 394 175 372 185 382 175 l 428 175 b 561 694 492 318 529 471 "},"z":{"ha":747,"x_min":0,"x_max":0,"o":"m 358 188 l 675 188 l 650 0 l -14 0 l 10 188 l 8 188 l 367 507 l 65 507 l 90 694 l 738 694 l 714 507 l 715 507 "},"ź":{"ha":747,"x_min":0,"x_max":0,"o":"m 303 858 l 646 1075 l 738 872 l 368 739 m 714 507 l 715 507 l 358 188 l 675 188 l 650 0 l -14 0 l 10 188 l 8 188 l 367 507 l 65 507 l 90 694 l 738 694 "},"ž":{"ha":747,"x_min":0,"x_max":0,"o":"m 149 963 l 229 1054 l 433 942 l 444 942 l 682 1049 l 738 944 l 489 763 l 375 763 m 714 507 l 715 507 l 358 188 l 675 188 l 650 0 l -14 0 l 10 188 l 8 188 l 367 507 l 65 507 l 90 694 l 738 694 "},"ż":{"ha":747,"x_min":0,"x_max":0,"o":"m 397 783 b 319 868 338 783 311 813 l 328 933 b 414 1007 335 982 367 1007 l 496 1007 b 575 925 546 1007 581 981 l 568 857 b 485 783 563 808 533 783 m 358 188 l 675 188 l 650 0 l -14 0 l 10 188 l 8 188 l 367 507 l 65 507 l 90 694 l 738 694 l 714 507 l 715 507 "},"ﬁ":{"ha":1003,"x_min":0,"x_max":0,"o":"m 932 1026 b 1013 935 990 1026 1021 993 l 1003 864 b 915 783 994 806 972 783 l 793 783 b 711 875 735 783 704 817 l 722 946 b 811 1026 729 1004 753 1026 m 881 0 l 589 0 l 661 519 l 432 519 l 347 -44 b 83 -265 328 -175 258 -265 b -131 -244 29 -265 -35 -258 l -86 -71 l -18 -71 b 67 7 38 -71 58 -51 l 143 519 l 31 519 l 53 688 l 169 694 l 183 785 b 447 1006 203 915 271 1006 b 674 985 504 1006 614 999 l 631 811 l 549 811 b 464 733 493 811 472 792 l 458 694 l 978 694 "},"ﬂ":{"ha":1053,"x_min":0,"x_max":0,"o":"m 1019 14 b 829 -19 976 -11 872 -19 b 619 181 683 -19 603 58 l 710 815 l 544 815 b 460 733 494 815 468 792 l 454 694 l 607 694 l 582 519 l 431 519 l 351 -44 b 89 -265 333 -175 263 -265 b -125 -244 35 -265 -29 -258 l -82 -71 l -14 -71 b 71 7 42 -71 63 -51 l 142 519 l 28 519 l 49 688 l 167 694 l 179 785 b 443 1006 197 915 267 1006 b 1015 971 510 1006 831 1007 l 921 247 b 961 203 915 211 922 203 l 1006 203 "},"ª":{"ha":624,"x_min":0,"x_max":0,"o":"m 390 858 b 618 829 496 860 586 843 l 556 389 l 394 389 l 392 478 b 221 378 354 417 296 383 b 72 631 71 368 49 471 b 390 858 104 846 214 858 m 306 531 b 379 593 326 532 357 558 l 400 729 l 363 729 b 289 635 332 729 303 719 b 306 531 276 547 274 528 "},"º":{"ha":603,"x_min":0,"x_max":0,"o":"m 349 865 b 593 606 542 865 619 793 b 314 374 569 432 500 374 b 67 628 122 374 42 443 b 349 865 92 804 171 865 m 346 724 b 283 606 310 724 296 701 b 315 514 276 553 274 514 b 376 628 354 514 364 539 b 346 724 389 714 376 724 "},"А":{"ha":942,"x_min":0,"x_max":0,"o":"m 319 203 l 244 0 l -68 0 l 301 886 b 407 958 319 933 358 958 l 679 958 b 775 875 728 958 769 922 l 899 0 l 597 0 l 581 203 m 547 629 b 546 736 543 665 544 701 l 507 736 b 479 632 501 706 493 669 l 401 422 l 564 422 "},"Б":{"ha":893,"x_min":0,"x_max":0,"o":"m 488 588 b 847 278 775 588 881 511 b 482 -11 815 51 719 -11 b 21 0 268 -11 156 -10 l 156 958 b 522 969 276 967 400 969 b 878 958 640 969 757 965 l 825 743 l 428 743 l 406 588 m 550 311 b 468 406 560 392 547 406 l 379 406 l 350 197 l 424 197 b 550 311 515 197 538 208 "},"В":{"ha":918,"x_min":0,"x_max":0,"o":"m 879 708 b 682 501 861 576 815 513 l 681 493 b 858 228 832 481 881 386 b 489 -11 832 36 728 -11 b 21 0 272 -11 157 -10 l 156 958 b 549 969 275 968 381 969 b 879 708 803 969 906 911 m 592 688 b 539 761 600 743 588 761 l 422 761 l 397 588 l 490 588 b 592 688 561 588 579 604 m 557 311 b 485 406 568 389 554 406 l 372 406 l 343 197 l 431 197 b 557 311 519 197 543 217 "},"Г":{"ha":754,"x_min":0,"x_max":0,"o":"m 354 964 b 818 943 511 964 699 963 l 785 733 l 486 733 b 415 678 442 733 421 721 l 319 0 l 18 0 l 124 751 b 354 964 142 881 235 964 "},"Ѓ":{"ha":754,"x_min":0,"x_max":0,"o":"m 435 1000 l 369 1119 l 713 1336 l 804 1133 m 354 964 b 818 943 511 964 699 963 l 785 733 l 486 733 b 415 678 442 733 421 721 l 319 0 l 18 0 l 124 751 b 354 964 142 881 235 964 "},"Ґ":{"ha":776,"x_min":0,"x_max":0,"o":"m 840 943 l 807 733 l 486 733 b 415 678 453 733 421 707 l 319 0 l 18 0 l 124 751 b 353 964 142 881 235 964 b 628 961 438 964 538 964 l 674 1171 l 875 1171 "},"Д":{"ha":1097,"x_min":0,"x_max":0,"o":"m 997 -210 l 779 -210 l 788 0 l 200 0 l 151 -210 l -69 -210 l -40 0 l -15 197 l 85 197 b 283 757 179 390 229 560 b 551 958 321 892 408 958 l 1026 958 l 919 197 l 1051 197 l 1028 10 m 700 761 l 657 761 b 567 683 610 761 582 744 b 411 197 525 513 483 351 l 619 197 "},"Е":{"ha":819,"x_min":0,"x_max":0,"o":"m 481 733 b 410 678 433 733 415 719 l 397 590 l 743 590 l 718 390 l 369 390 l 354 279 b 406 225 349 243 365 225 l 739 225 l 733 11 b 264 -6 600 -7 414 -6 b 49 256 106 -6 29 104 l 118 751 b 364 964 136 881 222 964 b 847 944 532 964 718 963 l 814 733 "},"Ё":{"ha":815,"x_min":0,"x_max":0,"o":"m 346 1060 b 304 1106 314 1060 299 1075 l 319 1207 b 374 1256 324 1242 339 1256 l 481 1256 b 522 1210 514 1256 528 1240 l 507 1104 b 458 1060 503 1072 490 1060 m 608 1060 b 567 1106 576 1060 561 1075 l 582 1208 b 632 1256 588 1243 601 1256 l 743 1256 b 785 1210 775 1256 790 1240 l 769 1106 b 721 1060 765 1072 753 1060 m 476 733 b 406 678 429 733 411 719 l 393 590 l 739 590 l 714 390 l 365 390 l 350 279 b 401 225 344 243 361 225 l 735 225 l 729 11 b 260 -6 596 -7 410 -6 b 44 256 101 -6 25 104 l 114 751 b 360 964 132 881 218 964 b 843 944 528 964 714 963 l 810 733 "},"Ж":{"ha":1335,"x_min":0,"x_max":0,"o":"m 1032 494 b 1261 0 1203 467 1186 419 l 957 0 b 840 400 901 367 919 400 l 808 400 b 804 307 811 369 810 338 l 761 0 l 472 0 l 517 318 b 539 400 521 343 528 371 l 513 400 b 268 0 440 400 428 367 l -51 0 b 332 497 133 444 146 467 l 333 506 b 118 958 158 543 174 589 l 418 958 b 526 594 461 654 451 594 l 574 594 b 575 722 569 636 569 681 l 608 958 l 896 958 l 860 711 b 835 594 854 674 847 633 l 846 594 b 1075 958 943 594 947 654 l 1386 958 b 1033 503 1229 589 1235 531 "},"З":{"ha":810,"x_min":0,"x_max":0,"o":"m 454 969 b 781 708 715 969 810 911 b 586 501 763 576 715 513 l 585 493 b 743 228 718 481 765 386 b 394 -11 717 36 617 -11 b -15 43 206 -11 99 7 l 17 236 b 329 206 153 214 254 206 b 444 311 406 206 433 231 b 374 401 456 388 438 401 l 165 401 l 189 592 l 383 592 b 481 688 458 592 471 615 b 411 753 488 743 467 753 b 122 732 307 753 238 746 l 110 939 b 454 969 214 960 311 969 "},"И":{"ha":1021,"x_min":0,"x_max":0,"o":"m 599 0 l 661 429 b 701 592 669 482 683 538 l 692 592 b 614 444 669 543 644 489 l 313 0 l 22 0 l 157 958 l 446 958 l 389 551 b 343 369 381 492 363 432 l 354 369 b 438 526 379 426 408 483 l 733 958 l 1019 958 l 885 0 "},"Й":{"ha":1021,"x_min":0,"x_max":0,"o":"m 864 1263 b 601 1024 868 1133 764 1024 b 369 1263 422 1024 329 1133 l 549 1263 b 603 1157 522 1169 563 1157 b 693 1263 651 1157 693 1179 m 599 0 l 661 429 b 701 592 669 482 683 538 l 692 592 b 614 444 669 543 644 489 l 313 0 l 22 0 l 157 958 l 446 958 l 389 551 b 343 369 381 492 363 432 l 354 369 b 438 526 379 426 408 483 l 733 958 l 1019 958 l 885 0 "},"Ѝ":{"ha":1021,"x_min":0,"x_max":0,"o":"m 646 1000 l 301 1147 l 413 1328 l 739 1119 m 599 0 l 661 429 b 701 592 669 482 683 538 l 692 592 b 614 444 669 543 644 489 l 313 0 l 22 0 l 157 958 l 446 958 l 389 551 b 343 369 381 492 363 432 l 354 369 b 438 526 379 426 408 483 l 733 958 l 1019 958 l 885 0 "},"К":{"ha":939,"x_min":0,"x_max":0,"o":"m 622 493 b 871 0 811 463 811 418 l 563 0 b 407 400 517 367 528 400 l 367 400 b 367 307 371 368 371 335 l 324 0 l 22 0 l 157 958 l 458 958 l 422 711 b 397 594 418 675 408 633 l 425 594 b 671 958 543 594 565 654 l 983 958 b 624 501 835 588 832 529 "},"Ќ":{"ha":939,"x_min":0,"x_max":0,"o":"m 439 1119 l 782 1336 l 874 1133 l 504 1000 m 622 493 b 871 0 811 463 811 418 l 563 0 b 407 400 517 367 528 400 l 367 400 b 367 307 371 368 371 335 l 324 0 l 22 0 l 157 958 l 458 958 l 422 711 b 397 594 418 675 408 633 l 425 594 b 671 958 543 594 565 654 l 983 958 b 624 501 835 588 832 529 "},"Л":{"ha":988,"x_min":0,"x_max":0,"o":"m 851 0 l 550 0 l 657 761 l 617 761 b 525 686 558 761 538 743 b 390 217 490 529 444 331 b -25 -6 288 0 151 -39 l -36 228 b 119 319 19 235 76 229 b 243 757 158 400 200 556 b 501 958 272 890 354 958 l 986 958 "},"М":{"ha":1325,"x_min":0,"x_max":0,"o":"m 1194 958 b 1293 849 1263 958 1300 917 l 1207 0 l 936 0 l 1011 733 l 992 733 l 831 239 b 710 153 813 178 775 153 l 557 153 b 450 250 493 153 453 189 l 424 733 l 401 733 l 275 0 l 4 0 l 158 860 b 268 958 171 928 200 958 l 524 958 b 628 860 586 958 626 922 l 644 479 b 642 336 647 432 646 386 l 656 336 b 690 476 667 390 678 431 l 807 871 b 926 958 824 933 863 958 "},"Н":{"ha":990,"x_min":0,"x_max":0,"o":"m 854 0 l 553 0 l 610 401 l 381 401 l 324 0 l 22 0 l 157 958 l 458 958 l 410 615 l 639 615 l 688 958 l 989 958 "},"О":{"ha":972,"x_min":0,"x_max":0,"o":"m 540 978 b 938 468 857 978 990 867 b 447 -19 885 74 749 -19 b 57 490 115 -19 3 96 b 540 978 111 881 242 978 m 538 754 b 372 468 436 754 410 706 b 454 204 338 249 356 204 b 621 490 558 204 585 253 b 538 754 654 708 636 754 "},"П":{"ha":992,"x_min":0,"x_max":0,"o":"m 856 0 l 553 0 l 660 761 l 432 761 l 325 0 l 22 0 l 157 958 l 990 958 "},"Р":{"ha":892,"x_min":0,"x_max":0,"o":"m 542 972 b 901 635 835 972 936 896 b 522 322 868 388 774 322 b 368 332 471 322 418 326 l 321 0 l 21 0 l 156 958 b 542 972 281 971 364 972 m 604 657 b 535 760 615 735 603 760 l 428 760 l 396 535 l 496 535 b 604 657 567 535 589 544 "},"С":{"ha":838,"x_min":0,"x_max":0,"o":"m 543 975 b 858 936 686 975 765 963 l 824 718 b 528 721 722 719 656 721 b 371 468 429 721 400 694 b 450 238 346 279 347 238 b 757 249 589 238 668 240 l 768 28 b 436 -17 665 -4 576 -17 b 57 490 117 -17 4 113 b 543 975 111 876 224 975 "},"Т":{"ha":858,"x_min":0,"x_max":0,"o":"m 625 733 l 522 0 l 221 0 l 324 733 l 60 733 l 92 958 l 922 958 l 890 733 "},"У":{"ha":864,"x_min":0,"x_max":0,"o":"m 643 254 b 356 -19 564 72 501 -6 b 51 1 264 -29 122 -10 l 96 206 b 333 250 243 203 306 200 l 342 267 l 294 267 b 160 403 206 267 169 325 l 65 958 l 367 958 l 410 501 b 431 478 411 483 418 478 l 440 478 l 632 958 l 947 958 "},"Ў":{"ha":864,"x_min":0,"x_max":0,"o":"m 522 1024 b 297 1268 350 1024 257 1144 l 433 1275 b 535 1199 424 1217 456 1199 b 661 1278 618 1199 656 1228 l 792 1257 b 522 1024 796 1133 696 1024 m 643 254 b 356 -19 564 72 501 -6 b 51 1 264 -29 122 -10 l 96 206 b 333 250 243 203 306 200 l 342 267 l 294 267 b 160 403 206 267 169 325 l 65 958 l 367 958 l 410 501 b 431 478 411 483 418 478 l 440 478 l 632 958 l 947 958 "},"Ф":{"ha":1217,"x_min":0,"x_max":0,"o":"m 828 875 b 1203 468 1135 849 1240 740 b 714 81 1165 194 1042 99 l 700 -19 l 397 -19 l 411 83 b 35 490 100 108 -3 217 b 525 878 72 763 197 860 l 539 978 l 842 978 m 896 490 b 785 667 913 614 893 654 l 729 293 b 896 490 857 307 879 351 m 342 468 b 454 292 325 342 338 303 l 510 665 b 342 468 379 651 358 607 "},"Х":{"ha":933,"x_min":0,"x_max":0,"o":"m 879 0 l 583 0 l 479 394 l 256 0 l -64 0 l 239 489 l 94 958 l 385 958 l 483 586 l 693 958 l 1000 958 l 717 489 "},"Ч":{"ha":958,"x_min":0,"x_max":0,"o":"m 822 0 l 521 0 l 571 358 b 321 300 485 322 382 300 b 68 556 125 300 46 383 l 125 958 l 428 958 l 378 610 b 444 544 369 553 397 544 b 601 568 489 544 533 544 l 656 958 l 957 958 "},"Ц":{"ha":1046,"x_min":0,"x_max":0,"o":"m 972 0 l 943 -210 l 725 -210 l 733 0 l 22 0 l 157 958 l 460 958 l 353 197 l 567 197 l 674 958 l 975 958 l 868 197 l 1000 197 "},"Ш":{"ha":1410,"x_min":0,"x_max":0,"o":"m 1274 0 l 22 0 l 157 958 l 450 958 l 343 197 l 529 197 l 636 958 l 929 958 l 822 197 l 1008 197 l 1115 958 l 1408 958 "},"Щ":{"ha":1481,"x_min":0,"x_max":0,"o":"m 1407 0 l 1378 -210 l 1160 -210 l 1168 0 l 22 0 l 157 958 l 451 958 l 344 197 l 531 197 l 638 958 l 931 958 l 824 197 l 1010 197 l 1117 958 l 1411 958 l 1304 197 l 1435 197 "},"Џ":{"ha":996,"x_min":0,"x_max":0,"o":"m 860 0 l 560 0 l 519 -210 l 314 -210 l 332 0 l 22 0 l 157 958 l 460 958 l 353 197 l 585 197 l 692 958 l 994 958 "},"Я":{"ha":938,"x_min":0,"x_max":0,"o":"m 521 972 b 936 958 719 972 811 971 l 801 0 l 499 0 l 547 350 l 488 350 b 388 279 431 350 406 331 l 289 0 l -39 0 l 78 300 b 267 444 121 418 213 438 l 268 451 b 104 719 126 471 85 586 b 521 972 133 929 267 972 m 606 760 l 508 760 b 403 671 438 760 414 744 b 483 563 389 581 410 563 l 578 563 "},"Ь":{"ha":876,"x_min":0,"x_max":0,"o":"m 486 629 b 833 299 775 629 869 551 b 475 -11 799 54 722 -11 b 22 0 264 -11 151 -10 l 157 958 l 458 958 l 413 629 m 535 318 b 464 447 547 421 550 447 l 386 447 l 351 197 l 415 197 b 535 318 494 197 519 194 "},"Ъ":{"ha":1092,"x_min":0,"x_max":0,"o":"m 704 629 b 1049 299 992 629 1085 551 b 693 -11 1014 54 939 -11 b 244 0 485 -11 374 -10 l 347 733 l 57 733 l 88 958 l 681 958 l 635 629 m 750 318 b 682 447 763 421 765 447 l 608 447 l 574 197 l 635 197 b 750 318 710 197 735 194 "},"Ы":{"ha":1321,"x_min":0,"x_max":0,"o":"m 481 629 b 824 299 767 629 860 551 b 471 -11 789 54 715 -11 b 22 0 263 -11 150 -10 l 157 958 l 458 958 l 413 629 m 1185 0 l 883 0 l 1018 958 l 1319 958 m 525 318 b 458 447 538 421 540 447 l 386 447 l 351 197 l 411 197 b 525 318 486 197 510 194 "},"Љ":{"ha":1383,"x_min":0,"x_max":0,"o":"m 1000 629 b 1340 299 1285 629 1376 551 b 989 -11 1306 54 1232 -11 b 551 0 783 -11 679 -10 l 658 761 l 622 761 b 539 686 572 761 551 743 b 410 217 506 529 458 332 b -4 -6 319 -1 167 -39 l -15 228 b 139 319 42 235 100 232 b 261 757 179 401 219 556 b 515 958 289 890 371 958 l 983 958 l 938 629 m 1042 318 b 978 447 1054 421 1057 447 l 911 447 l 876 197 l 931 197 b 1042 318 1003 197 1026 194 "},"Њ":{"ha":1356,"x_min":0,"x_max":0,"o":"m 989 607 b 1311 276 1219 607 1349 551 b 978 -11 1281 51 1207 -11 b 533 0 772 -11 660 -10 l 532 0 l 589 410 l 382 410 l 325 0 l 22 0 l 157 958 l 460 958 l 410 607 l 617 607 l 667 958 l 963 958 l 913 607 m 1014 303 b 953 411 1024 381 1026 411 l 886 411 l 856 197 l 919 197 b 1014 303 979 197 1001 203 "},"Ѕ":{"ha":836,"x_min":0,"x_max":0,"o":"m 496 978 b 839 928 603 978 732 964 l 813 736 b 476 739 728 738 594 739 b 382 700 413 739 389 731 b 443 638 378 679 388 664 l 604 561 b 779 263 763 486 794 404 b 379 -19 754 42 656 -19 b 6 29 299 -19 151 -8 l 33 239 b 364 232 194 235 328 232 b 482 272 449 232 475 243 b 436 326 488 296 475 307 l 261 413 b 85 707 100 492 71 589 b 496 978 110 918 235 978 "},"Є":{"ha":839,"x_min":0,"x_max":0,"o":"m 535 721 b 382 590 436 721 404 690 l 751 590 l 729 390 l 354 390 b 465 238 344 267 368 238 b 750 249 592 238 671 239 l 761 28 b 438 -17 664 -6 575 -17 b 56 490 110 -17 4 119 b 547 975 106 850 235 975 b 867 936 647 975 775 963 l 832 718 b 535 721 729 719 657 721 "},"Э":{"ha":836,"x_min":0,"x_max":0,"o":"m 418 975 b 801 468 733 975 853 839 b 328 -17 753 108 631 -17 b -12 31 168 -17 79 -3 l 22 249 b 314 238 108 239 192 238 b 476 390 415 238 450 272 l 110 390 l 132 590 l 507 590 b 415 721 514 694 490 721 b 117 718 282 721 213 719 l 106 939 b 418 975 203 965 307 975 "},"І":{"ha":457,"x_min":0,"x_max":0,"o":"m 22 0 l 157 958 l 456 958 l 321 0 "},"Ї":{"ha":447,"x_min":0,"x_max":0,"o":"m 265 1256 b 307 1210 299 1256 313 1240 l 292 1104 b 243 1060 288 1072 275 1060 l 131 1060 b 89 1106 99 1060 83 1075 l 104 1207 b 158 1256 108 1242 124 1256 m 528 1256 b 569 1210 560 1256 575 1240 l 554 1106 b 506 1060 550 1072 538 1060 l 393 1060 b 351 1106 361 1060 346 1075 l 367 1208 b 417 1256 372 1243 386 1256 m 17 0 l 151 958 l 451 958 l 317 0 "},"Ј":{"ha":554,"x_min":0,"x_max":0,"o":"m 447 171 b 192 -19 429 46 332 -19 b -33 19 122 -19 10 -6 l 14 206 l 65 206 b 154 260 125 206 150 225 l 256 958 l 556 958 "},"Ћ":{"ha":1108,"x_min":0,"x_max":0,"o":"m 860 644 b 1069 389 1035 644 1090 561 l 1015 0 l 714 0 l 761 335 b 694 399 769 390 751 399 b 575 375 661 399 626 399 l 522 0 l 219 0 l 322 733 l 60 733 l 90 958 l 921 958 l 890 733 l 625 733 l 606 589 b 860 644 686 626 761 644 "},"Ю":{"ha":1413,"x_min":0,"x_max":0,"o":"m 993 978 b 1378 468 1292 978 1429 842 b 886 -19 1324 79 1201 -19 b 518 396 608 -19 493 72 l 381 396 l 325 0 l 22 0 l 157 958 l 460 958 l 408 593 l 546 593 b 993 978 607 897 726 978 m 1063 490 b 983 754 1092 708 1081 754 b 821 468 875 754 854 706 b 900 204 790 250 808 204 b 1063 490 1004 204 1031 253 "},"Ђ":{"ha":1076,"x_min":0,"x_max":0,"o":"m 843 631 b 1046 322 1001 631 1082 550 b 622 -22 1003 56 846 -22 l 606 188 b 746 332 692 207 731 251 b 685 399 757 390 729 399 b 574 369 643 399 610 390 l 522 0 l 219 0 l 322 733 l 60 733 l 90 958 l 921 958 l 890 733 l 625 733 l 603 568 b 843 631 679 611 765 631 "},"Ұ":{"ha":911,"x_min":0,"x_max":0,"o":"m 790 419 l 769 268 l 585 268 l 547 0 l 246 0 l 282 268 l 97 268 l 118 419 l 249 419 l 65 958 l 365 958 l 442 651 b 453 511 454 596 453 554 l 472 511 b 515 649 478 550 493 603 l 682 958 l 1001 958 l 667 419 "},"Ҷ":{"ha":1026,"x_min":0,"x_max":0,"o":"m 954 0 l 924 -210 l 707 -210 l 729 0 l 521 0 l 574 374 b 282 314 478 332 383 314 b 69 569 107 314 49 397 l 125 958 l 426 958 l 379 624 b 447 560 369 568 389 560 b 603 583 490 560 538 560 l 656 958 l 957 958 l 850 197 l 981 197 "},"Һ":{"ha":953,"x_min":0,"x_max":0,"o":"m 692 644 b 903 389 867 644 925 561 l 849 0 l 547 0 l 594 335 b 526 399 604 390 585 401 b 378 376 483 396 440 394 l 325 0 l 22 0 l 157 958 l 460 958 l 407 588 b 692 644 501 626 592 644 "},"Ӏ":{"ha":458,"x_min":0,"x_max":0,"o":"m 22 0 l 157 958 l 457 958 l 322 0 "},"а":{"ha":856,"x_min":0,"x_max":0,"o":"m 492 714 b 829 669 589 714 776 689 l 735 0 l 510 0 l 507 135 b 236 -17 446 43 354 -8 b 35 367 36 -31 -3 125 b 492 714 86 694 242 714 m 361 207 b 490 314 399 210 450 256 l 519 524 l 456 524 b 332 375 397 524 351 508 b 361 207 311 233 308 203 "},"б":{"ha":850,"x_min":0,"x_max":0,"o":"m 521 669 b 801 332 765 669 833 569 b 404 -17 768 92 661 -17 b 56 453 8 -17 18 189 b 364 961 93 717 149 897 b 811 1017 514 1007 639 992 l 836 789 b 469 750 667 753 579 779 b 343 686 404 733 367 711 b 290 596 318 660 303 635 b 521 669 360 653 429 669 m 499 357 b 460 503 517 483 515 503 b 338 335 383 503 357 472 b 379 181 318 201 321 181 b 499 357 450 181 478 213 "},"в":{"ha":832,"x_min":0,"x_max":0,"o":"m 790 507 b 588 361 782 439 729 369 l 586 354 b 776 161 739 346 796 276 b 413 -19 753 14 636 -19 b 31 379 76 -19 -7 110 b 483 714 65 629 190 725 b 790 507 714 704 806 633 m 519 474 b 449 525 528 511 513 525 b 335 424 363 525 344 481 l 424 429 b 519 474 481 432 511 440 m 494 229 b 415 286 501 276 481 289 l 314 281 b 392 169 304 193 317 169 b 494 229 464 169 486 178 "},"г":{"ha":767,"x_min":0,"x_max":0,"o":"m 431 714 b 744 508 618 714 750 663 b 514 283 739 336 569 296 l 360 249 b 279 211 292 233 279 226 b 413 192 279 189 304 185 b 668 215 522 199 603 206 l 692 42 b 358 -15 603 13 519 -15 b 1 217 110 -15 -15 50 b 207 421 14 339 90 393 l 371 460 b 463 500 424 472 465 476 b 363 514 461 517 439 517 b 88 492 307 513 285 511 l 82 654 b 431 714 168 689 301 714 "},"ѓ":{"ha":767,"x_min":0,"x_max":0,"o":"m 350 739 l 285 858 l 628 1075 l 719 872 m 431 714 b 744 508 618 714 750 663 b 514 283 739 336 569 296 l 360 249 b 279 211 292 233 279 226 b 413 192 279 189 304 185 b 668 215 522 199 603 206 l 692 42 b 358 -15 603 13 519 -15 b 1 217 110 -15 -15 50 b 207 421 14 339 90 393 l 371 460 b 463 500 424 472 465 476 b 363 514 461 517 439 517 b 88 492 307 513 285 511 l 82 654 b 431 714 168 689 301 714 "},"ґ":{"ha":679,"x_min":0,"x_max":0,"o":"m 704 681 l 671 479 l 415 479 b 356 432 382 479 360 463 l 294 0 l 4 0 l 78 528 b 288 706 96 656 157 706 b 492 703 354 706 425 706 l 535 890 l 736 890 "},"д":{"ha":842,"x_min":0,"x_max":0,"o":"m 203 1013 b 801 393 678 975 849 744 b 367 -19 760 79 626 -19 b 31 308 136 -19 0 81 b 363 629 61 539 174 629 b 507 599 406 629 460 624 b 164 831 489 717 401 786 m 389 181 b 499 414 458 181 469 233 l 501 435 b 443 446 483 442 464 446 b 336 306 371 446 351 403 b 389 181 321 208 324 181 "},"е":{"ha":819,"x_min":0,"x_max":0,"o":"m 453 714 b 797 456 740 714 822 624 b 501 283 779 331 689 297 l 328 271 b 426 207 331 217 358 207 b 711 222 483 207 626 213 l 731 44 b 401 -17 632 -1 511 -17 b 29 353 85 -17 6 115 b 453 714 60 650 206 714 m 519 485 b 456 526 522 515 513 528 b 346 413 388 525 365 504 l 425 421 b 519 485 482 426 514 432 "},"ё":{"ha":819,"x_min":0,"x_max":0,"o":"m 296 799 b 254 844 264 799 249 814 l 269 946 b 324 994 274 981 289 994 l 431 994 b 472 949 464 994 478 979 l 457 843 b 408 799 453 811 440 799 m 558 799 b 517 844 526 799 511 814 l 532 947 b 582 994 538 982 551 994 l 693 994 b 735 949 725 994 740 979 l 719 844 b 671 799 715 811 703 799 m 453 714 b 797 456 740 714 822 624 b 501 283 779 331 689 297 l 328 271 b 426 207 331 217 358 207 b 711 222 483 207 626 213 l 731 44 b 401 -17 632 -1 511 -17 b 29 353 85 -17 6 115 b 453 714 60 650 206 714 m 519 485 b 456 526 522 515 513 528 b 346 413 388 525 365 504 l 425 421 b 519 485 482 426 514 432 "},"ж":{"ha":1185,"x_min":0,"x_max":0,"o":"m 900 357 b 1119 0 1040 328 1049 344 l 842 0 b 738 269 788 258 792 269 l 696 269 b 696 208 699 249 699 228 l 671 0 l 415 0 l 444 210 b 458 269 447 226 451 247 l 424 269 b 244 0 372 268 358 250 l -51 0 b 281 360 114 347 92 333 l 282 368 b 78 694 121 390 133 385 l 354 694 b 454 450 393 456 389 450 l 488 450 b 489 546 483 478 483 510 l 510 694 l 764 694 l 740 542 b 721 450 736 514 729 482 l 729 450 b 911 694 804 450 804 450 l 1203 694 b 901 365 1053 385 1057 374 "},"з":{"ha":739,"x_min":0,"x_max":0,"o":"m 367 714 b 696 511 611 714 719 685 b 524 361 685 426 647 371 l 522 354 b 674 163 642 346 690 281 b 333 -19 650 -4 539 -19 b -21 15 211 -19 94 -12 l 7 200 b 297 183 126 188 232 183 b 388 228 358 183 385 186 b 333 269 392 264 371 269 l 96 271 l 115 431 l 340 432 b 408 471 385 432 403 444 b 340 507 413 504 401 507 b 81 493 263 507 164 500 l 71 681 b 367 714 186 711 307 714 "},"и":{"ha":858,"x_min":0,"x_max":0,"o":"m 738 0 l 510 0 l 504 118 b 221 -19 406 22 315 -19 b 28 181 76 -19 10 53 l 99 694 l 392 694 l 329 263 b 361 225 325 232 340 225 b 485 276 400 225 432 238 l 544 694 l 833 694 "},"й":{"ha":858,"x_min":0,"x_max":0,"o":"m 465 763 b 233 1001 286 763 193 872 l 413 1001 b 467 896 386 908 426 896 b 557 1001 515 896 557 918 l 728 1001 b 465 763 732 872 628 763 m 738 0 l 510 0 l 504 118 b 221 -19 406 22 315 -19 b 28 181 76 -19 10 53 l 99 694 l 392 694 l 329 263 b 361 225 325 232 340 225 b 485 276 400 225 432 238 l 544 694 l 833 694 "},"ѝ":{"ha":858,"x_min":0,"x_max":0,"o":"m 165 886 l 276 1067 l 603 858 l 510 739 m 738 0 l 510 0 l 504 118 b 221 -19 406 22 315 -19 b 28 181 76 -19 10 53 l 99 694 l 392 694 l 329 263 b 361 225 325 232 340 225 b 485 276 400 225 432 238 l 544 694 l 833 694 "},"к":{"ha":822,"x_min":0,"x_max":0,"o":"m 549 353 b 751 0 704 326 693 353 l 456 0 b 368 265 421 250 421 265 l 326 265 b 329 206 331 244 332 224 l 299 0 l 8 0 l 106 694 l 396 694 l 374 538 b 354 451 369 511 364 481 l 368 451 b 533 694 444 451 449 460 l 838 694 b 550 361 703 378 721 386 "},"ќ":{"ha":822,"x_min":0,"x_max":0,"o":"m 354 858 l 697 1075 l 789 872 l 419 739 m 549 353 b 751 0 704 326 693 353 l 456 0 b 368 265 421 250 421 265 l 326 265 b 329 206 331 244 332 224 l 299 0 l 8 0 l 106 694 l 396 694 l 374 538 b 354 451 369 511 364 481 l 368 451 b 533 694 444 451 449 460 l 838 694 b 550 361 703 378 721 386 "},"л":{"ha":868,"x_min":0,"x_max":0,"o":"m 746 0 l 456 0 l 525 506 l 501 506 b 436 446 463 506 449 493 b 361 172 408 350 378 236 b -12 -6 314 -11 142 -36 l -26 213 b 93 272 19 214 72 215 b 163 525 106 308 131 382 b 386 694 188 640 256 694 l 843 694 "},"м":{"ha":1142,"x_min":0,"x_max":0,"o":"m 1004 694 b 1097 590 1074 694 1104 661 l 1029 0 l 765 0 l 819 483 l 806 483 l 706 185 b 592 101 688 125 653 101 l 481 101 b 379 196 419 101 382 136 l 354 483 l 342 483 l 263 0 l -1 0 l 96 585 b 210 694 106 661 136 694 l 439 694 b 539 599 506 694 536 664 l 547 394 b 542 276 547 354 544 322 l 556 276 b 579 393 564 321 568 353 l 647 610 b 760 694 663 668 699 694 "},"н":{"ha":869,"x_min":0,"x_max":0,"o":"m 747 0 l 461 0 l 499 271 l 333 271 l 296 0 l 8 0 l 106 694 l 393 694 l 360 458 l 525 458 l 558 694 l 844 694 "},"о":{"ha":854,"x_min":0,"x_max":0,"o":"m 454 714 b 808 335 732 714 847 611 b 386 -17 771 74 663 -17 b 29 357 111 -17 -10 85 b 454 714 67 622 175 714 m 449 517 b 333 335 374 517 356 486 b 397 181 315 207 324 181 b 507 357 468 181 485 211 b 449 517 526 489 517 517 "},"п":{"ha":868,"x_min":0,"x_max":0,"o":"m 643 714 b 824 514 757 714 843 647 l 751 0 l 458 0 l 518 419 b 481 468 524 457 517 472 b 358 413 450 465 413 454 l 300 0 l 8 0 l 104 694 l 332 694 l 339 572 b 643 714 426 660 540 714 "},"р":{"ha":858,"x_min":0,"x_max":0,"o":"m 615 711 b 810 328 774 711 842 579 b 486 -19 772 40 651 -19 b 294 -1 438 -19 363 -14 b 285 -131 294 -42 292 -85 l 265 -250 l -26 -250 l 104 694 l 336 694 l 336 572 b 615 711 397 636 497 711 m 511 319 b 481 488 531 454 524 488 b 357 422 444 488 393 458 l 325 157 l 389 157 b 511 319 481 157 492 186 "},"с":{"ha":744,"x_min":0,"x_max":0,"o":"m 421 714 b 739 660 528 714 651 697 l 700 482 l 456 482 b 333 351 372 482 347 449 b 419 214 317 236 336 214 b 653 224 475 214 565 214 l 674 39 b 368 -17 583 -4 468 -17 b 29 360 124 -17 -8 89 b 421 714 64 608 160 714 "},"т":{"ha":1236,"x_min":0,"x_max":0,"o":"m 1006 714 b 1192 514 1144 714 1210 639 l 1119 0 l 831 0 l 890 432 b 864 468 894 463 881 468 b 764 426 842 468 810 458 l 704 0 l 425 0 l 485 432 b 458 468 490 463 478 468 b 357 429 435 468 404 460 l 299 0 l 8 0 l 106 694 l 332 694 l 340 596 b 593 714 425 678 499 714 b 769 614 688 714 749 679 b 1006 714 847 683 918 714 "},"у":{"ha":863,"x_min":0,"x_max":0,"o":"m 872 694 b 626 15 821 428 782 268 b -18 -286 529 -140 363 -369 l 3 -101 b 313 0 140 -122 235 -86 l 213 0 b 126 74 167 0 132 32 l 42 694 l 361 694 l 371 197 b 393 175 371 185 381 175 l 424 175 b 560 694 496 321 526 464 "},"ў":{"ha":863,"x_min":0,"x_max":0,"o":"m 488 763 b 256 1001 308 763 215 872 l 435 1001 b 489 896 408 908 449 896 b 579 1001 538 896 579 918 l 750 1001 b 488 763 754 872 650 763 m 872 694 b 626 15 821 428 782 268 b -18 -286 529 -140 363 -369 l 3 -101 b 313 0 140 -122 235 -86 l 213 0 b 126 74 167 0 132 32 l 42 694 l 361 694 l 371 197 b 393 175 371 185 381 175 l 424 175 b 560 694 496 321 526 464 "},"ф":{"ha":1082,"x_min":0,"x_max":0,"o":"m 713 707 b 1036 335 967 679 1069 571 b 610 -14 1003 103 888 6 l 578 -250 l 321 -250 l 353 -10 b 29 357 93 17 -4 124 b 457 711 63 593 178 692 l 492 972 l 749 972 m 304 349 b 393 174 289 236 306 190 l 443 524 b 304 349 349 508 319 464 m 761 346 b 672 522 775 458 760 506 l 622 174 b 761 346 717 189 746 233 "},"х":{"ha":839,"x_min":0,"x_max":0,"o":"m 783 0 l 510 0 l 411 258 l 238 0 l -62 0 l 189 354 l 54 694 l 324 694 l 414 451 l 579 694 l 871 694 l 636 354 "},"ч":{"ha":840,"x_min":0,"x_max":0,"o":"m 718 0 l 428 0 l 460 226 b 272 196 401 206 331 196 b 39 404 99 196 17 249 l 85 694 l 374 694 l 340 449 b 382 404 335 418 346 404 b 488 424 411 404 444 410 l 525 694 l 815 694 "},"ц":{"ha":921,"x_min":0,"x_max":0,"o":"m 849 0 l 818 -207 l 579 -207 l 647 0 l 629 0 b 504 118 564 0 511 49 b 221 -19 406 22 315 -19 b 28 181 78 -19 10 53 l 100 694 l 393 694 l 331 263 b 363 225 326 232 340 225 b 485 276 400 225 433 238 l 544 694 l 835 694 l 764 196 b 793 164 761 178 775 164 l 872 164 "},"ш":{"ha":1236,"x_min":0,"x_max":0,"o":"m 1114 0 l 888 0 l 879 100 b 624 -19 794 17 718 -19 b 451 82 532 -19 472 17 b 214 -19 374 11 301 -19 b 28 181 75 -19 10 56 l 100 694 l 390 694 l 329 263 b 356 226 325 232 339 226 b 458 271 378 226 411 236 l 518 694 l 792 694 l 732 263 b 758 226 726 232 739 226 b 863 268 783 226 815 236 l 921 694 l 1211 694 "},"щ":{"ha":1294,"x_min":0,"x_max":0,"o":"m 1222 0 l 1193 -207 l 954 -207 l 1021 0 l 1001 0 b 882 104 942 0 893 42 b 625 -19 796 18 719 -19 b 451 82 533 -19 472 17 b 214 -19 374 11 303 -19 b 28 181 75 -19 10 56 l 100 694 l 390 694 l 331 263 b 356 226 325 232 339 226 b 458 271 378 226 411 236 l 518 694 l 792 694 l 732 263 b 758 226 728 232 739 226 b 860 267 783 226 814 235 l 919 694 l 1210 694 l 1140 196 b 1168 164 1138 178 1150 164 l 1246 164 "},"џ":{"ha":858,"x_min":0,"x_max":0,"o":"m 738 0 l 510 0 l 504 118 b 221 -19 406 22 315 -19 b 28 181 76 -19 10 53 l 99 694 l 392 694 l 329 263 b 361 225 325 232 340 225 b 485 276 400 225 432 238 l 544 694 l 833 694 m 478 -54 l 454 -349 l 235 -349 l 296 -54 "},"ь":{"ha":760,"x_min":0,"x_max":0,"o":"m 468 476 b 711 224 669 471 738 431 b 360 -17 686 31 581 -17 b 33 225 164 -17 10 14 l 99 694 l 379 694 l 346 460 b 468 476 390 472 432 476 m 425 244 b 386 315 435 308 429 315 b 324 308 369 315 349 315 l 311 222 b 361 178 307 190 326 178 b 425 244 404 178 417 194 "},"ъ":{"ha":919,"x_min":0,"x_max":0,"o":"m 633 476 b 871 224 831 471 899 431 b 522 -15 846 32 740 -15 b 207 254 342 -15 143 25 l 272 486 l 25 486 l 53 694 l 601 694 l 543 468 b 633 476 575 475 607 476 m 583 244 b 549 315 597 308 589 315 b 503 311 536 315 521 315 l 479 222 b 521 178 469 190 486 178 b 583 244 565 178 572 194 "},"ы":{"ha":1151,"x_min":0,"x_max":0,"o":"m 467 476 b 704 224 664 471 732 431 b 356 -15 679 32 574 -15 b 33 225 160 -15 10 15 l 99 694 l 379 694 l 346 460 b 467 476 390 472 432 476 m 1029 0 l 736 0 l 833 694 l 1126 694 m 418 244 b 382 315 428 308 424 315 b 325 310 367 315 349 315 l 313 222 b 358 178 307 190 326 178 b 418 244 399 178 411 194 "},"љ":{"ha":1169,"x_min":0,"x_max":0,"o":"m 888 476 b 1119 224 1081 471 1147 431 b 772 -8 1094 39 989 -8 b 460 225 579 -8 436 22 l 501 522 l 483 522 b 421 475 444 522 431 511 b 332 165 403 404 367 244 b -18 -4 254 -12 124 -24 l -31 194 b 89 258 18 199 63 213 b 172 540 115 304 149 435 b 378 694 196 643 257 694 l 799 694 l 765 460 b 888 476 810 472 851 476 m 832 244 b 800 315 842 308 838 315 b 744 310 785 315 767 315 l 732 222 b 776 178 728 190 746 178 b 832 244 815 178 825 194 "},"њ":{"ha":1165,"x_min":0,"x_max":0,"o":"m 882 476 b 1117 224 1076 471 1144 431 b 769 -8 1092 39 986 -8 b 456 225 578 -8 432 22 l 463 279 l 311 279 l 272 0 l 8 0 l 106 694 l 369 694 l 335 451 l 488 451 l 521 694 l 794 694 l 761 460 b 882 476 806 472 847 476 m 829 244 b 796 315 839 308 835 315 b 740 310 781 315 763 315 l 728 222 b 772 178 724 190 742 178 b 829 244 811 178 822 194 "},"є":{"ha":779,"x_min":0,"x_max":0,"o":"m 451 494 b 335 435 382 494 353 488 l 681 435 l 661 268 l 315 268 b 411 200 319 215 347 200 b 690 206 538 200 607 201 l 704 24 b 417 -19 614 -11 497 -19 b 29 356 86 -19 7 121 b 440 714 60 671 235 714 b 774 669 538 714 675 704 l 743 494 "},"э":{"ha":779,"x_min":0,"x_max":0,"o":"m 390 714 b 732 333 658 714 761 606 b 303 -19 701 49 574 -19 b -17 29 164 -19 61 -1 l 13 206 b 268 200 101 201 201 200 b 428 268 378 200 411 204 l 83 268 l 103 435 l 447 435 b 358 497 447 490 426 497 b 78 496 207 496 171 496 l 64 672 b 390 714 140 696 281 714 "},"ю":{"ha":1207,"x_min":0,"x_max":0,"o":"m 824 714 b 1160 333 1089 714 1203 642 b 756 -15 1119 47 1017 -15 b 435 260 526 -15 426 42 l 336 260 l 300 0 l 8 0 l 106 694 l 397 694 l 363 449 l 460 449 b 824 714 508 665 610 714 m 857 346 b 806 499 875 479 863 499 b 707 349 742 499 725 476 b 763 200 689 215 701 200 b 857 346 826 200 840 224 "},"я":{"ha":824,"x_min":0,"x_max":0,"o":"m 489 714 b 801 703 588 714 722 713 l 703 0 l 419 0 l 450 218 l 393 218 b 319 172 351 218 328 201 l 267 0 l -33 0 l 35 215 b 186 306 57 288 129 306 l 188 314 b 58 510 63 349 46 433 b 489 714 89 693 193 714 m 492 514 l 406 514 b 338 460 357 514 344 504 b 397 389 329 411 336 389 l 474 389 "},"ђ":{"ha":876,"x_min":0,"x_max":0,"o":"m 643 589 b 836 389 786 589 854 518 l 790 75 b 540 -267 771 -69 681 -210 l 382 -132 b 501 86 458 -58 490 7 l 533 307 b 492 343 538 338 522 343 b 369 296 456 343 424 333 l 331 0 l 38 0 l 128 649 l 43 649 l 60 774 l 146 774 l 174 972 l 467 972 l 438 774 l 672 774 l 654 649 l 419 649 l 417 625 b 385 476 410 572 399 519 b 643 589 476 554 568 589 "},"ѕ":{"ha":761,"x_min":0,"x_max":0,"o":"m 386 714 b 736 682 496 714 654 700 l 713 514 l 447 514 b 326 500 350 514 329 514 b 394 463 324 486 338 478 l 546 422 b 704 203 660 392 718 319 b 351 -15 682 19 558 -15 b -4 15 265 -15 143 -11 l 19 183 l 253 183 b 425 206 396 183 422 188 b 350 243 426 219 414 225 l 204 285 b 50 522 72 322 33 410 b 386 714 68 643 142 714 "},"і":{"ha":431,"x_min":0,"x_max":0,"o":"m 351 1013 b 435 921 414 1013 442 983 l 425 850 b 329 769 418 794 389 769 l 215 769 b 133 861 153 769 126 799 l 143 932 b 239 1013 149 988 179 1013 m 14 0 l 110 694 l 400 694 l 304 0 "},"ї":{"ha":425,"x_min":0,"x_max":0,"o":"m 207 994 b 249 949 240 994 254 979 l 233 843 b 185 799 229 811 217 799 l 72 799 b 31 844 40 799 25 814 l 46 946 b 100 994 50 981 65 994 m 469 994 b 511 949 501 994 517 979 l 496 844 b 447 799 492 811 479 799 l 335 799 b 293 844 303 799 288 814 l 308 947 b 358 994 314 982 328 994 m 10 0 l 107 694 l 400 694 l 303 0 "},"ј":{"ha":432,"x_min":0,"x_max":0,"o":"m 350 1013 b 432 921 414 1013 440 983 l 422 850 b 324 769 415 794 383 769 l 214 769 b 131 861 150 769 124 799 l 140 932 b 240 1013 147 988 179 1013 m 314 75 b 61 -267 296 -69 203 -210 l -99 -132 b 25 86 -19 -58 14 7 l 113 694 l 404 694 "},"ћ":{"ha":878,"x_min":0,"x_max":0,"o":"m 642 589 b 836 389 786 589 854 517 l 782 0 l 489 0 l 533 299 b 492 343 538 332 528 343 b 369 296 456 343 424 333 l 331 0 l 38 0 l 128 649 l 43 649 l 60 774 l 146 774 l 174 972 l 467 972 l 438 774 l 672 774 l 654 649 l 419 649 l 417 625 b 382 475 410 572 397 518 b 642 589 475 554 567 589 "},"ұ":{"ha":907,"x_min":0,"x_max":0,"o":"m 744 163 l 722 -10 l 539 -10 l 507 -250 l 204 -250 l 238 -10 l 54 -10 l 76 163 l 204 163 l 25 694 l 325 694 l 399 388 b 408 247 411 332 410 290 l 429 247 b 471 385 433 286 449 339 l 633 694 l 954 694 l 628 163 "},"ҷ":{"ha":900,"x_min":0,"x_max":0,"o":"m 829 7 l 800 -189 l 560 -189 l 625 0 l 426 0 l 458 226 b 271 196 400 206 329 196 b 39 404 97 196 15 249 l 83 694 l 371 694 l 338 449 b 382 404 333 418 344 404 b 486 424 408 404 443 410 l 524 694 l 814 694 l 743 189 l 851 189 l 828 7 "},"Δ":{"ha":983,"x_min":0,"x_max":0,"o":"m 904 0 l -26 0 l -17 94 l 422 958 l 719 958 l 914 94 m 539 674 b 496 539 525 622 515 581 l 338 211 l 603 211 l 547 538 b 539 674 542 581 539 622 "},"Ω":{"ha":999,"x_min":0,"x_max":0,"o":"m 565 978 b 960 546 869 978 1001 842 b 726 197 936 376 878 313 b 839 225 768 219 800 225 l 922 225 l 892 0 l 468 0 l 493 206 b 643 514 589 289 619 357 b 551 756 672 714 650 756 b 389 532 444 756 415 713 b 439 206 367 381 374 294 l 417 0 l -7 0 l 25 225 l 111 225 b 218 200 144 225 172 222 b 82 574 106 317 58 394 b 565 978 117 842 249 978 "},"μ":{"ha":901,"x_min":0,"x_max":0,"o":"m 758 0 l 531 0 l 519 119 b 258 -19 429 26 346 -15 b 261 -107 264 -49 265 -79 l 242 -250 l -10 -250 l 51 181 l 122 694 l 415 694 l 353 263 b 382 225 349 232 356 225 b 503 269 421 225 451 235 l 563 694 l 856 694 "},"π":{"ha":914,"x_min":0,"x_max":0,"o":"m 819 507 l 749 0 l 457 0 l 528 507 l 415 507 l 344 0 l 53 0 l 124 507 l 35 507 l 61 696 l 935 696 l 908 507 "},"⁄":{"ha":222,"x_min":0,"x_max":0,"o":"m -300 0 l 360 958 l 543 958 l -117 0 "},"½":{"ha":1313,"x_min":0,"x_max":0,"o":"m 164 383 l 210 710 b 229 793 214 738 218 764 l 104 768 l 97 904 l 244 958 l 468 958 l 386 383 m 176 0 l 847 958 l 1031 958 l 361 0 m 1013 585 b 1258 410 1164 585 1285 563 b 1161 282 1251 369 1229 329 l 1008 176 b 1086 186 1038 185 1058 188 l 1239 182 l 1214 0 l 722 0 l 739 115 b 774 203 744 151 749 179 l 889 290 b 1013 382 951 335 993 364 b 1001 411 1031 397 1021 411 b 801 414 925 411 889 411 l 801 569 b 1013 585 893 585 982 585 "},"¼":{"ha":1329,"x_min":0,"x_max":0,"o":"m 211 710 b 231 793 215 738 219 764 l 106 768 l 97 904 l 246 958 l 468 958 l 386 383 l 165 383 m 363 0 l 178 0 l 849 958 l 1033 958 m 1256 125 l 1190 107 l 1189 107 l 1174 0 l 979 0 l 994 107 l 758 107 b 697 217 692 107 672 171 l 882 575 l 1081 575 l 931 264 b 940 244 924 249 931 244 l 1013 244 l 1029 364 l 1076 460 l 1239 460 l 1208 244 l 1271 244 "},"¾":{"ha":1397,"x_min":0,"x_max":0,"o":"m 539 532 b 279 371 526 439 471 371 b 49 389 211 371 121 379 l 60 544 b 247 543 160 542 197 543 b 319 586 304 543 317 565 b 293 613 322 607 317 613 l 154 615 l 172 744 l 308 743 b 343 781 333 743 343 751 b 314 800 343 792 340 800 b 128 803 276 800 215 800 l 125 956 b 340 971 203 967 282 971 b 560 825 519 971 574 932 b 429 690 553 768 526 700 l 428 686 b 539 532 524 675 549 613 m 460 0 l 276 0 l 944 958 l 1129 958 m 1329 128 l 1265 110 l 1263 110 l 1247 3 l 1054 3 l 1069 110 l 835 110 b 772 219 768 110 749 174 l 957 578 l 1156 578 l 1004 267 b 1014 247 997 251 1004 247 l 1088 247 l 1104 364 l 1150 463 l 1313 463 l 1282 247 l 1344 247 "},"¹":{"ha":446,"x_min":0,"x_max":0,"o":"m 172 500 l 219 826 b 239 910 224 854 228 881 l 101 885 l 93 1021 l 253 1075 l 475 1075 l 393 500 "},"²":{"ha":599,"x_min":0,"x_max":0,"o":"m 360 1085 b 608 910 511 1085 633 1063 b 507 782 601 869 578 829 l 351 676 b 431 686 379 685 403 688 l 588 682 l 563 500 l 65 500 l 82 615 b 115 703 88 651 90 679 l 236 790 b 364 882 301 835 344 864 b 347 911 381 897 369 911 b 144 914 271 911 233 911 l 143 1069 b 360 1085 238 1085 326 1085 "},"³":{"ha":565,"x_min":0,"x_max":0,"o":"m 361 1088 b 583 942 542 1088 596 1049 b 453 807 576 885 550 817 l 451 803 b 564 649 547 792 575 729 b 299 488 551 556 494 488 b 65 506 231 488 140 496 l 76 661 b 268 660 178 658 215 660 b 344 703 326 660 342 682 b 314 729 347 724 340 729 l 172 729 l 190 860 l 329 860 b 368 897 357 860 368 868 b 333 917 368 908 364 917 b 146 919 296 917 233 917 l 143 1072 b 361 1088 221 1083 303 1088 "},"*":{"ha":635,"x_min":0,"x_max":0,"o":"m 550 539 l 419 447 l 354 613 l 243 447 l 125 539 l 308 717 l 318 961 l 476 961 l 418 718 m 285 726 l 242 686 l 78 718 l 139 867 l 289 794 m 478 681 l 443 725 l 458 793 l 617 865 l 647 717 "},"\\":{"ha":807,"x_min":0,"x_max":0,"o":"m 500 -110 l 97 958 l 314 958 l 717 -110 "},"•":{"ha":526,"x_min":0,"x_max":0,"o":"m 300 558 b 447 383 422 558 463 510 l 443 360 b 258 185 424 222 385 185 l 221 185 b 71 371 94 185 53 233 l 75 394 b 267 558 93 521 132 558 "},":":{"ha":382,"x_min":0,"x_max":0,"o":"m 225 642 b 321 536 290 642 331 606 l 313 479 b 201 385 304 414 272 385 l 146 385 b 50 490 74 385 42 422 l 57 547 b 169 642 67 613 103 642 m 171 258 b 267 153 236 258 276 222 l 258 96 b 147 1 250 31 218 1 l 92 1 b -4 107 19 1 -12 39 l 3 164 b 115 258 13 229 49 258 "},",":{"ha":357,"x_min":0,"x_max":0,"o":"m 179 257 b 272 151 253 257 282 228 l 260 63 b 135 -229 246 -35 194 -158 l 17 -185 b 76 6 44 -122 60 -57 b 4 94 15 4 -3 33 l 14 158 b 129 257 25 235 60 257 "},"…":{"ha":1279,"x_min":0,"x_max":0,"o":"m 158 257 b 254 151 224 257 264 221 l 246 94 b 135 0 238 29 206 0 l 79 0 b -17 106 7 0 -25 38 l -10 163 b 103 257 0 228 36 257 m 621 257 b 717 151 686 257 726 221 l 708 94 b 597 0 700 29 668 0 l 542 0 b 446 106 469 0 438 38 l 453 163 b 565 257 463 228 499 257 m 1083 257 b 1179 151 1149 257 1189 221 l 1171 94 b 1060 0 1163 29 1131 0 l 1004 0 b 908 106 932 0 900 38 l 915 163 b 1028 257 925 228 961 257 "},"!":{"ha":456,"x_min":0,"x_max":0,"o":"m 329 315 l 101 315 l 117 640 l 161 965 l 450 965 l 406 640 m 228 257 b 324 151 293 257 333 221 l 315 94 b 204 0 307 29 275 0 l 149 0 b 53 106 76 0 44 38 l 60 163 b 172 257 69 228 106 257 "},"¡":{"ha":433,"x_min":0,"x_max":0,"o":"m 281 722 b 376 617 346 722 386 686 l 368 560 b 257 465 360 494 328 465 l 201 465 b 106 571 129 465 97 503 l 113 628 b 225 722 122 693 158 722 m 271 -243 l -18 -243 l 26 82 l 103 407 l 331 407 l 315 82 "},"#":{"ha":1032,"x_min":0,"x_max":0,"o":"m 793 422 l 946 422 l 888 253 l 739 253 l 660 0 l 442 0 l 521 253 l 390 253 l 311 0 l 93 0 l 172 253 l 8 253 l 67 422 l 226 422 l 269 561 l 111 561 l 168 731 l 322 731 l 394 958 l 613 958 l 540 731 l 671 731 l 743 958 l 961 958 l 889 731 l 1047 731 l 990 561 l 836 561 m 488 561 l 444 422 l 575 422 l 618 561 "},".":{"ha":354,"x_min":0,"x_max":0,"o":"m 179 257 b 275 151 244 257 285 221 l 267 94 b 156 0 258 29 226 0 l 100 0 b 4 106 28 0 -4 38 l 11 163 b 124 257 21 228 57 257 "},"·":{"ha":364,"x_min":0,"x_max":0,"o":"m 215 488 b 311 382 281 488 321 451 l 303 325 b 192 231 294 260 263 231 l 136 231 b 40 336 64 231 32 268 l 47 393 b 160 488 57 458 93 488 "},"?":{"ha":750,"x_min":0,"x_max":0,"o":"m 468 989 b 768 763 690 989 789 915 b 453 317 740 567 518 540 l 225 317 b 443 710 243 531 411 643 b 399 758 464 753 446 758 l 103 758 l 104 951 b 468 989 222 974 279 989 m 357 257 b 454 151 424 257 464 221 l 446 94 b 336 0 438 29 406 0 l 279 0 b 182 106 207 0 175 38 l 190 163 b 301 257 199 228 235 257 "},"¿":{"ha":743,"x_min":0,"x_max":0,"o":"m 458 719 b 554 614 524 719 564 683 l 546 557 b 436 463 539 492 507 463 l 379 463 b 283 568 307 463 275 500 l 290 625 b 401 719 300 690 335 719 m 507 403 b 286 10 488 164 324 75 b 335 -39 269 -19 278 -39 l 631 -39 l 628 -232 b 264 -269 510 -254 454 -269 b -36 -43 42 -269 -57 -196 b 279 403 -10 153 219 167 "},"\"":{"ha":547,"x_min":0,"x_max":0,"o":"m 99 642 l 126 958 l 326 958 l 265 642 m 347 642 l 375 958 l 575 958 l 514 642 "},"'":{"ha":299,"x_min":0,"x_max":0,"o":"m 99 642 l 126 958 l 326 958 l 265 642 "},";":{"ha":379,"x_min":0,"x_max":0,"o":"m 246 642 b 342 536 311 642 351 606 l 333 479 b 222 385 325 414 293 385 l 167 385 b 71 490 94 385 63 422 l 78 547 b 190 642 88 613 124 642 m 192 257 b 285 151 265 257 294 228 l 272 63 b 147 -229 258 -35 207 -158 l 29 -185 b 89 6 57 -122 72 -57 b 17 94 28 4 10 33 l 26 158 b 142 257 38 235 72 257 "},"/":{"ha":829,"x_min":0,"x_max":0,"o":"m -49 -110 l 647 958 l 882 958 l 186 -110 "},"_":{"ha":740,"x_min":0,"x_max":0,"o":"m -24 -169 l 0 0 l 626 0 l 603 -169 "},"{":{"ha":508,"x_min":0,"x_max":0,"o":"m 528 889 b 438 831 469 889 443 885 l 413 657 b 224 453 399 539 365 472 b 361 249 340 419 375 346 l 328 7 b 403 -51 322 -31 339 -51 l 394 -231 b 46 -21 125 -272 25 -164 l 89 288 b 26 367 97 347 72 347 l 49 547 b 133 640 103 564 122 568 l 165 869 b 550 1065 185 1013 297 1107 "},"}":{"ha":507,"x_min":0,"x_max":0,"o":"m 122 1068 b 472 858 392 1110 492 1001 l 439 629 b 496 544 428 557 447 561 l 472 364 b 383 276 421 344 392 336 l 340 -32 b -44 -228 319 -175 208 -269 l -22 -51 b 67 3 36 -51 61 -51 l 103 260 b 297 458 118 357 154 422 b 165 668 178 475 147 550 l 192 842 b 114 889 197 878 179 889 "},"[":{"ha":506,"x_min":0,"x_max":0,"o":"m 465 889 b 421 853 436 889 425 881 l 297 -19 b 324 -51 294 -42 303 -51 l 408 -51 l 383 -229 l 146 -229 b 17 -83 63 -229 1 -194 l 160 932 b 311 1067 172 1015 228 1067 l 565 1067 l 540 889 "},"]":{"ha":506,"x_min":0,"x_max":0,"o":"m 365 1067 b 493 921 449 1067 504 1004 l 350 -94 b 200 -229 339 -178 283 -229 l -54 -229 l -29 -51 l 46 -51 b 89 -15 74 -51 85 -43 l 213 857 b 188 889 215 879 207 889 l 103 889 l 128 1067 "},"(":{"ha":518,"x_min":0,"x_max":0,"o":"m 596 972 b 319 424 443 914 360 713 b 431 -104 281 157 293 -40 l 394 -222 b 40 444 101 -143 -14 69 b 561 1099 93 817 249 1021 "},")":{"ha":518,"x_min":0,"x_max":0,"o":"m 132 1092 b 486 422 425 1014 539 801 b -35 -231 433 53 278 -151 l -69 -104 b 207 446 85 -40 167 163 b 97 972 246 719 235 914 "},"—":{"ha":1142,"x_min":0,"x_max":0,"o":"m 44 272 l 69 442 l 1085 442 l 1060 272 "},"–":{"ha":739,"x_min":0,"x_max":0,"o":"m 44 272 l 69 442 l 682 442 l 657 272 "},"-":{"ha":531,"x_min":0,"x_max":0,"o":"m 44 272 l 69 442 l 474 442 l 449 272 "},"­":{"ha":533,"x_min":0,"x_max":0,"o":"m 44 272 l 69 442 l 474 442 l 449 272 "},"«":{"ha":769,"x_min":0,"x_max":0,"o":"m 289 349 l 375 135 l 222 35 l 25 315 l 29 378 l 254 653 l 411 556 m 614 349 l 700 135 l 547 35 l 350 315 l 354 378 l 579 653 l 736 556 "},"»":{"ha":771,"x_min":0,"x_max":0,"o":"m 139 342 l 53 556 l 206 656 l 403 375 l 399 313 l 174 38 l 17 135 m 464 342 l 378 556 l 531 656 l 728 375 l 724 313 l 499 38 l 342 135 "},"‹":{"ha":444,"x_min":0,"x_max":0,"o":"m 289 349 l 375 135 l 222 35 l 25 315 l 29 378 l 254 653 l 411 556 "},"›":{"ha":443,"x_min":0,"x_max":0,"o":"m 397 311 l 172 35 l 15 132 l 138 339 l 51 554 l 204 653 l 401 374 "},"„":{"ha":599,"x_min":0,"x_max":0,"o":"m 153 213 b 233 117 217 213 242 186 l 222 36 b 114 -229 210 -53 165 -165 l 11 -189 b 64 -15 36 -132 49 -72 b 1 65 11 -17 -6 10 l 10 124 b 110 213 19 193 49 213 m 429 213 b 510 117 493 213 518 186 l 499 36 b 390 -229 486 -53 442 -165 l 288 -189 b 340 -15 313 -132 325 -72 b 278 65 288 -17 271 10 l 286 124 b 386 213 296 193 325 213 "},"“":{"ha":585,"x_min":0,"x_max":0,"o":"m 160 549 b 79 644 96 549 71 575 l 90 725 b 199 990 103 814 147 926 l 301 950 b 249 776 276 893 264 833 b 311 696 301 778 318 751 l 303 638 b 203 549 293 568 264 549 m 436 549 b 356 644 372 549 347 575 l 367 725 b 475 990 379 814 424 926 l 578 950 b 525 776 553 893 540 833 b 588 696 578 778 594 751 l 579 638 b 479 549 569 568 540 549 "},"”":{"ha":583,"x_min":0,"x_max":0,"o":"m 246 972 b 326 876 310 972 335 946 l 315 796 b 207 531 303 707 258 594 l 104 571 b 157 744 129 628 142 688 b 94 825 104 743 88 769 l 103 883 b 203 972 113 953 142 972 m 522 972 b 603 876 586 972 611 946 l 592 796 b 483 531 579 707 535 594 l 381 571 b 433 744 406 628 418 688 b 371 825 381 743 364 769 l 379 883 b 479 972 389 953 418 972 "},"‘":{"ha":308,"x_min":0,"x_max":0,"o":"m 160 549 b 79 644 96 549 71 575 l 90 725 b 199 990 103 814 147 926 l 301 950 b 249 776 276 893 264 833 b 311 696 301 778 318 751 l 303 638 b 203 549 293 568 264 549 "},"’":{"ha":307,"x_min":0,"x_max":0,"o":"m 246 972 b 326 876 310 972 335 946 l 315 796 b 207 531 303 707 258 594 l 104 571 b 157 744 129 628 142 688 b 94 825 104 743 88 769 l 103 883 b 203 972 113 953 142 972 "},"‚":{"ha":322,"x_min":0,"x_max":0,"o":"m 153 213 b 233 117 217 213 242 186 l 222 36 b 114 -229 210 -53 165 -165 l 11 -189 b 64 -15 36 -132 49 -72 b 1 65 11 -17 -6 10 l 10 124 b 110 213 19 193 49 213 "}," ":{"ha":292,"x_min":0,"x_max":0,"o":""}," ":{"ha":292,"x_min":0,"x_max":0,"o":""},"ƒ":{"ha":696,"x_min":0,"x_max":0,"o":"m 619 783 b 538 706 576 783 550 760 l 507 569 l 636 569 l 599 394 l 468 394 l 372 -29 b 90 -250 342 -160 265 -250 b -131 -229 35 -250 -75 -243 l -72 -56 l 6 -56 b 88 22 49 -56 76 -32 l 171 394 l 47 394 l 81 549 l 210 568 l 253 757 b 536 978 285 888 361 978 b 757 957 592 978 700 971 l 697 783 "},"¢":{"ha":747,"x_min":0,"x_max":0,"o":"m 468 617 b 354 486 390 617 368 583 b 433 349 338 371 357 349 b 663 358 489 349 576 349 l 682 174 b 433 119 608 138 518 124 l 401 0 l 186 0 l 222 139 b 50 494 89 182 22 292 b 408 849 83 735 174 842 l 438 958 l 654 958 l 621 832 b 749 794 667 824 711 811 l 708 617 "},"¤":{"ha":792,"x_min":0,"x_max":0,"o":"m 693 478 b 643 346 686 431 669 385 l 731 251 l 603 136 l 515 232 b 381 199 474 211 428 199 b 238 236 326 199 278 213 l 144 151 l 29 278 l 129 368 b 115 500 114 408 108 453 b 168 635 122 549 142 594 l 82 729 l 211 844 l 299 747 b 429 779 339 768 383 779 b 569 743 482 779 529 767 l 671 836 l 786 710 l 679 613 b 693 478 694 572 700 526 m 278 493 b 390 363 267 413 322 363 b 532 488 464 363 521 411 b 421 618 543 568 492 618 b 278 493 339 618 289 569 "},"$":{"ha":810,"x_min":0,"x_max":0,"o":"m 461 739 b 378 700 404 739 383 731 b 435 638 374 679 381 664 l 588 561 b 757 263 740 483 772 404 b 394 -19 733 50 643 -15 l 363 -150 l 147 -150 l 182 -6 b 0 29 125 1 63 13 l 29 239 b 353 232 183 235 318 232 b 458 272 429 232 451 243 b 418 326 464 296 454 310 l 250 413 b 81 707 93 494 67 589 b 438 978 103 906 213 969 l 471 1099 l 688 1099 l 651 967 b 818 928 708 958 767 946 l 790 736 b 461 739 708 738 576 739 "},"€":{"ha":892,"x_min":0,"x_max":0,"o":"m 636 975 b 893 936 751 975 833 957 l 858 732 b 613 732 831 735 678 740 b 486 654 549 724 511 706 l 757 654 l 721 501 l 54 501 l 76 654 l 163 654 b 636 975 226 874 358 975 m 518 221 b 796 236 581 210 713 221 l 808 26 b 529 -17 736 0 642 -17 b 121 307 267 -17 138 88 l 25 307 l 46 460 l 706 460 l 671 307 l 435 307 b 518 221 443 257 468 229 "},"£":{"ha":828,"x_min":0,"x_max":0,"o":"m 546 747 b 468 688 490 747 471 733 l 464 575 l 668 575 l 642 436 l 460 436 l 458 417 b 328 214 454 299 394 257 b 442 232 361 226 403 232 l 764 232 l 733 0 l -1 0 l 24 235 b 163 428 125 281 158 349 l 163 436 l 58 436 l 75 575 l 171 575 l 178 713 b 503 976 194 926 289 976 b 831 963 574 976 706 972 l 804 747 "},"¥":{"ha":979,"x_min":0,"x_max":0,"o":"m 851 511 l 831 358 l 129 358 l 147 511 l 253 511 l 103 958 l 403 958 l 476 651 b 485 511 488 596 486 554 l 506 511 b 547 649 510 550 525 603 l 708 958 l 1029 958 l 756 511 m 825 317 l 804 164 l 603 164 l 581 0 l 278 0 l 301 164 l 103 164 l 121 317 "},"≈":{"ha":813,"x_min":0,"x_max":0,"o":"m 285 672 b 529 614 346 667 488 621 b 589 672 579 606 585 636 l 765 658 b 565 415 783 493 711 408 b 317 471 503 418 365 465 b 258 415 267 476 265 451 l 83 428 b 285 672 63 604 156 685 m 247 390 b 492 332 308 385 450 339 b 551 389 542 324 546 354 l 726 376 b 528 132 746 211 674 125 b 278 188 463 135 328 182 b 221 133 229 193 225 168 l 44 146 b 247 390 26 322 118 403 "},"~":{"ha":694,"x_min":0,"x_max":0,"o":"m 182 522 b 461 461 249 522 425 469 b 528 521 513 450 521 479 l 644 510 b 513 281 650 353 597 281 b 231 342 442 281 272 333 b 165 282 182 351 172 326 l 49 293 b 182 522 42 458 108 522 "},"÷":{"ha":733,"x_min":0,"x_max":0,"o":"m 450 808 b 554 694 536 808 568 782 l 553 675 b 424 561 540 586 511 561 l 360 561 b 254 678 268 561 242 590 l 257 697 b 393 808 269 786 306 808 m 19 299 l 51 513 l 714 513 l 682 299 m 367 244 b 472 129 454 244 485 218 l 469 110 b 342 -3 458 21 429 -3 l 278 -3 b 172 114 186 -3 158 26 l 175 133 b 311 244 186 222 222 244 "},"∅":{"ha":951,"x_min":0,"x_max":0,"o":"m 486 879 b 892 474 710 879 892 697 b 486 67 892 249 710 67 b 79 474 261 67 79 249 b 486 879 79 697 261 879 m 486 757 b 317 742 394 757 371 750 l 321 679 b 486 692 376 688 401 692 b 578 628 544 692 578 668 b 443 335 578 538 443 494 l 518 335 b 649 628 518 481 649 501 b 486 757 649 715 592 757 m 454 238 b 444 226 449 238 444 233 l 444 175 b 454 165 444 169 449 165 l 508 165 b 519 175 515 165 519 169 l 519 226 b 508 238 519 233 515 238 "},"=":{"ha":793,"x_min":0,"x_max":0,"o":"m 72 457 l 103 671 l 767 671 l 736 457 m 29 163 l 63 376 l 726 376 l 693 163 "},">":{"ha":694,"x_min":0,"x_max":0,"o":"m 646 310 l 17 89 l 49 321 l 417 431 l 81 540 l 107 751 l 676 533 "},"≥":{"ha":768,"x_min":0,"x_max":0,"o":"m 704 435 l 68 271 l 101 508 l 476 554 l 114 597 l 144 822 l 736 660 m 39 32 l 69 253 l 697 253 l 665 32 "},"∞":{"ha":1049,"x_min":0,"x_max":0,"o":"m 813 636 b 1011 415 928 636 1032 565 b 758 203 992 274 882 203 b 517 311 656 203 575 253 b 251 203 421 242 356 203 b 42 438 128 203 21 285 b 286 636 60 575 164 636 b 533 521 397 636 472 585 b 813 636 633 597 689 636 m 242 424 b 294 372 238 386 265 369 b 419 431 350 378 385 401 b 319 465 397 451 371 465 b 242 424 274 465 244 451 m 808 417 b 764 465 813 454 788 465 b 635 400 718 465 681 436 b 722 372 656 385 683 372 b 808 417 768 372 801 385 "},"∫":{"ha":486,"x_min":0,"x_max":0,"o":"m 322 992 b 529 986 371 992 446 994 l 490 776 l 419 776 b 379 733 394 776 382 763 l 329 -129 b 126 -308 322 -256 279 -308 b -64 -301 99 -308 -37 -306 l -26 -93 l 42 -93 b 86 -49 65 -93 85 -79 l 135 813 b 322 992 143 935 225 992 "},"<":{"ha":699,"x_min":0,"x_max":0,"o":"m 283 424 l 625 317 l 596 92 l 22 310 l 53 533 l 686 753 l 656 519 "},"≤":{"ha":767,"x_min":0,"x_max":0,"o":"m 336 543 l 692 490 l 661 271 l 74 435 l 106 660 l 739 819 l 704 588 m 0 32 l 32 253 l 654 253 l 622 32 "},"¬":{"ha":790,"x_min":0,"x_max":0,"o":"m 692 192 l 461 192 l 481 324 l 43 324 l 75 538 l 742 538 "},"−":{"ha":790,"x_min":0,"x_max":0,"o":"m 47 299 l 79 513 l 742 513 l 710 299 "},"×":{"ha":731,"x_min":0,"x_max":0,"o":"m 678 261 l 524 88 l 344 267 l 121 90 l 14 264 l 201 411 l 58 554 l 211 714 l 379 550 l 606 728 l 713 556 l 526 408 "},"≠":{"ha":844,"x_min":0,"x_max":0,"o":"m 761 457 l 97 457 l 128 671 l 439 671 l 521 853 l 674 783 l 621 671 l 792 671 m 751 376 l 718 163 l 386 163 l 306 -14 l 156 51 l 206 163 l 54 163 l 88 376 "},"∂":{"ha":817,"x_min":0,"x_max":0,"o":"m 207 978 b 783 460 654 997 861 881 b 325 -17 713 71 547 -17 b 28 354 43 -17 -7 194 b 347 635 57 485 156 635 b 510 588 418 635 469 622 b 197 789 533 731 493 789 m 357 200 b 476 426 421 200 447 275 b 413 431 453 429 436 431 b 315 325 353 431 331 389 b 357 200 293 236 293 200 "},"%":{"ha":1276,"x_min":0,"x_max":0,"o":"m 343 978 b 572 681 526 978 604 907 b 296 406 542 465 476 406 b 69 703 115 406 38 476 b 343 978 100 918 165 978 m 225 0 l 888 958 l 1068 958 l 406 0 m 338 826 b 279 681 301 826 296 811 b 303 557 264 569 267 557 b 363 703 342 557 347 572 b 338 826 374 814 372 826 m 997 553 b 1226 256 1181 553 1258 482 b 950 -19 1196 40 1131 -19 b 724 278 769 -19 692 51 b 997 553 754 493 819 553 m 992 401 b 933 256 956 401 950 386 b 957 132 918 144 921 132 b 1017 278 996 132 1001 147 b 992 401 1028 389 1026 401 "},"‰":{"ha":1838,"x_min":0,"x_max":0,"o":"m 343 978 b 572 681 526 978 604 907 b 296 406 542 465 476 406 b 69 703 115 406 38 476 b 343 978 100 918 165 978 m 225 0 l 888 958 l 1068 958 l 406 0 m 338 826 b 279 681 301 826 296 811 b 303 557 264 569 267 557 b 363 703 342 557 347 572 b 338 826 374 814 372 826 m 997 553 b 1226 256 1181 553 1258 482 b 950 -19 1196 40 1131 -19 b 724 278 769 -19 692 51 b 997 553 754 493 819 553 m 1556 553 b 1785 256 1739 553 1817 482 b 1508 -19 1754 40 1689 -19 b 1282 278 1328 -19 1250 51 b 1556 553 1313 493 1378 553 m 992 401 b 933 256 956 401 950 386 b 957 132 918 144 921 132 b 1017 278 996 132 1001 147 b 992 401 1028 389 1026 401 m 1550 401 b 1492 256 1514 401 1508 386 b 1515 132 1476 144 1479 132 b 1575 278 1554 132 1560 147 b 1550 401 1586 389 1585 401 "},"+":{"ha":722,"x_min":0,"x_max":0,"o":"m 454 314 l 424 94 l 211 94 l 242 314 l 22 314 l 54 529 l 274 529 l 304 749 l 517 749 l 486 529 l 706 529 l 674 314 "},"±":{"ha":771,"x_min":0,"x_max":0,"o":"m 715 432 l 496 432 l 475 283 l 264 283 l 285 432 l 65 432 l 96 646 l 315 646 l 336 796 l 549 796 l 526 646 l 747 646 m 689 242 l 658 26 l 7 26 l 39 242 "},"∏":{"ha":983,"x_min":0,"x_max":0,"o":"m 901 756 l 778 -125 l 486 -125 l 610 756 l 472 756 l 349 -125 l 57 -125 l 181 756 l 83 756 l 113 958 l 1028 958 l 999 756 "},"√":{"ha":819,"x_min":0,"x_max":0,"o":"m 500 6 b 489 0 499 -1 497 0 l 143 0 b 121 17 135 0 119 10 l 43 694 l 271 694 l 322 183 l 340 183 l 700 1217 l 936 1217 "},"∑":{"ha":831,"x_min":0,"x_max":0,"o":"m 433 761 l 560 443 l 317 -29 l 735 -29 l 707 -226 l -43 -226 l -18 -29 l 235 446 l 115 761 l 140 958 l 860 958 l 832 761 "},"◊":{"ha":799,"x_min":0,"x_max":0,"o":"m 457 960 b 485 950 468 972 479 963 l 774 492 b 778 460 778 481 785 471 l 364 -1 b 336 8 351 -14 340 -4 l 46 469 b 42 501 40 481 35 490 m 382 283 l 550 481 l 440 678 l 268 481 "},"&":{"ha":1054,"x_min":0,"x_max":0,"o":"m 926 400 b 882 260 917 350 901 303 b 368 -19 807 92 660 -19 b 22 256 103 -19 0 72 b 242 493 38 382 103 486 l 243 501 b 118 733 150 510 97 618 b 518 978 157 949 311 978 b 756 944 586 978 675 972 l 710 751 b 528 768 656 760 589 768 b 413 678 449 768 422 756 b 479 582 403 601 424 582 l 710 582 b 717 697 713 617 715 656 l 956 697 b 951 582 956 658 954 619 l 1058 582 l 1032 400 m 656 343 b 678 400 664 360 671 379 l 453 400 b 344 296 393 400 354 381 b 439 208 336 228 371 208 b 656 343 525 208 603 231 "},"^":{"ha":690,"x_min":0,"x_max":0,"o":"m 564 517 l 410 735 l 399 735 l 181 517 l 72 575 l 311 907 l 522 907 l 679 575 "},"@":{"ha":1142,"x_min":0,"x_max":0,"o":"m 593 910 b 1093 444 1056 913 1153 854 b 681 -19 1042 96 1006 -19 b 444 107 540 -19 472 39 b 236 -17 394 33 328 -17 b 40 321 81 -17 3 90 b 381 632 85 596 204 632 b 750 593 503 632 618 615 l 689 217 b 718 168 683 182 694 168 b 844 456 801 168 801 210 b 590 715 889 711 857 715 l 108 715 l 121 896 b 593 910 272 904 446 908 m 336 193 b 440 285 376 193 406 222 l 469 456 l 408 456 b 297 311 360 456 322 451 b 336 193 278 199 296 193 "},"|":{"ha":383,"x_min":0,"x_max":0,"o":"m 0 -235 l 186 1085 l 389 1085 l 203 -235 "},"¦":{"ha":388,"x_min":0,"x_max":0,"o":"m 110 529 l 189 1085 l 392 1085 l 313 529 m 3 -235 l 81 321 l 283 321 l 206 -235 "},"©":{"ha":1093,"x_min":0,"x_max":0,"o":"m 597 978 b 1061 468 908 978 1093 778 b 519 -19 1031 172 828 -19 b 53 490 217 -19 18 165 b 597 978 86 794 299 978 m 601 849 b 192 468 368 849 213 707 b 513 110 174 251 279 110 b 922 490 739 110 900 244 b 601 849 942 711 831 849 m 600 751 b 783 728 674 751 728 743 l 763 578 b 579 578 697 576 656 578 b 513 483 535 578 521 563 b 556 383 503 399 513 386 b 731 388 600 381 683 383 l 743 236 b 554 208 679 215 619 208 b 296 492 343 208 269 282 b 600 751 321 689 400 751 "},"†":{"ha":676,"x_min":0,"x_max":0,"o":"m 146 -153 l 258 546 l 278 672 l 303 960 l 531 960 l 475 672 l 458 546 l 374 -153 m 72 694 l 251 694 l 228 526 l 44 496 m 658 496 l 483 526 l 507 694 l 686 694 "},"‡":{"ha":714,"x_min":0,"x_max":0,"o":"m 413 135 l 388 -153 l 160 -153 l 215 135 l 293 694 l 317 960 l 544 960 l 493 694 m 58 496 l 86 694 l 265 694 l 242 526 m 497 526 l 521 694 l 700 694 l 672 496 m 183 113 l 4 113 l 32 311 l 207 281 m 439 113 l 463 281 l 646 311 l 618 113 "},"°":{"ha":461,"x_min":0,"x_max":0,"o":"m 292 969 b 482 769 400 969 497 890 b 269 590 468 660 388 590 b 83 792 157 590 67 669 b 292 969 97 896 171 969 m 286 847 b 217 783 243 847 221 819 b 278 713 211 739 236 713 b 349 778 317 713 344 736 b 286 847 353 818 331 847 "},"¶":{"ha":826,"x_min":0,"x_max":0,"o":"m 667 0 l 493 0 l 606 803 l 561 804 l 407 -292 l 233 -292 l 314 281 b 56 636 103 306 28 446 b 531 975 93 888 221 975 b 800 951 613 975 721 968 l 778 789 "},"®":{"ha":686,"x_min":0,"x_max":0,"o":"m 421 978 b 686 658 590 978 713 847 b 339 360 660 482 532 360 b 72 681 168 360 46 490 b 421 978 99 857 226 978 m 610 681 b 415 907 628 818 535 907 b 149 658 263 907 168 810 b 344 431 131 519 224 431 b 610 681 497 431 592 529 m 390 825 b 538 732 499 825 549 799 b 468 669 535 708 522 675 l 467 667 b 514 614 490 665 510 656 l 522 532 l 400 532 l 399 617 b 385 631 399 628 396 631 l 356 631 l 342 532 l 224 532 l 264 821 b 390 825 306 825 333 825 m 419 721 b 403 743 422 736 421 743 l 371 743 l 365 701 l 392 701 b 419 721 408 701 417 703 "},"§":{"ha":750,"x_min":0,"x_max":0,"o":"m 436 978 b 756 961 506 978 660 972 l 725 764 b 508 765 686 767 669 767 b 407 725 438 765 408 758 b 456 664 406 708 413 689 l 571 597 b 650 240 726 515 738 408 l 449 251 b 371 413 461 351 451 358 l 201 526 b 94 757 143 569 78 626 b 436 978 118 947 272 978 m 286 453 b 364 292 274 353 283 343 l 533 186 b 639 -54 572 160 664 117 b 301 -274 614 -233 501 -274 b -21 -256 228 -274 71 -268 l 10 -60 b 196 -62 63 -60 128 -62 b 328 -21 279 -62 321 -58 b 294 31 332 1 321 15 l 164 107 b 85 464 8 189 -3 296 "},"™":{"ha":1382,"x_min":0,"x_max":0,"o":"m 413 439 l 214 439 l 268 818 l 119 818 l 140 967 l 635 967 l 614 818 l 467 818 m 1308 967 b 1374 893 1353 967 1378 938 l 1325 439 l 1146 439 l 1183 818 l 1174 818 l 1107 586 b 1032 532 1096 546 1074 532 l 932 532 b 860 597 890 532 861 557 l 856 818 l 843 818 l 776 439 l 596 439 l 678 904 b 746 967 686 949 701 967 l 919 967 b 989 900 960 967 988 940 l 992 740 b 985 649 992 710 989 679 l 994 649 b 1013 740 1000 675 1006 714 l 1054 911 b 1131 967 1064 951 1089 967 "},"´":{"ha":544,"x_min":0,"x_max":0,"o":"m 190 710 l 125 829 l 468 1046 l 560 843 "},"˘":{"ha":571,"x_min":0,"x_max":0,"o":"m 619 975 b 350 742 624 851 524 742 b 125 986 178 742 85 863 l 261 993 b 363 917 251 935 283 917 b 489 996 446 917 483 946 "},"ˇ":{"ha":663,"x_min":0,"x_max":0,"o":"m 450 760 l 336 760 l 110 960 l 190 1051 l 394 939 l 406 939 l 643 1046 l 699 942 "},"¸":{"ha":365,"x_min":0,"x_max":0,"o":"m 36 -46 b 275 -147 185 -26 294 -31 b -69 -339 249 -301 101 -362 l -40 -232 b 97 -168 21 -232 85 -225 b 11 -146 101 -150 94 -146 "},"ˆ":{"ha":663,"x_min":0,"x_max":0,"o":"m 610 742 l 406 872 l 394 872 l 167 742 l 100 842 l 308 1031 l 504 1031 l 686 836 "},"¨":{"ha":606,"x_min":0,"x_max":0,"o":"m 317 1000 b 358 954 350 1000 364 985 l 343 849 b 294 804 339 817 326 804 l 182 804 b 140 850 150 804 135 819 l 156 951 b 210 1000 160 986 175 1000 m 579 1000 b 621 954 611 1000 626 985 l 606 850 b 557 804 601 817 589 804 l 444 804 b 403 850 413 804 397 819 l 418 953 b 468 1000 424 988 438 1000 "},"˙":{"ha":349,"x_min":0,"x_max":0,"o":"m 299 1006 b 378 924 349 1006 383 979 l 371 856 b 288 782 365 807 336 782 l 200 782 b 122 867 140 782 114 811 l 131 932 b 217 1006 138 981 169 1006 "},"`":{"ha":544,"x_min":0,"x_max":0,"o":"m 465 710 l 121 857 l 232 1038 l 558 829 "},"˝":{"ha":760,"x_min":0,"x_max":0,"o":"m 235 710 l 117 782 l 321 1050 l 489 933 m 532 710 l 415 781 l 619 1050 l 788 933 "},"¯":{"ha":556,"x_min":0,"x_max":0,"o":"m 122 819 l 146 990 l 590 990 l 567 819 "},"˛":{"ha":347,"x_min":0,"x_max":0,"o":"m 258 0 b 179 -126 225 -36 192 -89 b 224 -160 169 -157 181 -168 l 244 -262 b -25 -129 7 -349 -76 -231 b 138 11 -3 -86 46 -39 "},"˚":{"ha":442,"x_min":0,"x_max":0,"o":"m 307 1078 b 478 899 408 1078 492 999 b 292 742 467 814 399 742 b 122 921 186 742 108 822 b 307 1078 133 1006 201 1078 m 303 974 b 238 914 268 974 242 949 b 294 846 233 874 256 846 b 363 914 333 846 361 874 b 303 974 364 950 339 974 "},"˜":{"ha":639,"x_min":0,"x_max":0,"o":"m 260 1006 b 482 944 329 1006 435 956 b 547 1004 531 933 542 960 l 665 993 b 533 764 672 832 615 764 b 306 825 461 764 356 815 b 242 765 258 835 249 810 l 124 776 b 260 1006 119 935 176 1006 "}}}
